<svg xmlns="http://www.w3.org/2000/svg" data-name="Camada 1" width="356" height="345"><rect id="backgroundrect" width="100%" height="100%" x="0" y="0" fill="none" stroke="none" class="" style=""/><defs><style>.cls-1{fill:#0f4c05;stroke:#43cc2f;stroke-linecap:round;stroke-linejoin:round;stroke-width:5px;}</style></defs><title/><g class="currentLayer" style=""><title>Layer 1</title><path class="cls-1" d="M348.84646697998045,319.1701907348633 l-25.17,3.27 a6.890000000000001,6.890000000000001 0 0 1 -7.38,-4.5600000000000005 L314.13646697998047,311.6301907348633 a6.45,6.45 0 0 0 -4.71,-4.18 L262.03646697998045,297.08019073486327 a2.43,2.43 0 0 0 -2.35,0.77 l-8.5,9.63 a7.06,7.06 0 0 0 -1.77,4.76 l0.19000000000000003,22.67 A6.86,6.86 0 0 1 248.13646697998047,339.2501907348633 l-3.35,4.37 a2.3200000000000003,2.3200000000000003 0 0 1 -1.83,0.9 H205.9264669799805 a6.27,6.27 0 0 1 -6.12,-4.93 l-1.17,-5.35 a6.27,6.27 0 0 0 -6.12,-4.92 H163.75646697998047 a6.27,6.27 0 0 0 -6.12,4.92 l-1.17,5.35 a6.27,6.27 0 0 1 -6.12,4.93 H113.27646697998046 a2.3200000000000003,2.3200000000000003 0 0 1 -1.83,-0.9 L108.13646697998047,339.2501907348633 a6.86,6.86 0 0 1 -1.4300000000000002,-4.29 l0.19000000000000003,-22.67 a7.06,7.06 0 0 0 -1.77,-4.76 l-8.5,-9.63 a2.43,2.43 0 0 0 -2.35,-0.77 L46.85646697998047,307.45019073486327 a6.45,6.45 0 0 0 -4.71,4.18 l-2.17,6.24 a6.890000000000001,6.890000000000001 0 0 1 -7.38,4.5600000000000005 l-25.17,-3.27 A8.46,8.46 0 0 1 0.13646697998046875,309.2501907348633 l8.26,-45.19 a8.46,8.46 0 0 1 9.53,-6.91 l23.75,3.38 a5.57,5.57 0 0 1 4.66,6.59 l-0.52,2.62 c-0.39000000000000007,3 2.11,4.21 5,4.82 l2,0.41000000000000003 a5.33,5.33 0 0 0 5.75,-2.5700000000000003 c3.26,-5.75 20.27,-30.74 35.3,-47.42 s35.09,-34.51 35.09,-34.51 A8.93,8.93 0 0 0 128.33646697998046,177.25019073486328 l-10.68,-8.76 a3.85,3.85 0 0 1 -1.3800000000000001,-3.41 c1.27,-10.6 6.6,-33.31 19.86,-79.08 c15.5,-53.5 29.72,-81.15 29.72,-81.15 a7.4,7.4 0 0 1 7,-4.85 h10.66 a7.4,7.4 0 0 1 7,4.85 S204.63646697998047,32.52019073486328 220.13646697998047,86.02019073486329 c13.26,45.77 18.59,68.48 19.86,79.08 a3.85,3.85 0 0 1 -1.3800000000000001,3.41 L227.93646697998048,177.25019073486328 a8.93,8.93 0 0 0 -0.6400000000000001,13.24 s20.06,17.83 35.09,34.51 s32,41.67 35.3,47.42 a5.33,5.33 0 0 0 5.75,2.5700000000000003 l2,-0.41000000000000003 c2.92,-0.6100000000000001 5.42,-1.86 5,-4.82 l-0.52,-2.62 a5.57,5.57 0 0 1 4.66,-6.59 l23.75,-3.38 a8.46,8.46 0 0 1 9.53,6.91 L356.13646697998047,309.2501907348633 A8.46,8.46 0 0 1 348.84646697998045,319.1701907348633 z" id="svg_1"/></g></svg>