<?xml version="1.0" ?><svg data-name="Camada 1" id="Camada_1" viewBox="0 0 512 512" xmlns="http://www.w3.org/2000/svg"><defs><style>.cls-1{fill:#0f4c05;stroke:#43cc2f;stroke-linecap:round;stroke-linejoin:round;stroke-width:5px;}</style></defs><title/><path class="cls-1" d="M426.71,402.92l-25.17,3.27a6.89,6.89,0,0,1-7.38-4.56L392,395.38a6.45,6.45,0,0,0-4.71-4.18L339.9,380.83a2.43,2.43,0,0,0-2.35.77l-8.5,9.63a7.06,7.06,0,0,0-1.77,4.76l.19,22.67A6.86,6.86,0,0,1,326,423l-3.35,4.37a2.32,2.32,0,0,1-1.83.9H283.79a6.27,6.27,0,0,1-6.12-4.93l-1.17-5.35a6.27,6.27,0,0,0-6.12-4.92H241.62a6.27,6.27,0,0,0-6.12,4.92l-1.17,5.35a6.27,6.27,0,0,1-6.12,4.93H191.14a2.32,2.32,0,0,1-1.83-.9L186,423a6.86,6.86,0,0,1-1.43-4.29l.19-22.67a7.06,7.06,0,0,0-1.77-4.76l-8.5-9.63a2.43,2.43,0,0,0-2.35-.77L124.72,391.2a6.45,6.45,0,0,0-4.71,4.18l-2.17,6.24a6.89,6.89,0,0,1-7.38,4.56l-25.17-3.27A8.46,8.46,0,0,1,78,393l8.26-45.19a8.46,8.46,0,0,1,9.53-6.91l23.75,3.38a5.57,5.57,0,0,1,4.66,6.59l-.52,2.62c-.39,3,2.11,4.21,5,4.82l2,.41a5.33,5.33,0,0,0,5.75-2.57c3.26-5.75,20.27-30.74,35.3-47.42s35.09-34.51,35.09-34.51A8.93,8.93,0,0,0,206.2,261l-10.68-8.76a3.85,3.85,0,0,1-1.38-3.41c1.27-10.6,6.6-33.31,19.86-79.08,15.5-53.5,29.72-81.15,29.72-81.15a7.4,7.4,0,0,1,7-4.85h10.66a7.4,7.4,0,0,1,7,4.85S282.5,116.27,298,169.77c13.26,45.77,18.59,68.48,19.86,79.08a3.85,3.85,0,0,1-1.38,3.41L305.8,261a8.93,8.93,0,0,0-.64,13.24s20.06,17.83,35.09,34.51,32,41.67,35.3,47.42a5.33,5.33,0,0,0,5.75,2.57l2-.41c2.92-.61,5.42-1.86,5-4.82l-.52-2.62a5.57,5.57,0,0,1,4.66-6.59l23.75-3.38a8.46,8.46,0,0,1,9.53,6.91L434,393A8.46,8.46,0,0,1,426.71,402.92Z"/></svg>