<svg xmlns="http://www.w3.org/2000/svg" width="356" height="345" data-name="Camada 1"><defs/><rect width="100%" height="100%" fill="none"/><g class="currentLayer"><path fill="#0f4c05" stroke="#43cc2f" stroke-linecap="round" stroke-linejoin="round" stroke-width="5" d="M348.846 319.17l-25.17 3.27a6.89 6.89 0 01-7.38-4.56l-2.16-6.25a6.45 6.45 0 00-4.71-4.18l-47.39-10.37a2.43 2.43 0 00-2.35.77l-8.5 9.63a7.06 7.06 0 00-1.77 4.76l.19 22.67a6.86 6.86 0 01-1.47 4.34l-3.35 4.37a2.32 2.32 0 01-1.83.9h-37.03a6.27 6.27 0 01-6.12-4.93l-1.17-5.35a6.27 6.27 0 00-6.12-4.92h-28.76a6.27 6.27 0 00-6.12 4.92l-1.17 5.35a6.27 6.27 0 01-6.12 4.93h-37.07a2.32 2.32 0 01-1.83-.9l-3.31-4.37a6.86 6.86 0 01-1.43-4.29l.19-22.67a7.06 7.06 0 00-1.77-4.76l-8.5-9.63a2.43 2.43 0 00-2.35-.77l-47.42 10.32a6.45 6.45 0 00-4.71 4.18l-2.17 6.24a6.89 6.89 0 01-7.38 4.56l-25.17-3.27a8.46 8.46 0 01-7.29-9.91l8.26-45.19a8.46 8.46 0 019.53-6.91l23.75 3.38a5.57 5.57 0 014.66 6.59l-.52 2.62c-.39 3 2.11 4.21 5 4.82l2 .41a5.33 5.33 0 005.75-2.57c3.26-5.75 20.27-30.74 35.3-47.42s35.09-34.51 35.09-34.51a8.93 8.93 0 00-.62-13.22l-10.68-8.76a3.85 3.85 0 01-1.38-3.41c1.27-10.6 6.6-33.31 19.86-79.08 15.5-53.5 29.72-81.15 29.72-81.15a7.4 7.4 0 017-4.85h10.66a7.4 7.4 0 017 4.85s14.12 27.67 29.62 81.17c13.26 45.77 18.59 68.48 19.86 79.08a3.85 3.85 0 01-1.38 3.41l-10.68 8.74a8.93 8.93 0 00-.64 13.24s20.06 17.83 35.09 34.51 32 41.67 35.3 47.42a5.33 5.33 0 005.75 2.57l2-.41c2.92-.61 5.42-1.86 5-4.82l-.52-2.62a5.57 5.57 0 014.66-6.59l23.75-3.38a8.46 8.46 0 019.53 6.91l8.28 45.17a8.46 8.46 0 01-7.29 9.92z"/></g></svg>