<svg xmlns="http://www.w3.org/2000/svg" width="467" height="364"><defs/><rect id="backgroundrect" width="100%" height="100%" x="0" y="0" fill="none" stroke="none" style="--darkreader-inline-fill:none;--darkreader-inline-stroke:none"/><style>.st0{fill:#3b4652}.st1{fill:#2b79c2}</style><style media="screen"/><g class="currentLayer"><g id="svg_1" stroke="#000" stroke-dasharray="none" stroke-opacity="1" class="selected" filter="url(#f166)" opacity="1" style="--darkreader-inline-stroke:#e8e6e3"><path id="svg_2" stroke="#000" stroke-dasharray="none" d="M445.05 305.135H24.242c-14.28 0-17.194 11.157-17.194 25.006v1.923c0 13.85 2.914 25.006 17.194 25.006h420.806c14.28 0 14.668-11.156 14.668-25.006v-1.923c0-13.753-.388-25.006-14.668-25.006z" class="st0" filter="url(#f166)" opacity="1" style="--darkreader-inline-stroke:#e8e6e3"/><path id="svg_3" stroke="#000" stroke-dasharray="none" d="M329.162 291.67c-5.634-13.368-8.742-28.083-9.325-43.374-1.263-.193-2.526-.385-3.691-.481-43.519-5.963-103.162-14.138-154.257-62.034-21.954-20.581-30.599-50.203-36.622-79.152-.777-3.655 1.652-7.213 5.246-7.983 3.691-.77 7.285 1.54 8.062 5.194 5.635 26.737 13.503 54.05 32.64 72.035 47.889 45.01 105.104 52.8 146.776 58.475l2.04.289c.777-11.734 3.012-23.563 6.703-35.393 2.04-6.348 4.468-12.599 7.382-18.562-10.88-1.539-22.147-2.981-33.61-4.905 0 .192-.097.289-.097.481l-6.994 27.602c-.777 3.078-3.594 5.098-6.605 5.098-.583 0-1.069-.096-1.652-.193-3.69-.961-5.828-4.616-4.954-8.175l6.994-27.313c-7.868-1.635-15.64-3.655-23.41-6.252-.097.192-.195.481-.292.673l-11.074 22.794a6.828 6.828 0 01-6.12 3.847c-.97 0-2.04-.192-2.913-.673-3.4-1.635-4.857-5.675-3.206-8.945l10.782-22.216c-7.965-3.366-15.833-7.406-23.41-12.407l-.097.096-13.6 18.081c-1.36 1.732-3.4 2.693-5.44 2.693-1.457 0-2.817-.48-4.08-1.346-3.01-2.212-3.69-6.444-1.36-9.425l13.6-18.081.097-.097c-2.331-1.923-4.76-3.943-6.994-6.155-1.457-1.346-2.817-3.077-4.08-5.193l-19.427 15.1c-1.263.961-2.72 1.442-4.177 1.442-2.04 0-3.983-.866-5.343-2.597-2.331-2.885-1.846-7.117 1.166-9.425l20.496-15.869c.583-.385 1.166-.77 1.749-.962-1.943-5.578-3.692-11.83-5.149-18.37l-29.919 7.406c-.583.096-1.068.193-1.651.193-3.011 0-5.828-2.02-6.606-5.098-.874-3.654 1.263-7.213 4.955-8.175l30.113-7.405c.097 0 .194 0 .291-.096a359.72 359.72 0 01-2.331-12.792H35.219v14.523c0 28.853-3.302 57.609-9.908 85.692-5.245 22.41-10.782 59.725-11.462 118.97 3.205-1.058 6.605-1.54 10.297-1.54h305.016zM88.16 203.767c17.194 0 31.085 13.753 31.085 30.776S105.354 265.32 88.16 265.32s-31.084-13.754-31.084-30.777 13.89-30.776 31.084-30.776z" class="st0" filter="url(#f166)" opacity="1" style="--darkreader-inline-stroke:#e8e6e3"/><path id="svg_4" stroke="#000" stroke-dasharray="none" d="M344.025 291.67h100.927c4.08 0 7.48.578 10.394 1.636 5.828-24.333 13.114-79.249-33.513-96.85-16.416-6.25-43.033-8.27-73.729-13.464-3.302 6.444-6.12 13.273-8.45 20.486-10.006 31.545-7.577 63.476 4.37 88.193z" class="st1" filter="url(#f166)" opacity="1" style="--darkreader-inline-stroke:#e8e6e3"/><path id="svg_5" stroke="#000" stroke-dasharray="none" d="M18.026 6.606h184.37v53.858H18.026z" class="st1" filter="url(#f166)" opacity="1" style="--darkreader-inline-stroke:#e8e6e3"/></g></g><defs><filter xmlns:inkscape="http://www.inkscape.org/namespaces/inkscape" id="f166" color-interpolation-filters="sRGB" inkscape:label="Black outline" inkscape:menu="ABCs" inkscape:menu-tooltip="Draws a black outline around"><feGaussianBlur in="SourceAlpha" result="result0" stdDeviation="2"/><feComposite in="SourceGraphic" in2="result0" k2="1" k3="10" operator="arithmetic" result="result3"/><feComposite in="result3" in2="result3" k2="1" operator="in" result="result4"/></filter></defs></svg>