<svg xmlns="http://www.w3.org/2000/svg" xmlns:xlink="http://www.w3.org/1999/xlink" style="" version="1.1" xml:space="preserve" width="467" height="364"><rect id="backgroundrect" width="100%" height="100%" x="0" y="0" fill="none" stroke="none" data-darkreader-inline-fill="" data-darkreader-inline-stroke="" style="--darkreader-inline-fill:none; --darkreader-inline-stroke:none;" class=""/><style type="text/css">
	.st0{fill:#3B4652;}
	.st1{fill:#2B79C2;}
</style><style class="darkreader darkreader--sync" media="screen"/><g class="currentLayer" style=""><title>Layer 1</title><g id="svg_1" class="selected" stroke-opacity="1" stroke="#000000" data-darkreader-inline-stroke="" style="--darkreader-inline-stroke:#e8e6e3;" opacity="1" filter="url(#f166)" stroke-dasharray="none"><path class="st0" d="M445.0493039961306,305.13531795365947 H24.24278030044269 c-14.27944574867639,0 -17.193618350447082,11.156372271745933 -17.193618350447082,25.005661988396056 v1.9235124606458507 c0,13.849289716650125 2.914172601770691,25.005661988396056 17.193618350447082,25.005661988396056 h420.8065236956878 c14.27944574867639,0 14.668002095579146,-11.156372271745933 14.668002095579146,-25.005661988396056 v-1.9235124606458507 C459.7173060917097,316.3878658484378 459.328749744807,305.13531795365947 445.0493039961306,305.13531795365947 z" id="svg_2" stroke="#000000" data-darkreader-inline-stroke="" style="--darkreader-inline-stroke:#e8e6e3;" opacity="1" filter="url(#f166)" stroke-dasharray="none"/><path class="st0" d="M329.1623735323828,291.67073072913854 c-5.634067030090002,-13.368411601488662 -8.742517805312078,-28.083281925429418 -9.325352325666213,-43.37520598756394 c-1.2628081274339669,-0.19235124606458542 -2.5256162548679333,-0.3847024921291709 -3.691285295576209,-0.48087811516146295 c-43.518310853108986,-5.962888628002137 -103.16171010268249,-14.137816585747002 -154.2568697203953,-62.03327685582868 c-21.953433600005877,-20.5815833289106 -30.598812318592262,-50.203675222856695 -36.621435695585035,-79.15253775557676 c-0.7771126938055184,-3.6546736752271163 1.6513644743367264,-7.21317172742194 5.245510683187246,-7.982576711680281 c3.691285295576209,-0.7694049842583408 7.285431504426729,1.5388099685166807 8.062544198232247,5.193483643743797 c5.634067030090002,26.736823202977323 13.50233305487087,54.0507001441484 32.63873313983175,72.03554165118712 c47.88956975576503,45.0101915791129 105.10449183719628,52.8004170447286 146.77716004251718,58.47477880363386 c0.6799736070798288,0.09617562303229274 1.3599472141596565,0.19235124606458542 2.039920821239485,0.28852686909687814 c0.7771126938055184,-11.73342600993969 3.0113116884963818,-23.56302764291167 6.702596984072593,-35.39262927588365 c2.039920821239485,-6.347591120131308 4.468397989381726,-12.599006617230321 7.382570591152418,-18.561895245232456 c-10.879577713277246,-1.5388099685166807 -22.14771177345726,-2.9814443140010694 -33.61012400708864,-4.904956774646919 c0,0.19235124606458542 -0.09713908672568991,0.28852686909687814 -0.09713908672568991,0.48087811516146295 l-6.9940142442496605,27.602403810267955 c-0.7771126938055184,3.077619937033361 -3.5941462088505207,5.097308020711505 -6.605457897346902,5.097308020711505 c-0.5828345203541387,0 -1.068529953982587,-0.09617562303229274 -1.6513644743367264,-0.19235124606458542 c-3.691285295576209,-0.9617562303229255 -5.828345203541382,-4.61642990555004 -4.954093423010174,-8.174927957744863 l6.9940142442496605,-27.31387694117108 c-7.868266024780867,-1.6349855915489737 -15.639392962836048,-3.6546736752271163 -23.410519900891224,-6.251415497099014 c-0.09713908672568991,0.19235124606458542 -0.1942781734513796,0.48087811516146295 -0.29141726017706965,0.6732293612260493 L252.42249501908788,190.49397529916686 c-1.1656690407082766,2.404390575807314 -3.5941462088505207,3.8470249212917014 -6.119762463718452,3.8470249212917014 c-0.9713908672568977,0 -2.039920821239485,-0.19235124606458542 -2.914172601770691,-0.6732293612260493 c-3.39986803539914,-1.6349855915489737 -4.8569543362844865,-5.67436175890526 -3.2055898619477605,-8.944332942003207 l10.782438626551558,-22.216568920459572 c-7.965405111506556,-3.366146806130239 -15.833671136287427,-7.405522973486525 -23.410519900891224,-12.406655371165737 c0,0 -0.09713908672568991,0.09617562303229274 -0.09713908672568991,0.09617562303229274 l-13.59947214159656,18.081017130070993 c-1.3599472141596565,1.7311612145812652 -3.39986803539914,2.6929174449041913 -5.439788856638623,2.6929174449041913 c-1.4570863008853456,0 -2.817033515045002,-0.48087811516146295 -4.079841642478969,-1.3464587224520956 c-3.0113116884963818,-2.212039329742728 -3.691285295576209,-6.443766743163599 -1.3599472141596565,-9.425211057164669 l13.59947214159656,-18.081017130070993 c0,0 0.09713908672568991,-0.09617562303229274 0.09713908672568991,-0.09617562303229274 c-2.331338081416553,-1.9235124606458507 -4.7598152495587955,-3.943200544323994 -6.9940142442496605,-6.155239874066722 c-1.4570863008853456,-1.3464587224520956 -2.817033515045002,-3.077619937033361 -4.079841642478969,-5.193483643743797 l-19.427817345137946,15.099572816069928 c-1.2628081274339669,0.9617562303229255 -2.7198944283193116,1.442634345484388 -4.17698072920466,1.442634345484388 c-2.039920821239485,0 -3.982702555753278,-0.865580607290633 -5.342649769912934,-2.5967418218718983 c-2.331338081416553,-2.885268690968776 -1.8456426477881047,-7.116996104389648 1.1656690407082766,-9.425211057164669 l20.496347299120533,-15.86897780032827 c0.5828345203541387,-0.3847024921291709 1.1656690407082766,-0.7694049842583408 1.748503561062415,-0.9617562303229255 c-1.9427817345137948,-5.578186135872967 -3.691285295576209,-11.82960163297198 -5.148371596461557,-18.369543999167874 l-29.918838711512436,7.405522973486525 c-0.5828345203541387,0.09617562303229274 -1.068529953982587,0.19235124606458542 -1.6513644743367264,0.19235124606458542 c-3.0113116884963818,0 -5.828345203541382,-2.0196880836781435 -6.605457897346902,-5.097308020711505 c-0.8742517805312076,-3.6546736752271163 1.2628081274339669,-7.21317172742194 4.954093423010174,-8.174927957744863 l30.113116884963812,-7.405522973486525 c0.09713908672568991,0 0.1942781734513796,0 0.29141726017706965,-0.09617562303229274 c-0.8742517805312076,-4.327903036453164 -1.6513644743367264,-8.655806072906328 -2.331338081416553,-12.791357863294905 H35.21949710044562 V88.54781488493677 c0,28.85268690968776 -3.302728948673451,57.609198196343236 -9.90818684602035,85.69248012177265 c-5.245510683187246,22.408920166524158 -10.782438626551558,59.725061903053664 -11.462412233631387,118.96924569094585 c3.2055898619477605,-1.0579318533552178 6.605457897346902,-1.5388099685166807 10.296743192923111,-1.5388099685166807 H329.1623735323828 zM88.16029936594653,203.76621127762323 c17.193618350447082,0 31.084507752220713,13.753114093617834 31.084507752220713,30.776199370333607 s-13.890889401773633,30.776199370333607 -31.084507752220713,30.776199370333607 s-31.084507752220713,-13.753114093617834 -31.084507752220713,-30.776199370333607 S70.96668101549945,203.76621127762323 88.16029936594653,203.76621127762323 z" id="svg_3" stroke="#000000" data-darkreader-inline-stroke="" style="--darkreader-inline-stroke:#e8e6e3;" opacity="1" filter="url(#f166)" stroke-dasharray="none"/><path class="st1" d="M344.0246538014132,291.67073072913854 h100.92751110799163 c4.079841642478969,0 7.479709677878109,0.5770537381937562 10.393882279648798,1.6349855915489737 c5.828345203541382,-24.33243262717001 13.113776707968112,-79.24871337860905 -33.51298492036295,-96.84885239351858 c-16.41650565664156,-6.251415497099014 -43.03261541948055,-8.271103580777158 -73.7285668247985,-13.464587224520956 c-3.302728948673451,6.443766743163599 -6.119762463718452,13.272235978456369 -8.451100545135004,20.485407705878313 C329.64806896601124,235.02328876311827 332.07654613415343,266.95359560983945 344.0246538014132,291.67073072913854 z" id="svg_4" stroke="#000000" data-darkreader-inline-stroke="" style="--darkreader-inline-stroke:#e8e6e3;" opacity="1" filter="url(#f166)" stroke-dasharray="none"/><rect class="st1" height="53.85834850749295" width="184.36999346393497" x="18.025877722270312" y="6.606186795059933" id="svg_5" stroke="#000000" data-darkreader-inline-stroke="" style="--darkreader-inline-stroke:#e8e6e3;" opacity="1" filter="url(#f166)" stroke-dasharray="none"/></g></g><defs><filter xmlns:inkscape="http://www.inkscape.org/namespaces/inkscape" id="f166" inkscape:menu-tooltip="Draws a black outline around" inkscape:menu="ABCs" inkscape:label="Black outline" color-interpolation-filters="sRGB">
            <feGaussianBlur stdDeviation="2" in="SourceAlpha" result="result0"/>
            <feComposite result="result3" operator="arithmetic" in2="result0" in="SourceGraphic" k2="1" k3="10"/>
            <feComposite k2="1" operator="in" in="result3" result="result4" in2="result3"/>
        </filter></defs></svg>