<?xml version="1.0" ?><svg id="Layer_1" style="enable-background:new 0 0 512 512;" version="1.1" viewBox="0 0 512 512" xml:space="preserve" xmlns="http://www.w3.org/2000/svg" xmlns:xlink="http://www.w3.org/1999/xlink"><style type="text/css">
	.st0{fill:#3B4652;}
	.st1{fill:#2B79C2;}
</style><g><path class="st0" d="M473.9,384.2H40.7c-14.7,0-17.7,11.6-17.7,26v2c0,14.4,3,26,17.7,26h433.2c14.7,0,15.1-11.6,15.1-26v-2   C489,395.9,488.6,384.2,473.9,384.2z"/><path class="st0" d="M354.6,370.2c-5.8-13.9-9-29.2-9.6-45.1c-1.3-0.2-2.6-0.4-3.8-0.5c-44.8-6.2-106.2-14.7-158.8-64.5   c-22.6-21.4-31.5-52.2-37.7-82.3c-0.8-3.8,1.7-7.5,5.4-8.3c3.8-0.8,7.5,1.6,8.3,5.4c5.8,27.8,13.9,56.2,33.6,74.9   c49.3,46.8,108.2,54.9,151.1,60.8c0.7,0.1,1.4,0.2,2.1,0.3c0.8-12.2,3.1-24.5,6.9-36.8c2.1-6.6,4.6-13.1,7.6-19.3   c-11.2-1.6-22.8-3.1-34.6-5.1c0,0.2-0.1,0.3-0.1,0.5l-7.2,28.7c-0.8,3.2-3.7,5.3-6.8,5.3c-0.6,0-1.1-0.1-1.7-0.2   c-3.8-1-6-4.8-5.1-8.5l7.2-28.4c-8.1-1.7-16.1-3.8-24.1-6.5c-0.1,0.2-0.2,0.5-0.3,0.7L275.6,265c-1.2,2.5-3.7,4-6.3,4   c-1,0-2.1-0.2-3-0.7c-3.5-1.7-5-5.9-3.3-9.3l11.1-23.1c-8.2-3.5-16.3-7.7-24.1-12.9c0,0-0.1,0.1-0.1,0.1l-14,18.8   c-1.4,1.8-3.5,2.8-5.6,2.8c-1.5,0-2.9-0.5-4.2-1.4c-3.1-2.3-3.8-6.7-1.4-9.8l14-18.8c0,0,0.1-0.1,0.1-0.1c-2.4-2-4.9-4.1-7.2-6.4   c-1.5-1.4-2.9-3.2-4.2-5.4l-20,15.7c-1.3,1-2.8,1.5-4.3,1.5c-2.1,0-4.1-0.9-5.5-2.7c-2.4-3-1.9-7.4,1.2-9.8l21.1-16.5   c0.6-0.4,1.2-0.8,1.8-1c-2-5.8-3.8-12.3-5.3-19.1l-30.8,7.7c-0.6,0.1-1.1,0.2-1.7,0.2c-3.1,0-6-2.1-6.8-5.3   c-0.9-3.8,1.3-7.5,5.1-8.5l31-7.7c0.1,0,0.2,0,0.3-0.1c-0.9-4.5-1.7-9-2.4-13.3H52V159c0,30-3.4,59.9-10.2,89.1   c-5.4,23.3-11.1,62.1-11.8,123.7c3.3-1.1,6.8-1.6,10.6-1.6H354.6z M106.5,278.8c17.7,0,32,14.3,32,32s-14.3,32-32,32   s-32-14.3-32-32S88.8,278.8,106.5,278.8z"/><path class="st1" d="M369.9,370.2h103.9c4.2,0,7.7,0.6,10.7,1.7c6-25.3,13.5-82.4-34.5-100.7c-16.9-6.5-44.3-8.6-75.9-14   c-3.4,6.7-6.3,13.8-8.7,21.3C355.1,311.3,357.6,344.5,369.9,370.2z"/><rect class="st1" height="56" width="189.8" x="34.3" y="73.8"/></g></svg>