<?xml version="1.0" ?><svg data-name="Layer 1" id="Layer_1" viewBox="0 0 32 32" xmlns="http://www.w3.org/2000/svg"><title/><path d="M23.33,6.67v-2A2.67,2.67,0,0,0,20.67,2h-16A2.68,2.68,0,0,0,2,4.67v16a2.67,2.67,0,0,0,2.67,2.66h2V10.67a4,4,0,0,1,4-4Z"/><path d="M28,8.67H10.67a2,2,0,0,0-2,2V28a2,2,0,0,0,2,2H28a2,2,0,0,0,2-2V10.67A2,2,0,0,0,28,8.67ZM24.67,20.33H20.33v4.34a1,1,0,0,1-2,0V20.33H14a1,1,0,0,1-1-1,1,1,0,0,1,.1-.43l.47-.47a1,1,0,0,1,.43-.1h4.33V14a1,1,0,0,1,.1-.43l.47-.47a1,1,0,0,1,.43-.1,1,1,0,0,1,1,1v4.33h4.34a1,1,0,0,1,0,2Z"/></svg>