<svg xmlns="http://www.w3.org/2000/svg" viewBox="0 0 512 512"><defs/><g fill="none" fill-rule="evenodd"><path fill="#B4814A" d="M486.301 273.46c-29.412 0-53.256-24.015-53.256-53.637 0-9.332 2.37-18.11 6.535-25.749a66.281 66.281 0 01-19.851 3.031c-36.759 0-66.564-30.018-66.564-67.039 0-1.37.123-2.708.205-4.055-7.076 2.577-14.669 4.055-22.622 4.055-36.759 0-66.564-30.018-66.564-67.047 0-7.622 1.336-14.906 3.673-21.719-3.952.86-8.044 1.346-12.258 1.346-21.795 0-40.76-12.238-50.477-30.257C94.962 35.957 12.294 134.468 12.294 252.442c0 135.565 109.12 245.463 243.723 245.463 128.093 0 233.031-99.56 242.887-226.015-4.05.983-8.257 1.57-12.603 1.57"/><path fill="#513A2B" d="M267.867 301.62c0 31.72-25.525 57.427-57.02 57.427-31.494 0-57.02-25.707-57.02-57.426 0-31.72 25.526-57.427 57.02-57.427 31.495 0 57.02 25.708 57.02 57.427"/><path fill="#2E2E30" d="M210.85 256.58c-24.665 0-44.72 20.207-44.72 45.04 0 24.831 20.055 45.039 44.72 45.039 24.664 0 44.72-20.208 44.72-45.04s-20.056-45.04-44.72-45.04m0 114.854c-38.218 0-69.32-31.315-69.32-69.814 0-38.499 31.102-69.813 69.32-69.813 38.218 0 69.319 31.314 69.319 69.813 0 38.5-31.101 69.814-69.32 69.814"/><path fill="#513A2B" d="M12.322 253.453c6.871 5.533 15.465 8.977 24.943 8.977 22.188 0 40.17-18.118 40.17-40.465 0-22.346-17.982-40.456-40.17-40.456a39.756 39.756 0 00-15.472 3.13c-6.142 21.545-9.495 44.271-9.495 67.807 0 .338.024.669.024 1.007M214.71 121.62c0 17.392-13.996 31.489-31.264 31.489s-31.265-14.097-31.265-31.488c0-17.392 13.997-31.488 31.265-31.488s31.265 14.096 31.265 31.488"/><path fill="#2E2E30" d="M183.448 102.52c-10.454 0-18.965 8.572-18.965 19.1 0 10.53 8.511 19.102 18.965 19.102 10.455 0 18.966-8.572 18.966-19.101 0-10.53-8.511-19.101-18.966-19.101m0 62.976c-24.024 0-43.564-19.68-43.564-43.875 0-24.196 19.54-43.875 43.564-43.875 24.025 0 43.556 19.679 43.556 43.875s-19.53 43.875-43.556 43.875"/><path fill="#513A2B" d="M412.086 335.556c0 17.391-13.996 31.488-31.265 31.488-17.268 0-31.264-14.097-31.264-31.488 0-17.392 13.996-31.488 31.264-31.488 17.269 0 31.265 14.096 31.265 31.488"/><path fill="#2E2E30" d="M380.822 316.455c-10.454 0-18.965 8.572-18.965 19.1 0 10.53 8.51 19.102 18.965 19.102s18.966-8.572 18.966-19.101c0-10.53-8.511-19.101-18.966-19.101m0 62.976c-24.024 0-43.564-19.68-43.564-43.875 0-24.196 19.54-43.875 43.564-43.875 24.025 0 43.556 19.679 43.556 43.875s-19.531 43.875-43.556 43.875"/><path fill="#513A2B" d="M256.015 497.903c7.076 0 14.07-.355 21-.95.393-2.477.663-5.004.663-7.597 0-25.964-20.9-47.005-46.68-47.005-25.025 0-45.392 19.852-46.557 44.775 22.631 6.994 46.664 10.777 71.574 10.777"/><path fill="#010202" d="M486.301 273.46c-2.993 0-5.904-.306-8.757-.785-39.809 98.188-135.465 167.424-247.282 167.424-77.666 0-147.575-33.412-196.387-86.71 38.226 85.198 123.28 144.516 222.142 144.516 128.093 0 233.031-99.56 242.887-226.015-4.05.983-8.257 1.57-12.603 1.57" opacity=".2"/><path fill="#2E2E30" d="M289.62 482.989c-3.166-29.762-28.232-53.025-58.62-53.025-26.05 0-48.188 17.003-55.928 40.81C93.454 439.982 33.597 364.04 25.569 273.293c3.821.9 7.708 1.519 11.701 1.519 28.928 0 52.47-23.7 52.47-52.843 0-28.152-21.984-51.159-49.55-52.695C66.78 99.897 125.423 45.171 199.44 26.425c12.399 16.97 31.766 27.532 52.855 28.532a80.4 80.4 0 00-.418 8.06c0 43.8 35.39 79.434 78.871 79.434a76.04 76.04 0 0010.955-.793c5.682 38.912 39.44 68.517 79.855 67.815a65.215 65.215 0 00-.82 10.348c0 35.963 28.707 65.304 64.252 66.015-14.603 101.904-95.443 182.222-195.37 197.153m-33.61 2.527c-4.486 0-8.954-.166-13.407-.422-1.385-.082-2.747-.214-4.124-.313-3.108-.24-6.215-.52-9.307-.884-1.55-.182-3.099-.38-4.632-.595-3.01-.413-5.994-.891-8.979-1.428-1.451-.256-2.902-.496-4.346-.777a233.762 233.762 0 01-10.905-2.452c-.599-.149-1.214-.264-1.82-.421 4.591-13.725 17.44-23.486 32.51-23.486 17.589 0 32.135 13.378 34.136 30.563-3.034.124-6.068.215-9.126.215M37.27 193.89c15.366 0 27.87 12.594 27.87 28.078 0 15.475-12.504 28.069-27.87 28.069-4.969 0-9.142-1.371-12.438-3.097.114-4.682.213-9.373.598-13.997.041-.471.115-.942.156-1.412.5-5.55 1.222-11.05 2.115-16.5.18-1.098.361-2.205.55-3.303 1.041-5.839 2.255-11.62 3.722-17.317a27.59 27.59 0 015.297-.52m473.885 78.963a12.392 12.392 0 00-4.289-10.405 12.285 12.285 0 00-10.872-2.602c-3.305.81-6.568 1.223-9.692 1.223-22.59 0-40.965-18.498-40.965-41.25 0-6.911 1.738-13.75 5.026-19.786 2.411-4.426 1.92-9.893-1.262-13.799a12.25 12.25 0 00-13.177-3.989 53.952 53.952 0 01-16.194 2.478c-29.92 0-54.265-24.527-54.265-54.66 0-.744.058-1.479.107-2.205l.065-1.115a12.402 12.402 0 00-4.911-10.661 12.249 12.249 0 00-11.545-1.726c-6.043 2.205-12.242 3.32-18.433 3.32-29.92 0-54.272-24.519-54.272-54.66 0-5.922 1.008-11.867 3.009-17.673a12.495 12.495 0 00-2.427-12.271 12.262 12.262 0 00-11.824-3.882c-20.113 4.435-39.874-5.243-49.296-22.718-2.599-4.814-8.01-7.34-13.365-6.201C109.443 20.198 36.631 91.086 10.5 179.95c-.172.42-.394.825-.525 1.263-.353 1.239-.59 2.502-.927 3.75-1.098 4.046-2.132 8.125-3.033 12.238-.361 1.651-.656 3.303-.984 4.963a251.839 251.839 0 00-2.067 11.726c-.188 1.264-.41 2.527-.582 3.79A257.143 257.143 0 00.8 232.845c-.1 1.195-.165 2.393-.24 3.591-.336 5.31-.558 10.636-.558 16.004 0 .099.017.884.025 1.065v.033C.512 368.821 76.48 466.49 180.639 498.868c.066.026.123.075.189.1.746.231 1.517.38 2.263.603a247.157 247.157 0 0013.734 3.683c1.452.347 2.903.702 4.354 1.016 5.428 1.197 10.906 2.27 16.448 3.113.525.082 1.042.124 1.567.198 5.091.743 10.24 1.305 15.423 1.743 1.451.115 2.886.23 4.337.33 5.642.371 11.324.636 17.056.636 3.657 0 7.355-.1 11.15-.273 2.789-.124 5.544-.338 8.307-.553.877-.066 1.706-.09 2.6-.173.032 0 .065-.017.098-.025 122.813-10.835 223.208-110.757 232.99-236.412"/></g></svg>