<svg xmlns="http://www.w3.org/2000/svg" xmlns:xlink="http://www.w3.org/1999/xlink" viewBox="0 0 380 586"><defs/><defs><path id="h" d="M86.35 522.15c-2.88-3.36-4.48-5.23-4.8-5.6-46.78-54.52-61.18-98.38-49.98-152.9 1.86-9.19 3.99-20.12 4.79-24.12.8-4 1.74-22.13 2.27-40.13.05-2.19.32-13.17.8-32.92 2.37 2.23 21.36 20.03 23.73 22.26 16.26 15.46 24.61 23.59 25.06 24.39 1.2 2.27 14.53 159.3 14.53 171.56 0 4.53-1.87 9.33-8.13 21.59-.55 1.06-3.31 6.35-8.27 15.87z"/><path id="g" d="M304.31 509.22c-11.6 13.98-10 14.52-20.4-6-5.06-10.27-6.53-14.4-6.53-19.33 0-12.66 13.2-168.37 14.53-170.76 1.07-2 8.13-8.8 42.26-40.65.46-.43 2.77-2.56 6.93-6.4.05 3.37.48 30.35.53 33.72.53 23.2 2.27 41.55 5.2 55.06 4 19.19 4.52 23.46 4.52 42.65-.12 19.06-.39 22.66-3.73 34.66-6.65 24.26-21.72 51.19-43.31 77.05z"/><path id="f" d="M3.44 262.88l8.94-.4 9.06-.4v38.79H2.64l.4-19.06.4-18.93z"/><path id="e" d="M358.69 262.21h8.4c4.67 0 8.93.4 9.33.94.53.4.94 9.19.94 19.32v18.4h-18.67v-38.66z"/><path id="d" d="M3.44 206.89l8.94-.4 9.06-.4v38.79H2.64l.4-19.06.4-18.93z"/><path id="c" d="M358.69 245.02v-38.79h8.67c6 0 8.93.53 9.46 1.73.27.93.4 9.46.27 19.06-.03 1.15-.16 6.88-.4 17.2-.6.03-3.62.16-9.06.4-.6.03-3.58.16-8.94.4z"/><path id="b" d="M208.32 170.64c-4.53 4.26-10.53 6.26-19.19 6.26-7.73 0-12.67-1.73-17.47-6.4-.24-.23-1.44-1.38-3.58-3.46V87.86c2.79-2.48 4.35-3.86 4.66-4.14 2.67-2.26 5.73-4.26 7.07-4.26 8.13-.8 17.59-.53 21.19.4 2.27.53 5.73 2.93 7.6 5.2.23.27 1.38 1.65 3.46 4.13v77.85c-2.33 2.24-3.57 3.44-3.74 3.6z"/><path id="a" d="M341.63 241.68c-11.84 11.2-18.42 17.42-19.73 18.67-38.39 35.85-43.45 41.19-46 46.78-1.86 4-3.06 12.27-4.52 30-12.67 155.16-12.67 155.16-9.2 161.69 1.07 2.13 5.74 11.06 10.27 19.86.55 1.05 3.3 6.29 8.26 15.73-4 3.6-6.23 5.6-6.67 6-9.73 8.8-28.93 22.93-41.99 30.93-15.33 9.33-25.33 12.39-41.32 12.39-15.33 0-23.6-2.4-43.73-13.19-15.06-8-20.26-11.73-37.19-26-.73-.62-4.42-3.73-11.06-9.34 6.4-12.15 9.95-18.9 10.66-20.26 10.13-19.46 10.67-20.79 10.67-29.18 0-4.8-3.07-45.73-6.67-91.05-5.46-66.11-7.2-83.44-9.2-87.71-2.66-6.13-3.73-7.2-39.59-40.39-1.71-1.58-10.29-9.49-25.72-23.73v-39.32c-.14-21.73.53-44.52 1.33-50.65 4.13-34.13 14.26-63.32 29.59-85.98 7.33-10.67 26.26-30.27 36.26-37.33 7.87-5.46 42.92-27.33 43.99-27.33.4 0 .8 45.2.93 100.24.03 6.69.16 40.16.4 100.38.27.58 1.6 3.47 4 8.66 2.4 5.2 3.73 8.09 4 8.66.4 31.2.62 48.52.67 52 .8 58.25.4 56.25 10.79 65.05 12.4 10.66 31.33 9.2 41.86-3.33 7.33-8.53 7.33-9.07 7.33-61.72 0-52.79-.26-50 7.47-67.99.67-1.47 1.46-47.46 1.87-102.38.05-6.64.26-39.83.67-99.57 1.99 1.2 17.87 10.79 19.86 11.99 20.62 13.16 35.41 24.4 44.39 33.73 22.66 23.59 35.99 51.05 43.19 89.31 2.53 12.8 2.93 21.2 3.47 59.72.04 2.99.26 17.87.66 44.66z"/></defs><defs><use id="i" xlink:href="#a"/><use id="j" xlink:href="#a"/><use id="k" xlink:href="#a"/><use id="l" xlink:href="#a"/><use id="m" xlink:href="#a"/><use id="n" xlink:href="#a"/><use id="o" xlink:href="#a"/><use id="p" xlink:href="#b"/><use id="q" xlink:href="#b"/><use id="r" xlink:href="#b"/><use id="s" xlink:href="#b"/><use id="t" xlink:href="#b"/><use id="u" xlink:href="#b"/><use id="v" xlink:href="#b"/><use id="w" xlink:href="#c"/><use id="x" xlink:href="#c"/><use id="y" xlink:href="#c"/><use id="z" xlink:href="#c"/><use id="A" xlink:href="#c"/><use id="B" xlink:href="#c"/><use id="C" xlink:href="#c"/><use id="D" xlink:href="#d"/><use id="E" xlink:href="#d"/><use id="F" xlink:href="#d"/><use id="G" xlink:href="#d"/><use id="H" xlink:href="#d"/><use id="I" xlink:href="#d"/><use id="J" xlink:href="#d"/><use id="K" xlink:href="#e"/><use id="L" xlink:href="#e"/><use id="M" xlink:href="#e"/><use id="N" xlink:href="#e"/><use id="O" xlink:href="#e"/><use id="P" xlink:href="#e"/><use id="Q" xlink:href="#e"/><use id="R" xlink:href="#f"/><use id="S" xlink:href="#f"/><use id="T" xlink:href="#f"/><use id="U" xlink:href="#f"/><use id="V" xlink:href="#f"/><use id="W" xlink:href="#f"/><use id="X" xlink:href="#f"/><use id="Y" xlink:href="#g"/><use id="Z" xlink:href="#g"/><use id="aa" xlink:href="#g"/><use id="ab" xlink:href="#g"/><use id="ac" xlink:href="#g"/><use id="ad" xlink:href="#g"/><use id="ae" xlink:href="#g"/><use id="af" xlink:href="#h"/><use id="ag" xlink:href="#h"/><use id="ah" xlink:href="#h"/><use id="ai" xlink:href="#h"/><use id="aj" xlink:href="#h"/><use id="ak" xlink:href="#h"/><use id="al" xlink:href="#h"/></defs><use xlink:href="#a"/><use fill-opacity="0" stroke="#000" stroke-opacity="0" xlink:href="#a"/><use fill-opacity="0" xlink:href="#i"/><use fill-opacity="0" stroke="#000" stroke-opacity="0" xlink:href="#i"/><use fill-opacity="0" xlink:href="#j"/><use fill-opacity="0" stroke="#000" stroke-opacity="0" xlink:href="#j"/><use fill-opacity="0" xlink:href="#k"/><use fill-opacity="0" stroke="#000" stroke-opacity="0" xlink:href="#k"/><use fill-opacity="0" xlink:href="#l"/><use fill-opacity="0" stroke="#000" stroke-opacity="0" xlink:href="#l"/><use fill-opacity="0" xlink:href="#m"/><use fill-opacity="0" stroke="#000" stroke-opacity="0" xlink:href="#m"/><use fill-opacity="0" xlink:href="#n"/><use fill-opacity="0" stroke="#000" stroke-opacity="0" xlink:href="#n"/><use fill-opacity="0" xlink:href="#o"/><use fill-opacity="0" stroke="#ff9719" stroke-width="3" xlink:href="#o"/><use xlink:href="#b"/><use fill-opacity="0" stroke="#000" stroke-opacity="0" xlink:href="#b"/><use fill-opacity="0" xlink:href="#p"/><use fill-opacity="0" stroke="#000" stroke-opacity="0" xlink:href="#p"/><use fill-opacity="0" xlink:href="#q"/><use fill-opacity="0" stroke="#000" stroke-opacity="0" xlink:href="#q"/><use fill-opacity="0" xlink:href="#r"/><use fill-opacity="0" stroke="#000" stroke-opacity="0" xlink:href="#r"/><use fill-opacity="0" xlink:href="#s"/><use fill-opacity="0" stroke="#000" stroke-opacity="0" xlink:href="#s"/><use fill-opacity="0" xlink:href="#t"/><use fill-opacity="0" stroke="#000" stroke-opacity="0" xlink:href="#t"/><use fill-opacity="0" xlink:href="#u"/><use fill-opacity="0" stroke="#000" stroke-opacity="0" xlink:href="#u"/><use fill-opacity="0" xlink:href="#v"/><use fill-opacity="0" stroke="#ff9719" stroke-width="3" xlink:href="#v"/><use xlink:href="#c"/><use fill-opacity="0" stroke="#000" stroke-opacity="0" xlink:href="#c"/><use fill-opacity="0" xlink:href="#w"/><use fill-opacity="0" stroke="#000" stroke-opacity="0" xlink:href="#w"/><use fill-opacity="0" xlink:href="#x"/><use fill-opacity="0" stroke="#000" stroke-opacity="0" xlink:href="#x"/><use fill-opacity="0" xlink:href="#y"/><use fill-opacity="0" stroke="#000" stroke-opacity="0" xlink:href="#y"/><use fill-opacity="0" xlink:href="#z"/><use fill-opacity="0" stroke="#000" stroke-opacity="0" xlink:href="#z"/><use fill-opacity="0" xlink:href="#A"/><use fill-opacity="0" stroke="#000" stroke-opacity="0" xlink:href="#A"/><use fill-opacity="0" xlink:href="#B"/><use fill-opacity="0" stroke="#000" stroke-opacity="0" xlink:href="#B"/><use fill-opacity="0" xlink:href="#C"/><use fill-opacity="0" stroke="#ff9719" stroke-width="3" xlink:href="#C"/><use xlink:href="#d"/><use fill-opacity="0" stroke="#000" stroke-opacity="0" xlink:href="#d"/><use fill-opacity="0" xlink:href="#D"/><use fill-opacity="0" stroke="#000" stroke-opacity="0" xlink:href="#D"/><use fill-opacity="0" xlink:href="#E"/><use fill-opacity="0" stroke="#000" stroke-opacity="0" xlink:href="#E"/><use fill-opacity="0" xlink:href="#F"/><use fill-opacity="0" stroke="#000" stroke-opacity="0" xlink:href="#F"/><use fill-opacity="0" xlink:href="#G"/><use fill-opacity="0" stroke="#000" stroke-opacity="0" xlink:href="#G"/><use fill-opacity="0" xlink:href="#H"/><use fill-opacity="0" stroke="#000" stroke-opacity="0" xlink:href="#H"/><use fill-opacity="0" xlink:href="#I"/><use fill-opacity="0" stroke="#000" stroke-opacity="0" xlink:href="#I"/><use fill-opacity="0" xlink:href="#J"/><use fill-opacity="0" stroke="#ff9719" stroke-width="3" xlink:href="#J"/><use xlink:href="#e"/><use fill-opacity="0" stroke="#000" stroke-opacity="0" xlink:href="#e"/><g fill-opacity="0"><use xlink:href="#K"/><use stroke="#000" stroke-opacity="0" xlink:href="#K"/></g><g fill-opacity="0"><use xlink:href="#L"/><use stroke="#000" stroke-opacity="0" xlink:href="#L"/></g><g fill-opacity="0"><use xlink:href="#M"/><use stroke="#000" stroke-opacity="0" xlink:href="#M"/></g><g fill-opacity="0"><use xlink:href="#N"/><use stroke="#000" stroke-opacity="0" xlink:href="#N"/></g><g fill-opacity="0"><use xlink:href="#O"/><use stroke="#000" stroke-opacity="0" xlink:href="#O"/></g><g fill-opacity="0"><use xlink:href="#P"/><use stroke="#000" stroke-opacity="0" xlink:href="#P"/></g><g fill-opacity="0"><use xlink:href="#Q"/><use stroke="#ff9719" stroke-width="3" xlink:href="#Q"/></g><use xlink:href="#f"/><use fill-opacity="0" stroke="#000" stroke-opacity="0" xlink:href="#f"/><g fill-opacity="0"><use xlink:href="#R"/><use stroke="#000" stroke-opacity="0" xlink:href="#R"/></g><g fill-opacity="0"><use xlink:href="#S"/><use stroke="#000" stroke-opacity="0" xlink:href="#S"/></g><g fill-opacity="0"><use xlink:href="#T"/><use stroke="#000" stroke-opacity="0" xlink:href="#T"/></g><g fill-opacity="0"><use xlink:href="#U"/><use stroke="#000" stroke-opacity="0" xlink:href="#U"/></g><g fill-opacity="0"><use xlink:href="#V"/><use stroke="#000" stroke-opacity="0" xlink:href="#V"/></g><g fill-opacity="0"><use xlink:href="#W"/><use stroke="#000" stroke-opacity="0" xlink:href="#W"/></g><g fill-opacity="0"><use xlink:href="#X"/><use stroke="#ff9719" stroke-width="3" xlink:href="#X"/></g><use xlink:href="#g"/><use fill-opacity="0" stroke="#000" stroke-opacity="0" xlink:href="#g"/><g fill-opacity="0"><use xlink:href="#Y"/><use stroke="#000" stroke-opacity="0" xlink:href="#Y"/></g><g fill-opacity="0"><use xlink:href="#Z"/><use stroke="#000" stroke-opacity="0" xlink:href="#Z"/></g><g fill-opacity="0"><use xlink:href="#aa"/><use stroke="#000" stroke-opacity="0" xlink:href="#aa"/></g><g fill-opacity="0"><use xlink:href="#ab"/><use stroke="#000" stroke-opacity="0" xlink:href="#ab"/></g><g fill-opacity="0"><use xlink:href="#ac"/><use stroke="#000" stroke-opacity="0" xlink:href="#ac"/></g><g fill-opacity="0"><use xlink:href="#ad"/><use stroke="#000" stroke-opacity="0" xlink:href="#ad"/></g><g fill-opacity="0"><use xlink:href="#ae"/><use stroke="#ff9719" stroke-width="3" xlink:href="#ae"/></g><use xlink:href="#h"/><use fill-opacity="0" stroke="#000" stroke-opacity="0" xlink:href="#h"/><g fill-opacity="0"><use xlink:href="#af"/><use stroke="#000" stroke-opacity="0" xlink:href="#af"/></g><g fill-opacity="0"><use xlink:href="#ag"/><use stroke="#000" stroke-opacity="0" xlink:href="#ag"/></g><g fill-opacity="0"><use xlink:href="#ah"/><use stroke="#000" stroke-opacity="0" xlink:href="#ah"/></g><g fill-opacity="0"><use xlink:href="#ai"/><use stroke="#000" stroke-opacity="0" xlink:href="#ai"/></g><g fill-opacity="0"><use xlink:href="#aj"/><use stroke="#000" stroke-opacity="0" xlink:href="#aj"/></g><g fill-opacity="0"><use xlink:href="#ak"/><use stroke="#000" stroke-opacity="0" xlink:href="#ak"/></g><g fill-opacity="0"><use xlink:href="#al"/><use stroke="#ff9719" stroke-width="3" xlink:href="#al"/></g></svg>