<?xml version="1.0" encoding="UTF-8" standalone="no"?>
<!DOCTYPE svg PUBLIC "-//W3C//DTD SVG 1.1//EN" "http://www.w3.org/Graphics/SVG/1.1/DTD/svg11.dtd">
<svg version="1.1" xmlns="http://www.w3.org/2000/svg" xmlns:xlink="http://www.w3.org/1999/xlink" preserveAspectRatio="xMidYMid meet" viewBox="0 0 48 48" width="48" height="48"><defs><path d="M23.26 46.22C12.2 46.22 3.23 44.42 3.23 42.21C3.23 40 12.2 38.21 23.26 38.21C34.32 38.21 43.28 40 43.28 42.21C43.28 44.42 34.32 46.22 23.26 46.22Z" id="c22uNixijO"></path><radialGradient id="gradientc2ypDijnw" gradientUnits="userSpaceOnUse" cx="23.26" cy="42.21" dx="22.97" dy="38.57" r="3.66"><stop style="stop-color: #000000;stop-opacity: 1" offset="0%"></stop><stop style="stop-color: #000000;stop-opacity: 0" offset="100%"></stop></radialGradient><path d="M40.58 1.97C44.17 1.97 45.96 3.77 45.96 7.38C45.96 27.37 45.96 38.48 45.96 40.7C45.96 44.31 44.17 46.11 40.58 46.11C20.67 46.11 9.6 46.11 7.39 46.11C3.8 46.11 2 44.31 2 40.7C2 20.71 2 9.6 2 7.38C2 3.77 3.8 1.97 7.39 1.97C27.3 1.97 38.36 1.97 40.58 1.97Z" id="p8HEhe1i02"></path><path d="M12.32 7.72C9.8 7.72 8.53 8.87 8.53 11.16C8.53 23.89 8.53 30.95 8.53 32.37C8.53 34.66 9.8 35.81 12.32 35.81C26.34 35.81 34.13 35.81 35.69 35.81C38.22 35.81 39.48 34.66 39.48 32.37C39.48 19.65 39.48 12.58 39.48 11.16C39.48 8.87 38.22 7.72 35.69 7.72C21.67 7.72 13.88 7.72 12.32 7.72Z" id="akjSYLhIO"></path><radialGradient id="gradienta2GkSPveqn" gradientUnits="userSpaceOnUse" cx="24.01" cy="29.46" dx="25.16" dy="17.99" r="11.53"><stop style="stop-color: #f2f4f1;stop-opacity: 1" offset="0%"></stop><stop style="stop-color: #d3d7cf;stop-opacity: 1" offset="100%"></stop></radialGradient><path d="M40.4 4.07C42.68 4.07 43.82 5.16 43.82 7.35C43.82 27.43 43.82 38.59 43.82 40.82C43.82 43.01 42.68 44.1 40.4 44.1C20.73 44.1 9.8 44.1 7.62 44.1C5.33 44.1 4.19 43.01 4.19 40.82C4.19 20.74 4.19 9.58 4.19 7.35C4.19 5.16 5.33 4.07 7.62 4.07C27.28 4.07 38.21 4.07 40.4 4.07Z" id="f4dMyGsejZ"></path><path d="M8.36 43.1C8.49 42.66 9.13 40.43 10.3 36.42L8.87 35.62L5.26 40.47C5.98 42.32 7.01 43.2 8.36 43.1Z" id="cLk0jcOEf"></path><path d="M39.02 43.15C38.9 42.71 38.3 40.55 37.23 36.65L38.7 35.8L42.8 40.93C41.5 42.41 40.24 43.15 39.02 43.15Z" id="bjwe4OlBC"></path><path d="M40.51 5.11C40.39 5.27 39.76 6.07 38.62 7.52L39.94 8.86L42.74 7.39C42.19 5.94 41.44 5.18 40.51 5.11Z" id="c2AsEUkZIy"></path><linearGradient id="gradientd4ppcmwCxs" gradientUnits="userSpaceOnUse" x1="39.34" y1="6.8" x2="40.66" y2="8.39"><stop style="stop-color: #ffffff;stop-opacity: 0" offset="0%"></stop><stop style="stop-color: #ffffff;stop-opacity: 1" offset="50%"></stop><stop style="stop-color: #ffffff;stop-opacity: 0" offset="100%"></stop></linearGradient><path d="M7.55 5.12C7.66 5.29 8.22 6.12 9.23 7.62L8 8.96L5.1 7.19C5.9 5.86 6.72 5.16 7.55 5.12Z" id="ai0BcQyUJ"></path><linearGradient id="gradientc1cfVEzsQW" gradientUnits="userSpaceOnUse" x1="7.04" y1="8.09" x2="8.13" y2="6.82"><stop style="stop-color: #ffffff;stop-opacity: 0" offset="0%"></stop><stop style="stop-color: #ffffff;stop-opacity: 1" offset="50%"></stop><stop style="stop-color: #ffffff;stop-opacity: 0" offset="100%"></stop></linearGradient><path d="M40.97 1.05C44.96 1.05 46.96 2.96 46.96 6.79C46.96 27.44 46.96 38.92 46.96 41.21C46.96 45.04 44.96 46.95 40.97 46.95C20.61 46.95 9.3 46.95 7.03 46.95C3.04 46.95 1.04 45.04 1.04 41.21C1.04 20.56 1.04 9.08 1.04 6.79C1.04 2.96 3.04 1.05 7.03 1.05C27.39 1.05 38.7 1.05 40.97 1.05Z" id="duSi3FP3q"></path></defs><g><g><g><use xlink:href="#c22uNixijO" opacity="1" fill="url(#gradientc2ypDijnw)"></use><g><use xlink:href="#c22uNixijO" opacity="1" fill-opacity="0" stroke="#000000" stroke-width="1" stroke-opacity="0"></use></g></g><g><use xlink:href="#p8HEhe1i02" opacity="1" fill="#babdb6" fill-opacity="1"></use><g><use xlink:href="#p8HEhe1i02" opacity="1" fill-opacity="0" stroke="#888a85" stroke-width="1" stroke-opacity="1"></use></g></g><g><use xlink:href="#akjSYLhIO" opacity="1" fill="url(#gradienta2GkSPveqn)"></use><g><use xlink:href="#akjSYLhIO" opacity="1" fill-opacity="0" stroke="#000000" stroke-width="1" stroke-opacity="1"></use></g></g><g><use xlink:href="#f4dMyGsejZ" opacity="1" fill="#000000" fill-opacity="0"></use><g><use xlink:href="#f4dMyGsejZ" opacity="1" fill-opacity="0" stroke="#ffffff" stroke-width="1" stroke-opacity="1"></use></g></g><g><use xlink:href="#cLk0jcOEf" opacity="1" fill="#ffffff" fill-opacity="1"></use><g><use xlink:href="#cLk0jcOEf" opacity="1" fill-opacity="0" stroke="#000000" stroke-width="1" stroke-opacity="0"></use></g></g><g><use xlink:href="#bjwe4OlBC" opacity="1" fill="#ffffff" fill-opacity="1"></use><g><use xlink:href="#bjwe4OlBC" opacity="1" fill-opacity="0" stroke="#000000" stroke-width="1" stroke-opacity="0"></use></g></g><g><use xlink:href="#c2AsEUkZIy" opacity="1" fill="url(#gradientd4ppcmwCxs)"></use><g><use xlink:href="#c2AsEUkZIy" opacity="1" fill-opacity="0" stroke="#000000" stroke-width="1" stroke-opacity="0"></use></g></g><g><use xlink:href="#ai0BcQyUJ" opacity="1" fill="url(#gradientc1cfVEzsQW)"></use><g><use xlink:href="#ai0BcQyUJ" opacity="1" fill-opacity="0" stroke="#000000" stroke-width="1" stroke-opacity="0"></use></g></g><g><use xlink:href="#duSi3FP3q" opacity="1" fill="#000000" fill-opacity="0"></use><g><use xlink:href="#duSi3FP3q" opacity="1" fill-opacity="0" stroke="#ff9719" stroke-width="2" stroke-opacity="1"></use></g></g></g></g></svg>