<svg xmlns="http://www.w3.org/2000/svg" viewBox="0 0 60 42"><defs/><rect width="100%" height="100%" fill="none"/><g class="currentLayer"><path fill="#3B97D3" d="M34 9H5c-2.2 0-4 1.8-4 4v18c0 2.2 1.8 4 4 4h4v6l8-6h13.3c2.2 0 4.5-2.3 4.5-4.5"/><path fill="#FFD766" d="M24 23V5c0-2.2 1.8-4 4-4h27c2.2 0 4 1.8 4 4v18c0 2.2-1.8 4-4 4h-5v6l-8.7-6H28c-2.2 0-4-1.8-4-4z"/><path fill="none" stroke="#2C3E50" stroke-linecap="round" stroke-linejoin="round" stroke-miterlimit="10" stroke-width="2" d="M24 23V5c0-2.2 1.8-4 4-4h27c2.2 0 4 1.8 4 4v18c0 2.2-1.8 4-4 4h-5v6l-8.7-6H28c-2.2 0-4-1.8-4-4z"/><path fill="none" stroke="#2C3E50" stroke-linecap="round" stroke-linejoin="round" stroke-miterlimit="10" stroke-width="2" d="M20 9H5c-2.2 0-4 1.8-4 4v18c0 2.2 1.8 4 4 4h4v6l8-6h13.3c2.2 0 4.5-2.3 4.5-4.5M32 10h8.1s-2.5 6.5-7.8 8m3.7 4v-5.8l3.5 1M36 10V7m7 3h8v6h-8zm0 3h8m-7 7h6M42.6 7l2.1 3"/><path fill="none" stroke="#2C3E50" stroke-linecap="round" stroke-linejoin="round" stroke-miterlimit="10" stroke-width="2" d="M46 7l1 3v12m4-15l-1.7 3M7.9 26.1l2.4-8.1 2.4 8.1m-4.1-2.4h3.3M16 26v-8h2c.6 0 1.9.1 1.9 1.3s-.8 1.7-1.8 1.7H16h2.4s2.4-.1 2.4 2.7c0 2.1-1 2.3-2.4 2.3H16z"/></g></svg>