<svg xmlns="http://www.w3.org/2000/svg" xmlns:xlink="http://www.w3.org/1999/xlink" enable-background="new 0 0 64 64" version="1.1" xml:space="preserve" width="60" height="42" style=""><rect id="backgroundrect" width="100%" height="100%" x="0" y="0" fill="none" stroke="none" data-darkreader-inline-fill="" data-darkreader-inline-stroke="" style="--darkreader-inline-fill:none; --darkreader-inline-stroke:none;"/><g class="currentLayer" style=""><title>Layer 1</title><path d="M34,9 H5 c-2.2,0 -4,1.8 -4,4 v18 c0,2.2 1.8,4 4,4 h4 v6 l8,-6 h13.3 c2.2,0 4.5,-2.3 4.5,-4.5 " fill="#3B97D3" id="svg_1" data-darkreader-inline-fill="" style="--darkreader-inline-fill:#246f9f;" class=""/><path d="M24,23 V5 c0,-2.2 1.8,-4 4,-4 h27 c2.2,0 4,1.8 4,4 v18 c0,2.2 -1.8,4 -4,4 h-5 v6 l-8.7,-6 H28 C25.8,27 24,25.200000000000003 24,23 z" fill="#FFD766" id="svg_2" data-darkreader-inline-fill="" style="--darkreader-inline-fill:#8f6900;" class=""/><path d="M24,23 V5 c0,-2.2 1.8,-4 4,-4 h27 c2.2,0 4,1.8 4,4 v18 c0,2.2 -1.8,4 -4,4 h-5 v6 l-8.7,-6 H28 C25.8,27 24,25.200000000000003 24,23 z" fill="none" stroke="#2C3E50" stroke-linecap="round" stroke-linejoin="round" stroke-miterlimit="10" stroke-width="2" id="svg_3" data-darkreader-inline-fill="" data-darkreader-inline-stroke="" style="--darkreader-inline-fill:none; --darkreader-inline-stroke:#aec2d3;" class=""/><path d="M20,9 H5 c-2.2,0 -4,1.8 -4,4 v18 c0,2.2 1.8,4 4,4 h4 v6 l8,-6 h13.3 c2.2,0 4.5,-2.3 4.5,-4.5 " fill="none" stroke="#2C3E50" stroke-linecap="round" stroke-linejoin="round" stroke-miterlimit="10" stroke-width="2" id="svg_4" data-darkreader-inline-fill="" data-darkreader-inline-stroke="" style="--darkreader-inline-fill:none; --darkreader-inline-stroke:#aec2d3;" class=""/><path d="M32,10 h8.1 c0,0 -2.5,6.5 -7.8,8 " fill="none" stroke="#2C3E50" stroke-linecap="round" stroke-linejoin="round" stroke-miterlimit="10" stroke-width="2" id="svg_5" data-darkreader-inline-fill="" data-darkreader-inline-stroke="" style="--darkreader-inline-fill:none; --darkreader-inline-stroke:#aec2d3;" class=""/><polyline fill="none" points="36,22 36,16.200000762939453 39.5,17.200000762939453 " stroke="#2C3E50" stroke-linecap="round" stroke-linejoin="round" stroke-miterlimit="10" stroke-width="2" id="svg_6" data-darkreader-inline-fill="" data-darkreader-inline-stroke="" style="--darkreader-inline-fill:none; --darkreader-inline-stroke:#aec2d3;" class=""/><line fill="none" stroke="#2C3E50" stroke-linecap="round" stroke-linejoin="round" stroke-miterlimit="10" stroke-width="2" x1="36" x2="36" y1="10" y2="7" id="svg_7" data-darkreader-inline-fill="" data-darkreader-inline-stroke="" style="--darkreader-inline-fill:none; --darkreader-inline-stroke:#4d6d8d;" class=""/><rect fill="none" height="6" stroke="#2C3E50" stroke-linecap="round" stroke-linejoin="round" stroke-miterlimit="10" stroke-width="2" width="8" x="43" y="10" id="svg_8" data-darkreader-inline-fill="" data-darkreader-inline-stroke="" style="--darkreader-inline-fill:none; --darkreader-inline-stroke:#aec2d3;" class=""/><line fill="none" stroke="#2C3E50" stroke-linecap="round" stroke-linejoin="round" stroke-miterlimit="10" stroke-width="2" x1="43" x2="51" y1="13" y2="13" id="svg_9" data-darkreader-inline-fill="" data-darkreader-inline-stroke="" style="--darkreader-inline-fill:none; --darkreader-inline-stroke:#4d6d8d;" class=""/><line fill="none" stroke="#2C3E50" stroke-linecap="round" stroke-linejoin="round" stroke-miterlimit="10" stroke-width="2" x1="44" x2="50" y1="20" y2="20" id="svg_10" data-darkreader-inline-fill="" data-darkreader-inline-stroke="" style="--darkreader-inline-fill:none; --darkreader-inline-stroke:#4d6d8d;" class=""/><line fill="none" stroke="#2C3E50" stroke-linecap="round" stroke-linejoin="round" stroke-miterlimit="10" stroke-width="2" x1="42.599998474121094" x2="44.70000076293945" y1="7" y2="10" id="svg_11" data-darkreader-inline-fill="" data-darkreader-inline-stroke="" style="--darkreader-inline-fill:none; --darkreader-inline-stroke:#4d6d8d;" class=""/><polyline fill="none" points="46,7 47,10 47,22 " stroke="#2C3E50" stroke-linecap="round" stroke-linejoin="round" stroke-miterlimit="10" stroke-width="2" id="svg_12" data-darkreader-inline-fill="" data-darkreader-inline-stroke="" style="--darkreader-inline-fill:none; --darkreader-inline-stroke:#aec2d3;" class=""/><line fill="none" stroke="#2C3E50" stroke-linecap="round" stroke-linejoin="round" stroke-miterlimit="10" stroke-width="2" x1="51" x2="49.29999923706055" y1="7" y2="10" id="svg_13" data-darkreader-inline-fill="" data-darkreader-inline-stroke="" style="--darkreader-inline-fill:none; --darkreader-inline-stroke:#4d6d8d;" class=""/><polyline fill="none" points="7.899999618530273,26.099998474121094 10.300000190734863,18 12.699999809265137,26.099998474121094 " stroke="#2C3E50" stroke-linecap="round" stroke-linejoin="round" stroke-miterlimit="10" stroke-width="2" id="svg_14" data-darkreader-inline-fill="" data-darkreader-inline-stroke="" style="--darkreader-inline-fill:none; --darkreader-inline-stroke:#aec2d3;" class=""/><line fill="none" stroke="#2C3E50" stroke-linecap="round" stroke-linejoin="round" stroke-miterlimit="10" stroke-width="2" x1="8.600000381469727" x2="11.899999618530273" y1="23.700000762939453" y2="23.700000762939453" id="svg_15" data-darkreader-inline-fill="" data-darkreader-inline-stroke="" style="--darkreader-inline-fill:none; --darkreader-inline-stroke:#4d6d8d;" class=""/><path d="M16,26 v-8 c0,0 1.4,0 2,0 s1.9,0.1 1.9,1.3 S19.1,21 18.1,21 c-1,0 -2.1,0 -2.1,0 h2.4 c0,0 2.4,-0.1 2.4,2.7 c0,2.1 -1,2.3 -2.4,2.3 C17,26 16,26 16,26 z" fill="none" stroke="#2C3E50" stroke-linecap="round" stroke-linejoin="round" stroke-miterlimit="10" stroke-width="2" id="svg_16" data-darkreader-inline-fill="" data-darkreader-inline-stroke="" style="--darkreader-inline-fill:none; --darkreader-inline-stroke:#aec2d3;" class=""/></g></svg>