<svg xmlns="http://www.w3.org/2000/svg" width="60" height="42"><defs/><rect width="100%" height="100%" fill="none" style="--darkreader-inline-fill:none;--darkreader-inline-stroke:none"/><g class="currentLayer"><path fill="#3B97D3" d="M34 9H5c-2.2 0-4 1.8-4 4v18c0 2.2 1.8 4 4 4h4v6l8-6h13.3c2.2 0 4.5-2.3 4.5-4.5" style="--darkreader-inline-fill:#246f9f"/><path fill="#FFD766" d="M24 23V5c0-2.2 1.8-4 4-4h27c2.2 0 4 1.8 4 4v18c0 2.2-1.8 4-4 4h-5v6l-8.7-6H28c-2.2 0-4-1.8-4-4z" style="--darkreader-inline-fill:#8f6900"/><path fill="none" stroke="#2C3E50" stroke-linecap="round" stroke-linejoin="round" stroke-miterlimit="10" stroke-width="2" d="M24 23V5c0-2.2 1.8-4 4-4h27c2.2 0 4 1.8 4 4v18c0 2.2-1.8 4-4 4h-5v6l-8.7-6H28c-2.2 0-4-1.8-4-4z" style="--darkreader-inline-fill:none;--darkreader-inline-stroke:#aec2d3"/><path fill="none" stroke="#2C3E50" stroke-linecap="round" stroke-linejoin="round" stroke-miterlimit="10" stroke-width="2" d="M20 9H5c-2.2 0-4 1.8-4 4v18c0 2.2 1.8 4 4 4h4v6l8-6h13.3c2.2 0 4.5-2.3 4.5-4.5M32 10h8.1s-2.5 6.5-7.8 8M36 22v-5.8l3.5 1" style="--darkreader-inline-fill:none;--darkreader-inline-stroke:#aec2d3"/><path fill="none" stroke="#2C3E50" stroke-linecap="round" stroke-linejoin="round" stroke-miterlimit="10" stroke-width="2" d="M36 10V7" style="--darkreader-inline-fill:none;--darkreader-inline-stroke:#4d6d8d"/><path fill="none" stroke="#2C3E50" stroke-linecap="round" stroke-linejoin="round" stroke-miterlimit="10" stroke-width="2" d="M43 10h8v6h-8z" style="--darkreader-inline-fill:none;--darkreader-inline-stroke:#aec2d3"/><path fill="none" stroke="#2C3E50" stroke-linecap="round" stroke-linejoin="round" stroke-miterlimit="10" stroke-width="2" d="M43 13h8M44 20h6M42.6 7l2.1 3" style="--darkreader-inline-fill:none;--darkreader-inline-stroke:#4d6d8d"/><path fill="none" stroke="#2C3E50" stroke-linecap="round" stroke-linejoin="round" stroke-miterlimit="10" stroke-width="2" d="M46 7l1 3v12" style="--darkreader-inline-fill:none;--darkreader-inline-stroke:#aec2d3"/><path fill="none" stroke="#2C3E50" stroke-linecap="round" stroke-linejoin="round" stroke-miterlimit="10" stroke-width="2" d="M51 7l-1.7 3" style="--darkreader-inline-fill:none;--darkreader-inline-stroke:#4d6d8d"/><path fill="none" stroke="#2C3E50" stroke-linecap="round" stroke-linejoin="round" stroke-miterlimit="10" stroke-width="2" d="M7.9 26.1l2.4-8.1 2.4 8.1" style="--darkreader-inline-fill:none;--darkreader-inline-stroke:#aec2d3"/><path fill="none" stroke="#2C3E50" stroke-linecap="round" stroke-linejoin="round" stroke-miterlimit="10" stroke-width="2" d="M8.6 23.7h3.3" style="--darkreader-inline-fill:none;--darkreader-inline-stroke:#4d6d8d"/><path fill="none" stroke="#2C3E50" stroke-linecap="round" stroke-linejoin="round" stroke-miterlimit="10" stroke-width="2" d="M16 26v-8h2c.6 0 1.9.1 1.9 1.3s-.8 1.7-1.8 1.7H16h2.4s2.4-.1 2.4 2.7c0 2.1-1 2.3-2.4 2.3H16z" style="--darkreader-inline-fill:none;--darkreader-inline-stroke:#aec2d3"/></g></svg>