<svg xmlns="http://www.w3.org/2000/svg" width="91" height="91"><defs/><path fill="#FDE497" d="M76.89 45.018c0-1.587-.151-3.138-.383-4.66l11.227-6.48-11.639-20.136-11.616 6.47C62.058 18.281 59 16.706 56 15.548V4H34v11.548c-4 1.112-5.649 2.617-8.005 4.448l-11.251-6.604L2.83 33.398l11.12 6.604c-.262 1.643-.45 3.308-.45 5.016 0 1.587.153 3.136.376 4.658L2.648 56.16l11.634 20.135 11.424-6.472C28.137 71.756 30 73.329 34 74.488V87h22V74.488c3-1.115 5.839-2.618 8.19-4.449l11.348 6.604 11.96-20.006-11.095-6.603c.258-1.64.487-3.304.487-5.016zM45.186 59.155c-7.799 0-14.138-6.332-14.138-14.138 0-7.808 6.339-14.136 14.138-14.136 7.81 0 14.14 6.328 14.14 14.136-.001 7.806-6.331 14.138-14.14 14.138z"/><path fill="#454B53" d="M56.5 89h-22a2.5 2.5 0 01-2.5-2.5V76.301c-2.612-.955-4.464-2.126-6.274-3.49l-10.229 5.671a2.501 2.501 0 01-3.377-.936L.487 57.411a2.5 2.5 0 01.915-3.416l9.794-5.654a32.043 32.043 0 01-.181-3.323c0-1.317.112-2.592.254-3.721l-9.656-5.75A2.506 2.506 0 01.468 34.01a2.494 2.494 0 01.279-1.896l11.977-20.006a2.5 2.5 0 013.399-.878l9.927 5.762c1.618-1.213 3.362-2.346 5.949-3.273V3.5A2.501 2.501 0 0134.5 1h22A2.5 2.5 0 0159 3.5v10.377a33.645 33.645 0 015.919 3.35l9.939-5.657a2.501 2.501 0 013.4.922l11.639 20.135a2.497 2.497 0 01-.914 3.416l-9.781 5.646c.126 1.165.188 2.266.188 3.329 0 1.327-.108 2.597-.246 3.717l9.692 5.752a2.503 2.503 0 01.873 3.429L77.812 77.921a2.5 2.5 0 01-3.416.876l-9.798-5.765A31.713 31.713 0 0159 76.176V86.5a2.5 2.5 0 01-2.5 2.5zM37 84h17v-9.512a2.5 2.5 0 011.629-2.344c2.624-.975 5.004-2.309 7.275-4.078a2.502 2.502 0 012.804-.182l9.078 5.341 9.347-15.716-8.974-5.325a2.498 2.498 0 01-1.194-2.538c.198-1.259.425-2.923.425-4.629 0-1.314-.116-2.716-.354-4.284a2.5 2.5 0 011.222-2.541l9.061-5.23-9.145-15.818-9.208 5.241a2.499 2.499 0 01-2.795-.219c-2.199-1.754-4.747-3.196-7.57-4.286a2.5 2.5 0 01-1.6-2.332V6H37v9.548a2.499 2.499 0 01-1.83 2.408c-3.47.965-5.073 2.212-7.293 3.938l-.098.076a2.5 2.5 0 01-2.789.188l-9.243-5.365-9.423 15.739 8.937 5.321a2.5 2.5 0 011.189 2.542c-.202 1.27-.435 2.943-.435 4.622 0 1.318.112 2.724.342 4.297a2.499 2.499 0 01-1.224 2.526l-9.065 5.234 9.151 15.842 9.525-5.28a2.5 2.5 0 012.768.229c2.384 1.896 4.207 3.214 7.684 4.221A2.501 2.501 0 0137 74.488V84zm8.186-22.345c-9.174 0-16.638-7.464-16.638-16.638 0-9.173 7.464-16.636 16.638-16.636 9.175 0 16.64 7.463 16.64 16.636-.001 9.174-7.466 16.638-16.64 16.638zm0-28.273c-6.417 0-11.638 5.22-11.638 11.636 0 6.417 5.221 11.638 11.638 11.638 6.418 0 11.64-5.221 11.64-11.638-.001-6.416-5.222-11.636-11.64-11.636z"/></svg>