<svg xmlns="http://www.w3.org/2000/svg" xmlns:xlink="http://www.w3.org/1999/xlink" viewBox="0 0 640 360"><defs/><defs><path id="S" d="M117.97 180.36c.97-.94 8.73-8.51 9.7-9.46l-9.7 9.46z"/><path id="R" d="M117.99 192.03c-1-.98-8.98-8.76-9.98-9.73l9.98 9.73z"/><path id="Q" d="M219.16 209.48c-2.65 6.18-9.11 10.21-16.3 10.21h17.54v-5.39c-.29-2.21-.7-3.82-1.24-4.82z"/><path id="P" d="M120.26 62.49c-6.28 11.71-16.55 21.18-29.23 26.97.88.83 3.09 2.87 6.62 6.13 5.84-5.4 26.3-24.29 29.23-26.99-3.98-3.67-6.19-5.7-6.62-6.11z"/><path id="O" d="M197.02 181.93h23.38v-21.59c-6.98 14.39-14.77 21.59-23.38 21.59z"/><path id="N" d="M284.7 165.73c0 20.87-18.31 37.78-40.91 37.78h17.53c12.91 0 23.38-9.67 23.38-21.58v-16.2z"/><path id="M" d="M15.82 230.5V360h11.69V230.5h303.95V360h11.69V230.5h11.69v-10.81H4.13v10.81h11.69z"/><path id="L" d="M278.85 300.64h-11.68v10.79c3.49-7.19 7.38-10.79 11.68-10.79z"/><path id="K" d="M313.93 279.05v-59.36c-.01 40.99-33.19 75.51-77.26 80.38 1.36.37 2.77.57 4.19.57h49.69c15.59-6.44 23.38-13.64 23.38-21.59z"/><path id="J" d="M284.7 230.5c0 23.83-20.94 43.16-46.76 43.16H273c6.47 0 11.7-4.83 11.7-10.79V230.5z"/><path id="I" d="M243.79 79.4H273c.02-4.74-1.33-9.39-3.92-13.49-5.21 8.35-14.85 13.49-25.29 13.49z"/><path id="H" d="M255.47 133.36H273v-16.19c-5.23 10.79-11.07 16.19-17.53 16.19z"/><path id="G" d="M243.79 219.69h40.91v-37.76c-12.21 25.17-25.84 37.76-40.91 37.76z"/><path id="F" d="M97.65 219.69h80.66c-5.15-23.82-8.03-37.06-8.59-39.71-14.28 24.47-41.96 39.72-72.07 39.71z"/><path id="E" d="M144.42 327.62h29.22v-26.98c-8.73 17.99-18.47 26.98-29.22 26.98z"/><path id="D" d="M173.64 327.62h29.22v-26.98c-8.72 17.99-18.46 26.98-29.22 26.98z"/><path id="C" d="M115.19 192.72c6.45 0 11.69-4.84 11.69-10.79 0-5.96-5.24-10.8-11.69-10.8-6.46 0-11.7 4.84-11.7 10.8 0 5.95 5.24 10.79 11.7 10.79z"/><path id="B" d="M273 100.98c6.47 0 11.7-4.83 11.7-10.79 0-5.96-5.23-10.79-11.7-10.79h-11.68v21.58H273z"/><path id="A" d="M71 144.15c-6.46 0-11.69 4.83-11.69 10.79 0 .71.07 1.43.23 2.12.97 4.54 5.88 27.21 14.73 68.03h105.21c-8.34-38.53-13.57-62.63-15.65-72.26-1.09-5.04-5.89-8.68-11.47-8.68H71z"/><path id="z" d="M273 79.4c0-14.9-13.08-26.99-29.21-26.99h-29.23V79.4H273z"/><path id="y" d="M243.79 181.93h-35.08c-6.45 0-11.69 4.83-11.69 10.79 0 5.96 5.24 10.79 11.69 10.79h52.61c12.91 0 23.38-9.67 23.38-21.58v-16.2h-29.23v5.4c-3.49 7.2-7.38 10.8-11.68 10.8z"/><path id="x" d="M121.04 122.56h-11.7v-16.18h11.7v16.18z"/><path id="w" d="M156.1 90.19h-17.53V79.4h17.53v10.79z"/><path id="v" d="M142.7 102.56c-4.96 4.58-7.71 7.12-8.27 7.63-7-6.48-10.91-10.07-11.68-10.79 4.96-4.58 7.71-7.12 8.26-7.63 7.02 6.48 10.92 10.07 11.69 10.79z"/><path id="u" d="M95.94 59.4c-4.96 4.58-7.71 7.11-8.27 7.62-14.02-12.95-21.82-20.14-23.38-21.58 4.96-4.58 7.71-7.12 8.27-7.63C86.59 50.76 94.38 57.96 95.94 59.4z"/><path id="t" d="M116.19 58.73c.71.67 4.27 3.95 10.69 9.87-2.93 2.7-26.31 24.29-29.23 26.99-6.4-5.92-9.98-9.21-10.68-9.87-4.39-4.05-6.86-9.54-6.86-15.27V52.41h19.55c8.1 1.52 13.61 3.63 16.53 6.32z"/><path id="s" d="M27.51 230.5H15.82V73.99h11.69V230.5z"/><path id="r" d="M101.79 40.05C45.67 91.84 14.5 120.62 8.26 126.38 3.3 121.8.54 119.25 0 118.75c56.1-51.8 87.29-80.59 93.52-86.34 4.96 4.58 7.71 7.13 8.27 7.64z"/><path id="q" d="M227.25 148.62c-4.39 4.05-6.85 9.54-6.85 15.26v61.21h64.3v-62.5c0-5.03-1.27-9.98-3.7-14.48-.54-.99-3.2-5.91-8-14.75h-29.21c-10.29 9.49-15.81 14.58-16.54 15.26z"/><path id="p" d="M236.44 119.86c-.72-.27-6.47-2.4-7.19-2.66-8.87-3.28-14.69-11.22-14.69-20.04V79.4H273v53.96h-29.21v-3.48c-1.95-5.59-4.4-8.93-7.35-10.02z"/><path id="o" d="M273 273.66h-32.14c-8.07 0-14.62 6.03-14.62 13.49 0 7.45 6.55 13.49 14.62 13.49h49.69c12.9 0 23.38-9.66 23.38-21.59V163.04c0-7.46-6.54-13.49-14.61-13.49h-.54c-7.92.27-14.08 6.49-14.08 13.81v99.51c-3.49 7.19-7.39 10.79-11.7 10.79z"/><path id="n" d="M232.09 181.93v-21.59h-70.14c-6.45 0-11.69 4.84-11.69 10.79 0 5.96 5.24 10.8 11.69 10.8h70.14z"/><path id="m" d="M220.4 225.09V214.3c0-5.96-5.24-10.79-11.69-10.79H167.8v21.58h52.6z"/><path id="l" d="M267.17 295.25v43.17h-11.7c-9.68.01-17.52 7.25-17.53 16.18v5.4h11.68v-5.4c.02-2.97 2.63-5.39 5.85-5.39h11.7V360h11.68v-10.79h11.7c3.23 0 5.83 2.42 5.83 5.39v5.4h11.7v-5.4c-.01-8.93-7.85-16.17-17.53-16.18h-11.7v-43.17h-11.68z"/><path id="k" d="M179.48 327.62c0 14.9-13.08 26.98-29.22 26.98h14.61c8.07 0 14.61-6.03 14.61-13.49v-13.49z"/><path id="j" d="M150.26 354.6h29.22v-26.98c-8.72 17.99-18.46 26.98-29.22 26.98z"/><path id="i" d="M202.86 327.62c0 14.9-13.08 26.98-29.22 26.98h14.61c8.07 0 14.61-6.03 14.61-13.49v-13.49z"/><path id="h" d="M164.87 354.6h23.38c8.07 0 14.61-6.03 14.61-13.49v-13.49h-37.99c-8.07 0-14.61 6.05-14.61 13.49 0 7.46 6.54 13.49 14.61 13.49z"/><path id="g" d="M164.87 354.6h-35.06c-8.08 0-14.62-6.03-14.62-13.49 0-7.44 6.54-13.49 14.62-13.49h49.67v13.49c-4.36 8.99-9.23 13.49-14.61 13.49z"/><path id="f" d="M173.64 327.62h-29.22v-43.16h29.22v43.16z"/><path id="e" d="M202.86 327.62h-29.22v-43.16h29.22v43.16z"/><path id="d" d="M197.02 246.68h11.69c6.45 0 11.69-4.84 11.69-10.79v-10.8h64.3v37.78c0 5.96-5.23 10.79-11.7 10.79h-58.44c-6.46 0-11.7 4.84-11.7 10.8v43.16h-29.22v-59.36c6.98-14.39 14.77-21.58 23.38-21.58z"/><path id="c" d="M144.42 268.26v59.36h29.22v-53.96h23.38v-26.98H167.8c-15.59 6.45-23.38 13.64-23.38 21.58z"/><path id="b" d="M385.35 301.46c-4.16-7.52-5.46-15.46-6.23-23.55-1.65-16.72-1.75-33.42-.87-50.09.43-8.86.77-17.81 3.28-26.51.97-3.39 2.37-6.72 4.25-9.87 4.45-7.4 12.18-11.09 21.5-12.63 7.83-1.29 15.85-1.25 23.82-1.53 27.01-.93 54.06-1.42 81.12-1.17 20.82.2 41.69.65 62.52 1.53 6.42.28 12.89.36 19.03 2.27 8.31 2.59 14.5 6.96 17.83 14.04 3.24 6.8 4.49 13.84 5.17 21.08 1.88 19.67 1.93 39.33.39 59-.54 6.64-1.07 13.27-3.14 19.78-4.69 14.97-15.86 20.84-32.23 21.77-17.49.98-35.03 1.5-52.56 1.7-10.3.08-20.64 0-30.92 0-25.76.13-51.51-.16-77.21-1.33-8.36-.4-16.72-1.02-24.3-4.46-5.07-2.3-8.99-5.49-11.45-10.03zm87.59-25.57c30.98-14.22 54.3-24.91 69.95-32.09-23.52-10.81-46.61-21.37-69.95-32.08v64.17z"/><path id="a" d="M472.94 275.89v-64.14c23.34 10.68 46.43 21.29 69.95 32.1-23.48 10.76-46.57 21.32-69.95 32.04z"/></defs><defs><use id="T" xlink:href="#a"/><use id="U" xlink:href="#a"/><use id="V" xlink:href="#a"/><use id="W" xlink:href="#b"/><use id="X" xlink:href="#b"/><use id="Y" xlink:href="#b"/><use id="Z" xlink:href="#c"/><use id="aa" xlink:href="#c"/><use id="ab" xlink:href="#c"/><use id="ac" xlink:href="#d"/><use id="ad" xlink:href="#d"/><use id="ae" xlink:href="#d"/><use id="af" xlink:href="#e"/><use id="ag" xlink:href="#e"/><use id="ah" xlink:href="#e"/><use id="ai" xlink:href="#f"/><use id="aj" xlink:href="#f"/><use id="ak" xlink:href="#f"/><use id="al" xlink:href="#g"/><use id="am" xlink:href="#g"/><use id="an" xlink:href="#g"/><use id="ao" xlink:href="#h"/><use id="ap" xlink:href="#h"/><use id="aq" xlink:href="#h"/><use id="ar" xlink:href="#i"/><use id="as" xlink:href="#i"/><use id="at" xlink:href="#i"/><use id="au" xlink:href="#j"/><use id="av" xlink:href="#j"/><use id="aw" xlink:href="#j"/><use id="ax" xlink:href="#k"/><use id="ay" xlink:href="#k"/><use id="az" xlink:href="#k"/><use id="aA" xlink:href="#l"/><use id="aB" xlink:href="#l"/><use id="aC" xlink:href="#l"/><use id="aD" xlink:href="#m"/><use id="aE" xlink:href="#m"/><use id="aF" xlink:href="#m"/><use id="aG" xlink:href="#n"/><use id="aH" xlink:href="#n"/><use id="aI" xlink:href="#n"/><use id="aJ" xlink:href="#o"/><use id="aK" xlink:href="#o"/><use id="aL" xlink:href="#o"/><use id="aM" xlink:href="#p"/><use id="aN" xlink:href="#p"/><use id="aO" xlink:href="#p"/><use id="aP" xlink:href="#q"/><use id="aQ" xlink:href="#q"/><use id="aR" xlink:href="#q"/><use id="aS" xlink:href="#r"/><use id="aT" xlink:href="#r"/><use id="aU" xlink:href="#r"/><use id="aV" xlink:href="#s"/><use id="aW" xlink:href="#s"/><use id="aX" xlink:href="#s"/><use id="aY" xlink:href="#t"/><use id="aZ" xlink:href="#t"/><use id="ba" xlink:href="#t"/><use id="bb" xlink:href="#u"/><use id="bc" xlink:href="#u"/><use id="bd" xlink:href="#u"/><use id="be" xlink:href="#v"/><use id="bf" xlink:href="#v"/><use id="bg" xlink:href="#v"/><use id="bh" xlink:href="#w"/><use id="bi" xlink:href="#w"/><use id="bj" xlink:href="#w"/><use id="bk" xlink:href="#x"/><use id="bl" xlink:href="#x"/><use id="bm" xlink:href="#x"/><use id="bn" xlink:href="#y"/><use id="bo" xlink:href="#y"/><use id="bp" xlink:href="#y"/><use id="bq" xlink:href="#z"/><use id="br" xlink:href="#z"/><use id="bs" xlink:href="#z"/><use id="bt" xlink:href="#A"/><use id="bu" xlink:href="#A"/><use id="bv" xlink:href="#A"/><use id="bw" xlink:href="#B"/><use id="bx" xlink:href="#B"/><use id="by" xlink:href="#B"/><use id="bz" xlink:href="#C"/><use id="bA" xlink:href="#C"/><use id="bB" xlink:href="#C"/><use id="bC" xlink:href="#D"/><use id="bD" xlink:href="#D"/><use id="bE" xlink:href="#D"/><use id="bF" xlink:href="#E"/><use id="bG" xlink:href="#E"/><use id="bH" xlink:href="#E"/><use id="bI" xlink:href="#F"/><use id="bJ" xlink:href="#F"/><use id="bK" xlink:href="#F"/><use id="bL" xlink:href="#G"/><use id="bM" xlink:href="#G"/><use id="bN" xlink:href="#G"/><use id="bO" xlink:href="#H"/><use id="bP" xlink:href="#H"/><use id="bQ" xlink:href="#H"/><use id="bR" xlink:href="#I"/><use id="bS" xlink:href="#I"/><use id="bT" xlink:href="#I"/><use id="bU" xlink:href="#J"/><use id="bV" xlink:href="#J"/><use id="bW" xlink:href="#J"/><use id="bX" xlink:href="#K"/><use id="bY" xlink:href="#K"/><use id="bZ" xlink:href="#K"/><use id="ca" xlink:href="#L"/><use id="cb" xlink:href="#L"/><use id="cc" xlink:href="#L"/><use id="cd" xlink:href="#M"/><use id="ce" xlink:href="#M"/><use id="cf" xlink:href="#M"/><use id="cg" xlink:href="#N"/><use id="ch" xlink:href="#N"/><use id="ci" xlink:href="#N"/><use id="cj" xlink:href="#O"/><use id="ck" xlink:href="#O"/><use id="cl" xlink:href="#O"/><use id="cm" xlink:href="#P"/><use id="cn" xlink:href="#P"/><use id="co" xlink:href="#P"/><use id="cp" xlink:href="#Q"/><use id="cq" xlink:href="#Q"/><use id="cr" xlink:href="#Q"/><use id="cs" xlink:href="#R"/><use id="ct" xlink:href="#R"/><use id="cu" xlink:href="#R"/><use id="cv" xlink:href="#S"/><use id="cw" xlink:href="#S"/><path id="cx" d="M389.04 72.94c13.67.14 27.55.57 41.02 2.01 30.72 3.29 31.31 26.77 28.34 46.24-7.73-6.44-16.65-12.17-27.15-16.32-10.31-4.15-19.82 7.45-9.31 11.46 20.61 7.87 34.08 21.62 44.78 36.22 3.37 4.58 13.08 3.3 15.06-1.43 6.74-17.61 17.44-34.08 31.12-49.54 1.78-2.01-2.18-4.15-4.36-2.44-12.49 9.31-22.99 19.05-31.12 29.93 3.77-22.62 4.96-51.98-23.78-64.86-13.67-6.16-32.1-5.73-47.56-6.16-16.45-.43-40.03-2.86-53.7 5.01-3.37 1.86-1.98 5.59.99 7.02 10.5 4.58 23.98 2.72 35.67 2.86z"/></defs><use fill="#fefdfd" xlink:href="#a"/><use fill-opacity="0" stroke="#000" stroke-opacity="0" xlink:href="#a"/><use fill-opacity="0" xlink:href="#T"/><use fill-opacity="0" stroke="#000" stroke-opacity="0" xlink:href="#T"/><use fill-opacity="0" xlink:href="#U"/><use fill-opacity="0" stroke="#000" stroke-opacity="0" xlink:href="#U"/><use fill-opacity="0" xlink:href="#V"/><use fill-opacity="0" stroke="#000" stroke-opacity="0" xlink:href="#V"/><use fill="#dd2c28" xlink:href="#b"/><use fill-opacity="0" stroke="#000" stroke-opacity="0" xlink:href="#b"/><use fill-opacity="0" xlink:href="#W"/><use fill-opacity="0" stroke="#000" stroke-opacity="0" xlink:href="#W"/><use fill-opacity="0" xlink:href="#X"/><use fill-opacity="0" stroke="#000" stroke-opacity="0" xlink:href="#X"/><use fill-opacity="0" xlink:href="#Y"/><use fill-opacity="0" stroke="#000" stroke-opacity="0" xlink:href="#Y"/><use fill="#006095" xlink:href="#c"/><use fill-opacity="0" stroke="#000" stroke-opacity="0" xlink:href="#c"/><use fill-opacity="0" xlink:href="#Z"/><use fill-opacity="0" stroke="#000" stroke-opacity="0" xlink:href="#Z"/><use fill-opacity="0" xlink:href="#aa"/><use fill-opacity="0" stroke="#000" stroke-opacity="0" xlink:href="#aa"/><use fill-opacity="0" xlink:href="#ab"/><use fill-opacity="0" stroke="#000" stroke-opacity="0" xlink:href="#ab"/><use fill="#0071af" xlink:href="#d"/><use fill-opacity="0" stroke="#000" stroke-opacity="0" xlink:href="#d"/><use fill-opacity="0" xlink:href="#ac"/><use fill-opacity="0" stroke="#000" stroke-opacity="0" xlink:href="#ac"/><use fill-opacity="0" xlink:href="#ad"/><use fill-opacity="0" stroke="#000" stroke-opacity="0" xlink:href="#ad"/><use fill-opacity="0" xlink:href="#ae"/><use fill-opacity="0" stroke="#000" stroke-opacity="0" xlink:href="#ae"/><use fill="#fda5a3" xlink:href="#e"/><use fill-opacity="0" stroke="#000" stroke-opacity="0" xlink:href="#e"/><use fill-opacity="0" xlink:href="#af"/><use fill-opacity="0" stroke="#000" stroke-opacity="0" xlink:href="#af"/><use fill-opacity="0" xlink:href="#ag"/><use fill-opacity="0" stroke="#000" stroke-opacity="0" xlink:href="#ag"/><use fill-opacity="0" xlink:href="#ah"/><use fill-opacity="0" stroke="#000" stroke-opacity="0" xlink:href="#ah"/><use fill="#ec9090" xlink:href="#f"/><use fill-opacity="0" stroke="#000" stroke-opacity="0" xlink:href="#f"/><use fill-opacity="0" xlink:href="#ai"/><use fill-opacity="0" stroke="#000" stroke-opacity="0" xlink:href="#ai"/><use fill-opacity="0" xlink:href="#aj"/><use fill-opacity="0" stroke="#000" stroke-opacity="0" xlink:href="#aj"/><use fill-opacity="0" xlink:href="#ak"/><use fill-opacity="0" stroke="#000" stroke-opacity="0" xlink:href="#ak"/><use fill="#353535" xlink:href="#g"/><use fill-opacity="0" stroke="#000" stroke-opacity="0" xlink:href="#g"/><use fill-opacity="0" xlink:href="#al"/><use fill-opacity="0" stroke="#000" stroke-opacity="0" xlink:href="#al"/><use fill-opacity="0" xlink:href="#am"/><use fill-opacity="0" stroke="#000" stroke-opacity="0" xlink:href="#am"/><use fill-opacity="0" xlink:href="#an"/><use fill-opacity="0" stroke="#000" stroke-opacity="0" xlink:href="#an"/><use fill="#353535" xlink:href="#h"/><use fill-opacity="0" stroke="#000" stroke-opacity="0" xlink:href="#h"/><use fill-opacity="0" xlink:href="#ao"/><use fill-opacity="0" stroke="#000" stroke-opacity="0" xlink:href="#ao"/><use fill-opacity="0" xlink:href="#ap"/><use fill-opacity="0" stroke="#000" stroke-opacity="0" xlink:href="#ap"/><use fill-opacity="0" xlink:href="#aq"/><use fill-opacity="0" stroke="#000" stroke-opacity="0" xlink:href="#aq"/><use fill="#2d2d2d" xlink:href="#i"/><use fill-opacity="0" stroke="#000" stroke-opacity="0" xlink:href="#i"/><use fill-opacity="0" xlink:href="#ar"/><use fill-opacity="0" stroke="#000" stroke-opacity="0" xlink:href="#ar"/><use fill-opacity="0" xlink:href="#as"/><use fill-opacity="0" stroke="#000" stroke-opacity="0" xlink:href="#as"/><use fill-opacity="0" xlink:href="#at"/><use fill-opacity="0" stroke="#000" stroke-opacity="0" xlink:href="#at"/><use fill="#353535" xlink:href="#j"/><use fill-opacity="0" stroke="#000" stroke-opacity="0" xlink:href="#j"/><use fill-opacity="0" xlink:href="#au"/><use fill-opacity="0" stroke="#000" stroke-opacity="0" xlink:href="#au"/><use fill-opacity="0" xlink:href="#av"/><use fill-opacity="0" stroke="#000" stroke-opacity="0" xlink:href="#av"/><use fill-opacity="0" xlink:href="#aw"/><use fill-opacity="0" stroke="#000" stroke-opacity="0" xlink:href="#aw"/><use fill="#2d2d2d" xlink:href="#k"/><use fill-opacity="0" stroke="#000" stroke-opacity="0" xlink:href="#k"/><use fill-opacity="0" xlink:href="#ax"/><use fill-opacity="0" stroke="#000" stroke-opacity="0" xlink:href="#ax"/><use fill-opacity="0" xlink:href="#ay"/><use fill-opacity="0" stroke="#000" stroke-opacity="0" xlink:href="#ay"/><use fill-opacity="0" xlink:href="#az"/><use fill-opacity="0" stroke="#000" stroke-opacity="0" xlink:href="#az"/><use fill="#bebebe" xlink:href="#l"/><use fill-opacity="0" stroke="#000" stroke-opacity="0" xlink:href="#l"/><use fill-opacity="0" xlink:href="#aA"/><use fill-opacity="0" stroke="#000" stroke-opacity="0" xlink:href="#aA"/><use fill-opacity="0" xlink:href="#aB"/><use fill-opacity="0" stroke="#000" stroke-opacity="0" xlink:href="#aB"/><use fill-opacity="0" xlink:href="#aC"/><use fill-opacity="0" stroke="#000" stroke-opacity="0" xlink:href="#aC"/><use fill="#bebebe" xlink:href="#m"/><use fill-opacity="0" stroke="#000" stroke-opacity="0" xlink:href="#m"/><use fill-opacity="0" xlink:href="#aD"/><use fill-opacity="0" stroke="#000" stroke-opacity="0" xlink:href="#aD"/><use fill-opacity="0" xlink:href="#aE"/><use fill-opacity="0" stroke="#000" stroke-opacity="0" xlink:href="#aE"/><use fill-opacity="0" xlink:href="#aF"/><use fill-opacity="0" stroke="#000" stroke-opacity="0" xlink:href="#aF"/><use fill="#ec9090" xlink:href="#n"/><use fill-opacity="0" stroke="#000" stroke-opacity="0" xlink:href="#n"/><use fill-opacity="0" xlink:href="#aG"/><use fill-opacity="0" stroke="#000" stroke-opacity="0" xlink:href="#aG"/><use fill-opacity="0" xlink:href="#aH"/><use fill-opacity="0" stroke="#000" stroke-opacity="0" xlink:href="#aH"/><use fill-opacity="0" xlink:href="#aI"/><use fill-opacity="0" stroke="#000" stroke-opacity="0" xlink:href="#aI"/><use fill="#6e6e6e" xlink:href="#o"/><use fill-opacity="0" stroke="#000" stroke-opacity="0" xlink:href="#o"/><use fill-opacity="0" xlink:href="#aJ"/><use fill-opacity="0" stroke="#000" stroke-opacity="0" xlink:href="#aJ"/><use fill-opacity="0" xlink:href="#aK"/><use fill-opacity="0" stroke="#000" stroke-opacity="0" xlink:href="#aK"/><use fill-opacity="0" xlink:href="#aL"/><use fill-opacity="0" stroke="#000" stroke-opacity="0" xlink:href="#aL"/><use fill="#fda5a3" xlink:href="#p"/><use fill-opacity="0" stroke="#000" stroke-opacity="0" xlink:href="#p"/><use fill-opacity="0" xlink:href="#aM"/><use fill-opacity="0" stroke="#000" stroke-opacity="0" xlink:href="#aM"/><use fill-opacity="0" xlink:href="#aN"/><use fill-opacity="0" stroke="#000" stroke-opacity="0" xlink:href="#aN"/><use fill-opacity="0" xlink:href="#aO"/><use fill-opacity="0" stroke="#000" stroke-opacity="0" xlink:href="#aO"/><use fill="#00b378" xlink:href="#q"/><use fill-opacity="0" stroke="#000" stroke-opacity="0" xlink:href="#q"/><use fill-opacity="0" xlink:href="#aP"/><use fill-opacity="0" stroke="#000" stroke-opacity="0" xlink:href="#aP"/><use fill-opacity="0" xlink:href="#aQ"/><use fill-opacity="0" stroke="#000" stroke-opacity="0" xlink:href="#aQ"/><use fill-opacity="0" xlink:href="#aR"/><use fill-opacity="0" stroke="#000" stroke-opacity="0" xlink:href="#aR"/><use fill="#dfdfdf" xlink:href="#r"/><use fill-opacity="0" stroke="#000" stroke-opacity="0" xlink:href="#r"/><use fill-opacity="0" xlink:href="#aS"/><use fill-opacity="0" stroke="#000" stroke-opacity="0" xlink:href="#aS"/><use fill-opacity="0" xlink:href="#aT"/><use fill-opacity="0" stroke="#000" stroke-opacity="0" xlink:href="#aT"/><use fill-opacity="0" xlink:href="#aU"/><use fill-opacity="0" stroke="#000" stroke-opacity="0" xlink:href="#aU"/><use fill="#dfdfdf" xlink:href="#s"/><use fill-opacity="0" stroke="#000" stroke-opacity="0" xlink:href="#s"/><use fill-opacity="0" xlink:href="#aV"/><use fill-opacity="0" stroke="#000" stroke-opacity="0" xlink:href="#aV"/><use fill-opacity="0" xlink:href="#aW"/><use fill-opacity="0" stroke="#000" stroke-opacity="0" xlink:href="#aW"/><use fill-opacity="0" xlink:href="#aX"/><use fill-opacity="0" stroke="#000" stroke-opacity="0" xlink:href="#aX"/><use fill="#338dbf" xlink:href="#t"/><use fill-opacity="0" stroke="#000" stroke-opacity="0" xlink:href="#t"/><use fill-opacity="0" xlink:href="#aY"/><use fill-opacity="0" stroke="#000" stroke-opacity="0" xlink:href="#aY"/><use fill-opacity="0" xlink:href="#aZ"/><use fill-opacity="0" stroke="#000" stroke-opacity="0" xlink:href="#aZ"/><use fill-opacity="0" xlink:href="#ba"/><use fill-opacity="0" stroke="#000" stroke-opacity="0" xlink:href="#ba"/><use fill="#338dbf" xlink:href="#u"/><use fill-opacity="0" stroke="#000" stroke-opacity="0" xlink:href="#u"/><use fill-opacity="0" xlink:href="#bb"/><use fill-opacity="0" stroke="#000" stroke-opacity="0" xlink:href="#bb"/><use fill-opacity="0" xlink:href="#bc"/><use fill-opacity="0" stroke="#000" stroke-opacity="0" xlink:href="#bc"/><use fill-opacity="0" xlink:href="#bd"/><use fill-opacity="0" stroke="#000" stroke-opacity="0" xlink:href="#bd"/><use fill="#cbe2ef" xlink:href="#v"/><use fill-opacity="0" stroke="#000" stroke-opacity="0" xlink:href="#v"/><use fill-opacity="0" xlink:href="#be"/><use fill-opacity="0" stroke="#000" stroke-opacity="0" xlink:href="#be"/><use fill-opacity="0" xlink:href="#bf"/><use fill-opacity="0" stroke="#000" stroke-opacity="0" xlink:href="#bf"/><use fill-opacity="0" xlink:href="#bg"/><use fill-opacity="0" stroke="#000" stroke-opacity="0" xlink:href="#bg"/><use fill="#cbe2ef" xlink:href="#w"/><use fill-opacity="0" stroke="#000" stroke-opacity="0" xlink:href="#w"/><use fill-opacity="0" xlink:href="#bh"/><use fill-opacity="0" stroke="#000" stroke-opacity="0" xlink:href="#bh"/><g fill-opacity="0"><use xlink:href="#bi"/><use stroke="#000" stroke-opacity="0" xlink:href="#bi"/></g><g fill-opacity="0"><use xlink:href="#bj"/><use stroke="#000" stroke-opacity="0" xlink:href="#bj"/></g><use fill="#cbe2ef" xlink:href="#x"/><use fill-opacity="0" stroke="#000" stroke-opacity="0" xlink:href="#x"/><g fill-opacity="0"><use xlink:href="#bk"/><use stroke="#000" stroke-opacity="0" xlink:href="#bk"/></g><g fill-opacity="0"><use xlink:href="#bl"/><use stroke="#000" stroke-opacity="0" xlink:href="#bl"/></g><g fill-opacity="0"><use xlink:href="#bm"/><use stroke="#000" stroke-opacity="0" xlink:href="#bm"/></g><use fill="#fda5a3" xlink:href="#y"/><use fill-opacity="0" stroke="#000" stroke-opacity="0" xlink:href="#y"/><g fill-opacity="0"><use xlink:href="#bn"/><use stroke="#000" stroke-opacity="0" xlink:href="#bn"/></g><g fill-opacity="0"><use xlink:href="#bo"/><use stroke="#000" stroke-opacity="0" xlink:href="#bo"/></g><g fill-opacity="0"><use xlink:href="#bp"/><use stroke="#000" stroke-opacity="0" xlink:href="#bp"/></g><use fill="#d27676" xlink:href="#z"/><use fill-opacity="0" stroke="#000" stroke-opacity="0" xlink:href="#z"/><g fill-opacity="0"><use xlink:href="#bq"/><use stroke="#000" stroke-opacity="0" xlink:href="#bq"/></g><g fill-opacity="0"><use xlink:href="#br"/><use stroke="#000" stroke-opacity="0" xlink:href="#br"/></g><g fill-opacity="0"><use xlink:href="#bs"/><use stroke="#000" stroke-opacity="0" xlink:href="#bs"/></g><use fill="#bebebe" xlink:href="#A"/><use fill-opacity="0" stroke="#000" stroke-opacity="0" xlink:href="#A"/><g fill-opacity="0"><use xlink:href="#bt"/><use stroke="#000" stroke-opacity="0" xlink:href="#bt"/></g><g fill-opacity="0"><use xlink:href="#bu"/><use stroke="#000" stroke-opacity="0" xlink:href="#bu"/></g><g fill-opacity="0"><use xlink:href="#bv"/><use stroke="#000" stroke-opacity="0" xlink:href="#bv"/></g><use fill="#ec9090" xlink:href="#B"/><use fill-opacity="0" stroke="#000" stroke-opacity="0" xlink:href="#B"/><g fill-opacity="0"><use xlink:href="#bw"/><use stroke="#000" stroke-opacity="0" xlink:href="#bw"/></g><g fill-opacity="0"><use xlink:href="#bx"/><use stroke="#000" stroke-opacity="0" xlink:href="#bx"/></g><g fill-opacity="0"><use xlink:href="#by"/><use stroke="#000" stroke-opacity="0" xlink:href="#by"/></g><use fill="#f4f4f4" xlink:href="#C"/><use fill-opacity="0" stroke="#000" stroke-opacity="0" xlink:href="#C"/><g fill-opacity="0"><use xlink:href="#bz"/><use stroke="#000" stroke-opacity="0" xlink:href="#bz"/></g><g fill-opacity="0"><use xlink:href="#bA"/><use stroke="#000" stroke-opacity="0" xlink:href="#bA"/></g><g fill-opacity="0"><use xlink:href="#bB"/><use stroke="#000" stroke-opacity="0" xlink:href="#bB"/></g><use fill="#d78d8b" xlink:href="#D"/><use fill-opacity="0" stroke="#000" stroke-opacity="0" xlink:href="#D"/><g fill-opacity="0"><use xlink:href="#bC"/><use stroke="#000" stroke-opacity="0" xlink:href="#bC"/></g><g fill-opacity="0"><use xlink:href="#bD"/><use stroke="#000" stroke-opacity="0" xlink:href="#bD"/></g><g fill-opacity="0"><use xlink:href="#bE"/><use stroke="#000" stroke-opacity="0" xlink:href="#bE"/></g><use fill="#c97b7b" xlink:href="#E"/><use fill-opacity="0" stroke="#000" stroke-opacity="0" xlink:href="#E"/><g fill-opacity="0"><use xlink:href="#bF"/><use stroke="#000" stroke-opacity="0" xlink:href="#bF"/></g><g fill-opacity="0"><use xlink:href="#bG"/><use stroke="#000" stroke-opacity="0" xlink:href="#bG"/></g><g fill-opacity="0"><use xlink:href="#bH"/><use stroke="#000" stroke-opacity="0" xlink:href="#bH"/></g><use fill="#a2a2a2" xlink:href="#F"/><use fill-opacity="0" stroke="#000" stroke-opacity="0" xlink:href="#F"/><g fill-opacity="0"><use xlink:href="#bI"/><use stroke="#000" stroke-opacity="0" xlink:href="#bI"/></g><g fill-opacity="0"><use xlink:href="#bJ"/><use stroke="#000" stroke-opacity="0" xlink:href="#bJ"/></g><g fill-opacity="0"><use xlink:href="#bK"/><use stroke="#000" stroke-opacity="0" xlink:href="#bK"/></g><use fill="#096" xlink:href="#G"/><use fill-opacity="0" stroke="#000" stroke-opacity="0" xlink:href="#G"/><g fill-opacity="0"><use xlink:href="#bL"/><use stroke="#000" stroke-opacity="0" xlink:href="#bL"/></g><g fill-opacity="0"><use xlink:href="#bM"/><use stroke="#000" stroke-opacity="0" xlink:href="#bM"/></g><g fill-opacity="0"><use xlink:href="#bN"/><use stroke="#000" stroke-opacity="0" xlink:href="#bN"/></g><use fill="#d78d8b" xlink:href="#H"/><use fill-opacity="0" stroke="#000" stroke-opacity="0" xlink:href="#H"/><g fill-opacity="0"><use xlink:href="#bO"/><use stroke="#000" stroke-opacity="0" xlink:href="#bO"/></g><g fill-opacity="0"><use xlink:href="#bP"/><use stroke="#000" stroke-opacity="0" xlink:href="#bP"/></g><g fill-opacity="0"><use xlink:href="#bQ"/><use stroke="#000" stroke-opacity="0" xlink:href="#bQ"/></g><use fill="#b36565" xlink:href="#I"/><use fill-opacity="0" stroke="#000" stroke-opacity="0" xlink:href="#I"/><g fill-opacity="0"><use xlink:href="#bR"/><use stroke="#000" stroke-opacity="0" xlink:href="#bR"/></g><g fill-opacity="0"><use xlink:href="#bS"/><use stroke="#000" stroke-opacity="0" xlink:href="#bS"/></g><g fill-opacity="0"><use xlink:href="#bT"/><use stroke="#000" stroke-opacity="0" xlink:href="#bT"/></g><use fill="#006095" xlink:href="#J"/><use fill-opacity="0" stroke="#000" stroke-opacity="0" xlink:href="#J"/><g fill-opacity="0"><use xlink:href="#bU"/><use stroke="#000" stroke-opacity="0" xlink:href="#bU"/></g><g fill-opacity="0"><use xlink:href="#bV"/><use stroke="#000" stroke-opacity="0" xlink:href="#bV"/></g><g fill-opacity="0"><use xlink:href="#bW"/><use stroke="#000" stroke-opacity="0" xlink:href="#bW"/></g><use fill="#5e5e5e" xlink:href="#K"/><use fill-opacity="0" stroke="#000" stroke-opacity="0" xlink:href="#K"/><g fill-opacity="0"><use xlink:href="#bX"/><use stroke="#000" stroke-opacity="0" xlink:href="#bX"/></g><g fill-opacity="0"><use xlink:href="#bY"/><use stroke="#000" stroke-opacity="0" xlink:href="#bY"/></g><g fill-opacity="0"><use xlink:href="#bZ"/><use stroke="#000" stroke-opacity="0" xlink:href="#bZ"/></g><use fill="#a2a2a2" xlink:href="#L"/><use fill-opacity="0" stroke="#000" stroke-opacity="0" xlink:href="#L"/><g fill-opacity="0"><use xlink:href="#ca"/><use stroke="#000" stroke-opacity="0" xlink:href="#ca"/></g><g fill-opacity="0"><use xlink:href="#cb"/><use stroke="#000" stroke-opacity="0" xlink:href="#cb"/></g><g fill-opacity="0"><use xlink:href="#cc"/><use stroke="#000" stroke-opacity="0" xlink:href="#cc"/></g><use fill="#dfdfdf" xlink:href="#M"/><use fill-opacity="0" stroke="#000" stroke-opacity="0" xlink:href="#M"/><g fill-opacity="0"><use xlink:href="#cd"/><use stroke="#000" stroke-opacity="0" xlink:href="#cd"/></g><g fill-opacity="0"><use xlink:href="#ce"/><use stroke="#000" stroke-opacity="0" xlink:href="#ce"/></g><g fill-opacity="0"><use xlink:href="#cf"/><use stroke="#000" stroke-opacity="0" xlink:href="#cf"/></g><use fill="#d78d8b" xlink:href="#N"/><use fill-opacity="0" stroke="#000" stroke-opacity="0" xlink:href="#N"/><g fill-opacity="0"><use xlink:href="#cg"/><use stroke="#000" stroke-opacity="0" xlink:href="#cg"/></g><g fill-opacity="0"><use xlink:href="#ch"/><use stroke="#000" stroke-opacity="0" xlink:href="#ch"/></g><g fill-opacity="0"><use xlink:href="#ci"/><use stroke="#000" stroke-opacity="0" xlink:href="#ci"/></g><use fill="#c97b7b" xlink:href="#O"/><use fill-opacity="0" stroke="#000" stroke-opacity="0" xlink:href="#O"/><g fill-opacity="0"><use xlink:href="#cj"/><use stroke="#000" stroke-opacity="0" xlink:href="#cj"/></g><g fill-opacity="0"><use xlink:href="#ck"/><use stroke="#000" stroke-opacity="0" xlink:href="#ck"/></g><g fill-opacity="0"><use xlink:href="#cl"/><use stroke="#000" stroke-opacity="0" xlink:href="#cl"/></g><g><use fill="#2c78a3" xlink:href="#P"/><use fill-opacity="0" stroke="#000" stroke-opacity="0" xlink:href="#P"/></g><g fill-opacity="0"><use xlink:href="#cm"/><use stroke="#000" stroke-opacity="0" xlink:href="#cm"/></g><g fill-opacity="0"><use xlink:href="#cn"/><use stroke="#000" stroke-opacity="0" xlink:href="#cn"/></g><g fill-opacity="0"><use xlink:href="#co"/><use stroke="#000" stroke-opacity="0" xlink:href="#co"/></g><g><use fill="#a2a2a2" xlink:href="#Q"/><use fill-opacity="0" stroke="#000" stroke-opacity="0" xlink:href="#Q"/></g><g fill-opacity="0"><use xlink:href="#cp"/><use stroke="#000" stroke-opacity="0" xlink:href="#cp"/></g><g fill-opacity="0"><use xlink:href="#cq"/><use stroke="#000" stroke-opacity="0" xlink:href="#cq"/></g><g fill-opacity="0"><use xlink:href="#cr"/><use stroke="#000" stroke-opacity="0" xlink:href="#cr"/></g><g><use fill="#454b53" xlink:href="#R"/><use fill-opacity="0" stroke="#000" stroke-opacity="0" xlink:href="#R"/></g><g fill-opacity="0"><use xlink:href="#cs"/><use stroke="#000" stroke-opacity="0" xlink:href="#cs"/></g><g fill-opacity="0"><use xlink:href="#ct"/><use stroke="#000" stroke-opacity="0" xlink:href="#ct"/></g><g fill-opacity="0"><use xlink:href="#cu"/><use stroke="#000" stroke-opacity="0" xlink:href="#cu"/></g><g><use fill="#454b53" xlink:href="#S"/><use fill-opacity="0" stroke="#000" stroke-opacity="0" xlink:href="#S"/></g><g fill-opacity="0"><use xlink:href="#cv"/><use stroke="#000" stroke-opacity="0" xlink:href="#cv"/></g><g fill-opacity="0"><use xlink:href="#cw"/><use stroke="#000" stroke-opacity="0" xlink:href="#cw"/></g><g><use fill="#f9d02b" xlink:href="#cx"/><use fill-opacity="0" stroke="#000" stroke-opacity="0" xlink:href="#cx"/></g></svg>