<?xml version="1.0" ?><svg id="Layer_1" style="enable-background:new 0 0 512 512;" version="1.1" viewBox="0 0 512 512" xml:space="preserve" xmlns="http://www.w3.org/2000/svg" xmlns:xlink="http://www.w3.org/1999/xlink"><style type="text/css">
	.st0{fill:#CB2127;}
	.st1{fill:#F7DE28;}
</style><g id="XMLID_1_"><rect class="st0" height="298.7" id="XMLID_7_" width="512" y="106.7"/><polygon class="st1" id="XMLID_6_" points="49.3,214.8 58.9,185 33.6,166.5 64.9,166.4 74.7,136.7 84.4,166.4 115.7,166.5    90.4,185 100,214.8 74.7,196.4  "/><polygon class="st1" id="XMLID_5_" points="136.6,230.9 147.2,235.1 154.5,226.4 153.7,237.8 164.3,242.1 153.2,244.9 152.4,256.2    146.3,246.6 135.3,249.3 142.6,240.5  "/><polygon class="st1" id="XMLID_4_" points="193.8,173.6 182.6,171.7 177.2,181.7 175.6,170.4 164.4,168.4 174.6,163.4 173,152.1    181,160.3 191.2,155.3 185.9,165.4  "/><polygon class="st1" id="XMLID_3_" points="170,224.6 173.5,213.8 164.3,207.1 175.7,207.1 179.2,196.2 182.7,207.1 194.1,207.1    184.9,213.8 188.4,224.6 179.2,218  "/><polygon class="st1" id="XMLID_2_" points="137.1,125.7 147.5,130.4 155.3,122.1 153.9,133.4 164.2,138.3 153,140.5 151.6,151.8    146.1,141.8 134.9,144 142.6,135.6  "/></g></svg>