<svg xmlns="http://www.w3.org/2000/svg" width="512" height="512"><defs/><path fill="#e5646e" d="M495.484 90.839H16.516l-8.849 16.516v291.129c0 9.122 7.395 16.516 16.516 16.516h471.301L512 404.645v-49.548L497 337V171l15-14.097v-49.548c0-9.122-7.395-16.516-16.516-16.516z"/><path fill="#db4655" d="M16.516 355.097V90.839C7.395 90.839 0 98.233 0 107.355v49.548L7.5 168.5V342L0 355.097v49.548c0 9.122 7.395 16.516 16.516 16.516h478.968c9.121 0 16.516-7.395 16.516-16.516H66.065c-27.365 0-49.549-22.183-49.549-49.548z"/><path fill="#ffe07d" d="M512 355.097H16.516L8.5 339.5V177l8.016-20.097H512z"/><path fill="#db4655" d="M148.645 189.935c-9.121 0-16.516 7.394-16.516 16.516v24.774h33.032v-24.774c0-9.121-7.394-16.516-16.516-16.516z"/><path fill="#e5646e" d="M148.645 313.806l-41.29-49.548v-33.032a8.258 8.258 0 018.258-8.258h33.032l41.29 41.29v8.258c0 22.804-18.486 41.29-41.29 41.29z"/><path fill="#fff" d="M66.065 222.968h16.516v82.581H66.065z"/><path fill="#ffd064" d="M0 156.903h16.516v198.194H0z"/><circle cx="74.323" cy="222.968" r="8.258" fill="#e5646e"/><circle cx="74.323" cy="305.548" r="8.258" fill="#5055a0"/><path fill="#fff" d="M214.71 222.968h16.516v82.581H214.71z"/><circle cx="222.968" cy="222.968" r="8.258" fill="#e5646e"/><circle cx="222.968" cy="305.548" r="8.258" fill="#5055a0"/><path fill="#fff" d="M181.677 222.968h-33.032v41.29h41.29v-33.032a8.258 8.258 0 00-8.258-8.258z"/><path fill="#ffc269" d="M107.355 264.258v8.258c0 22.804 18.486 41.29 41.29 41.29v-49.548z"/><circle cx="148.645" cy="264.258" r="16.516" fill="#5055a0"/></svg>