<svg xmlns="http://www.w3.org/2000/svg" width="250" height="250"><defs/><g fill="none" fill-rule="evenodd"><rect width="250" height="250" fill="#6F85D5" rx="32"/><path fill="#000" fill-opacity=".25" d="M250 208v10c0 17.673-14.327 32-32 32H32c-17.673 0-32-14.327-32-32v-10c0 17.673 14.327 32 32 32h186c17.673 0 32-14.327 32-32z"/><path fill="#000" d="M250 163.69v44.464c0 17.673-14.327 32-32 32h-93.405l-72.529-80.287c5.374-24.847 20.552-42.946 45.536-54.297 21.059-9.567 40.417-8.823 66.503-7.132 11.435.742 17.193-3.348 17.272-12.27L250 163.689z" opacity=".155"/><path fill="#F7F8F7" fill-rule="nonzero" d="M160.488 178.001s-4.53-5.375-8.306-10.125c16.487-4.625 22.78-14.875 22.78-14.875-5.16 3.375-10.069 5.75-14.474 7.375-6.293 2.625-12.334 4.375-18.25 5.375-12.081 2.25-23.157 1.625-32.596-.125-7.174-1.375-13.34-3.375-18.5-5.375-2.895-1.125-6.042-2.5-9.188-4.25-.378-.25-.755-.375-1.133-.625-.252-.125-.378-.25-.503-.375-2.266-1.25-3.524-2.125-3.524-2.125s6.04 10 22.024 14.75c-3.775 4.75-8.432 10.375-8.432 10.375-27.814-.875-38.386-19-38.386-19 0-40.25 18.123-72.875 18.123-72.875 18.124-13.5 35.366-13.125 35.366-13.125l1.258 1.5c-22.654 6.5-33.1 16.375-33.1 16.375s2.77-1.5 7.426-3.625c13.466-5.875 24.164-7.5 28.57-7.875.754-.125 1.384-.25 2.139-.25 7.677-1 16.361-1.25 25.423-.25 11.956 1.375 24.793 4.875 37.882 12 0 0-9.942-9.375-31.338-15.875l1.762-2s17.242-.375 35.366 13.125c0 0 18.123 32.625 18.123 72.875 0 0-10.698 18.125-38.512 19zm-58.22-56.25c-7.02 0-12.563 5.856-12.563 13s5.666 13 12.563 13c7.02 0 12.562-5.856 12.562-13 .124-7.144-5.542-13-12.562-13zm44.954 0c-7.02 0-12.563 5.856-12.563 13s5.666 13 12.563 13c7.02 0 12.562-5.856 12.562-13s-5.542-13-12.562-13z"/></g></svg>