<svg xmlns="http://www.w3.org/2000/svg" xmlns:xlink="http://www.w3.org/1999/xlink" width="512" height="512"><defs/><defs><path id="a" d="M512 0v512H0V0h512z"/><path id="b" d="M68.24 428.76C-24.18 336.34-18.38 180.7 81.19 81.13c99.58-99.57 255.22-105.37 347.63-12.96-9.01 9.02-81.13 81.14-90.14 90.15-46.21-46.21-124.03-43.31-173.82 6.48-49.78 49.79-52.69 127.61-6.48 173.81-6.01 6.01-36.06 36.06-90.14 90.15z"/><path id="d" d="M172.02 157.85c53.2 0 96.33 43.13 96.33 96.33 0 53.21-43.13 96.34-96.33 96.34v-48.17c26.6 0 48.16-21.56 48.16-48.17 0-26.6-21.56-48.16-48.16-48.16v-48.17z"/><path id="e" d="M337.2 353.66c-53.78 0-97.38-43.6-97.38-97.38 0-53.79 43.6-97.39 97.38-97.39v48.69c-26.89 0-48.69 21.8-48.69 48.7 0 26.89 21.8 48.69 48.69 48.69v48.69z"/><path id="g" d="M442.23 80.73c94.67 94.67 90.69 252.14-8.88 351.71-99.58 99.57-257.04 103.55-351.71 8.88 9.01-9.02 81.13-81.14 90.15-90.15 47.33 47.34 126.06 45.35 175.85-4.44 49.79-49.79 51.77-128.52 4.44-175.85l90.15-90.15z"/><path id="i" d="M174.41 224.28c0-.01 0-.01 0 0 16.48 0 29.84 13.36 29.84 29.84s-13.36 29.84-29.84 29.84h-29.84v-59.68h29.84z"/><linearGradient id="c" x1="92.16" x2="419.36" y1="67.93" y2="445.67" gradientUnits="userSpaceOnUse"><stop offset="0%" stop-color="#6e0ed9" stop-opacity=".93"/><stop offset="100%" stop-color="#010000"/></linearGradient><linearGradient id="f" x1="126.74" x2="509.97" y1="256" y2="256" gradientUnits="userSpaceOnUse"><stop offset="0%" stop-color="#6e0ed9"/><stop offset="100%" stop-color="#010000"/></linearGradient><linearGradient id="h" x1="415.29" x2="94.46" y1="449.11" y2="68.66" gradientUnits="userSpaceOnUse"><stop offset="0%" stop-color="#3ab9e7" stop-opacity=".93"/><stop offset="100%"/></linearGradient><linearGradient id="j" x1="193.71" x2="125.14" y1="254.18" y2="256" gradientUnits="userSpaceOnUse"><stop offset="0%" stop-color="#3ab9e7"/><stop offset="100%" stop-color="#010000"/></linearGradient></defs><use fill="#ffffff00" xlink:href="#a"/><use fill-opacity="0" stroke="#000" stroke-opacity="0" xlink:href="#a"/><use fill="url(#c)" xlink:href="#b"/><use fill-opacity="0" stroke="#000" stroke-width="2" xlink:href="#b"/><use fill="#3bb9e7" xlink:href="#d"/><use fill-opacity="0" stroke="#000" stroke-width="2" xlink:href="#d"/><use fill="url(#f)" xlink:href="#e"/><use fill-opacity="0" stroke="#000" stroke-width="2" xlink:href="#e"/><use fill="url(#h)" xlink:href="#g"/><use fill-opacity="0" stroke="#000" stroke-width="2" xlink:href="#g"/><g><use fill="url(#j)" xlink:href="#i"/><use fill-opacity="0" stroke="#000" stroke-width="2" xlink:href="#i"/></g></svg>