<svg xmlns="http://www.w3.org/2000/svg">
	<defs>
		<symbol id="shape-icon-flag-fr" viewBox="0 0 512 512">
			<path fill="#5055a0" d="M170.667 90.839H16.516l-6.032 16.516v289.796c0 9.121 7.395 16.516 16.516 16.516h143.667l19.269-17.283V115.616z"/><path fill="#e5646e" d="M341.333 413.5h154.151L512 404.645v-297.29c0-9.121-7.395-16.516-16.516-16.516H341.333l-19.269 24.778v280.768z"/><path fill="#db4655" d="M512 404.645H328.489l12.844 16.516h154.151c9.121 0 16.516-7.394 16.516-16.516z"/><path fill="#3f3f8f" d="M16.516 355.097V90.839C7.395 90.839 0 98.233 0 107.355v297.29c0 9.122 7.395 16.516 16.516 16.516h154.151l12.844-16.516H66.065c-27.365 0-49.549-22.183-49.549-49.548z"/><path fill="#f2f2f6" d="M187.333 413.667h141l13-9.022V90.839H170.667v313.806z"/><path fill="#e1e1e6" d="M170.667 404.645h170.666v16.516H170.667z"/>
		</symbol>
		<symbol id="shape-icon-flag-en" viewBox="0 0 512.002 512.002">
			<path fill="#41479b" d="M503.172 423.725H8.828A8.829 8.829 0 010 414.897V97.104a8.829 8.829 0 018.828-8.828h494.345a8.829 8.829 0 018.828 8.828v317.793a8.83 8.83 0 01-8.829 8.828z"/><path fill="#f5f5f5" d="M512 97.104a8.829 8.829 0 00-8.828-8.828h-39.495l-163.54 107.147V88.276h-88.276v107.147L48.322 88.276H8.828A8.829 8.829 0 000 97.104v22.831l140.309 91.927H0v88.276h140.309L0 392.066v22.831a8.829 8.829 0 008.828 8.828h39.495l163.54-107.147v107.147h88.276V316.578l163.54 107.147h39.495a8.829 8.829 0 008.828-8.828v-22.831l-140.309-91.927H512v-88.276H371.691L512 119.935V97.104z"/><g fill="#ff4b55"><path d="M512 229.518H282.483V88.276h-52.966v141.242H0v52.965h229.517v141.242h52.966V282.483H512z"/><path d="M178.948 300.138L.25 416.135c.625 4.263 4.14 7.59 8.577 7.59h12.159l190.39-123.586h-32.428v-.001zM346.388 300.138H313.96l190.113 123.404c4.431-.472 7.928-4.09 7.928-8.646v-7.258l-165.613-107.5zM0 106.849l161.779 105.014h32.428L5.143 89.137C2.123 90.54 0 93.555 0 97.104v9.745zM332.566 211.863L511.693 95.586c-.744-4.122-4.184-7.309-8.521-7.309h-12.647L300.138 211.863h32.428z"/></g>
		</symbol>
		<symbol id="shape-icon-flag-ru" viewBox="0 0 512 512">
			<path fill="#f2f2f6" d="M512 200.946v-93.591c0-9.122-7.395-16.516-16.516-16.516H16.516l-8.849 16.516v93.591l17.104 22.022h462.456z"/><path fill="#e1e1e6" d="M0 107.355v93.591l16.516 14.683V90.839C7.395 90.839 0 98.233 0 107.355z"/><path fill="#e5646e" d="M7.817 311.054v86.43c0 9.122 7.395 16.516 16.516 16.516h471.151L512 404.645v-93.591l-24.77-22.022H24.774z"/><path fill="#db4655" d="M16.516 355.097v-58.724L0 311.054v93.591c0 9.122 7.395 16.516 16.516 16.516h478.968c9.121 0 16.516-7.394 16.516-16.516H66.065c-27.365 0-49.549-22.183-49.549-49.548z"/><path fill="#5055a0" d="M8.667 297l7.849 14.053H512V200.946H16.516l-7.849 17.387z"/><path fill="#3f3f8f" d="M0 200.946h16.516v110.107H0z"/>
		</symbol>
		<symbol id="shape-icon-flag-de" viewBox="0 0 512 512">
			<path fill="#5d5360" d="M512 200.946v-93.591c0-9.122-7.395-16.516-16.516-16.516H16.516l-8.849 16.516v93.591l17.104 22.022h462.456z"/><path fill="#4b3f4e" d="M0 107.355v93.591l16.516 14.683V90.839C7.395 90.839 0 98.233 0 107.355z"/><path fill="#ffe07d" d="M7.817 311.054v86.43c0 9.122 7.395 16.516 16.516 16.516h471.151L512 404.645v-93.591l-24.77-22.022H24.774z"/><path fill="#ffd064" d="M16.516 355.097v-58.724L0 311.054v93.591c0 9.122 7.395 16.516 16.516 16.516h478.968c9.121 0 16.516-7.394 16.516-16.516H66.065c-27.365 0-49.549-22.183-49.549-49.548z"/><path fill="#e5646e" d="M8.667 297l7.849 14.053H512V200.946H16.516l-7.849 17.387z"/><path fill="#db4655" d="M0 200.946h16.516v110.107H0z"/>
		</symbol>
		<symbol id="shape-icon-flag-es" viewBox="0 0 512 512">
			<path fill="#e5646e" d="M495.484 90.839H16.516l-8.849 16.516v291.129c0 9.122 7.395 16.516 16.516 16.516h471.301L512 404.645v-49.548L497 337V171l15-14.097v-49.548c0-9.122-7.395-16.516-16.516-16.516z"/><path fill="#db4655" d="M16.516 355.097V90.839C7.395 90.839 0 98.233 0 107.355v49.548L7.5 168.5V342L0 355.097v49.548c0 9.122 7.395 16.516 16.516 16.516h478.968c9.121 0 16.516-7.395 16.516-16.516H66.065c-27.365 0-49.549-22.183-49.549-49.548z"/><path fill="#ffe07d" d="M512 355.097H16.516L8.5 339.5V177l8.016-20.097H512z"/><path fill="#db4655" d="M148.645 189.935c-9.121 0-16.516 7.394-16.516 16.516v24.774h33.032v-24.774c0-9.121-7.394-16.516-16.516-16.516z"/><path fill="#e5646e" d="M148.645 313.806l-41.29-49.548v-33.032a8.258 8.258 0 018.258-8.258h33.032l41.29 41.29v8.258c0 22.804-18.486 41.29-41.29 41.29z"/><path fill="#fff" d="M66.065 222.968h16.516v82.581H66.065z"/><path fill="#ffd064" d="M0 156.903h16.516v198.194H0z"/><circle cx="74.323" cy="222.968" r="8.258" fill="#e5646e"/><circle cx="74.323" cy="305.548" r="8.258" fill="#5055a0"/><path fill="#fff" d="M214.71 222.968h16.516v82.581H214.71z"/><circle cx="222.968" cy="222.968" r="8.258" fill="#e5646e"/><circle cx="222.968" cy="305.548" r="8.258" fill="#5055a0"/><path fill="#fff" d="M181.677 222.968h-33.032v41.29h41.29v-33.032a8.258 8.258 0 00-8.258-8.258z"/><path fill="#ffc269" d="M107.355 264.258v8.258c0 22.804 18.486 41.29 41.29 41.29v-49.548z"/><circle cx="148.645" cy="264.258" r="16.516" fill="#5055a0"/>
		</symbol>
		<symbol id="shape-icon-flag-pt" viewBox="0 0 4200 2940">
			<rect width="100%" height="100%" fill="none"/><g class="currentLayer"><path fill="#009b3a" d="M1.858-.431h4198.161v2940.464H1.858z" color="#000"/><path fill="#fedf00" d="M357 1470l1743 1113 1743-1113L2100 357z"/><circle cx="2100" cy="1470" r="735" fill="#002776"/></g>
		</symbol>
		<symbol id="shape-icon-flag-jp" viewBox="0 0 900 600">
			<rect fill="#fff" height="600" width="900"/>
			<circle fill="#bc002d" cx="450" cy="300" r="180"/>
		</symbol>
		<symbol id="shape-icon-flag-it" viewBox="0 0 3 2">
			<path fill="#009246" d="M0 0h1v2H0z"/><path fill="#fff" d="M1 0h1v2H1z"/><path fill="#ce2b37" d="M2 0h1v2H2z"/>
		</symbol>
		<symbol id="shape-icon-flag-dn" viewBox="0 0 37 28">
			<path fill="#c60c30" d="M0,0H37V28H0Z"/><path fill="#fff" d="M0,12H12V0H16V12H37V16H16V28H12V16H0Z"/>
		</symbol>
		<symbol id="shape-icon-flag-pl" viewBox="0 0 16 10">
			<path fill="#fff" d="M0 0h16v10H0z"/><path fill="#dc143c" d="M0 5h16v5H0z"/>
		</symbol>
		<symbol id="shape-icon-flag-ch" viewBox="0 0 4200 2940">
			<rect width="100%" height="100%" fill="none"/><g class="currentLayer"><path fill="#d50b0b" d="M8.525-.431h4198.161v2940.464H8.525z" class="selected" color="#000"/><path fill="#fedf00" d="M225.538 461.625h251.966l77.859-239.366 77.86 239.366h251.964L681.344 609.56l77.863 239.366-203.844-147.94-203.844 147.94 77.863-239.366-203.844-147.935zm844.817-329.231l77.816 20.279 43.31-67.658 4.78 80.19 77.816 20.28-74.86 29.28 4.782 80.192-51.047-62.095-74.86 29.283 43.31-67.658-51.047-62.093zm203.068 256.482l65.96 45.996 64.08-48.449-23.315 76.876 65.96 45.997-80.368 1.515-23.313 76.876-26.357-75.94-80.37 1.516 64.08-48.448-26.357-75.94zm-25.756 362.634h80.414l24.849-76.394 24.849 76.393h80.414l-65.057 47.213 24.85 76.394-65.056-47.215-65.057 47.215 24.85-76.394-65.056-47.213zm-218.942 189.507l72.246 35.312 55.87-57.723-11.22 79.546 72.246 35.312-79.18 13.85-11.22 79.546-37.716-70.987-79.182 13.851 55.872-57.722-37.716-70.985z" color="#009b3a"/></g>
		</symbol>
		<symbol id="shape-icon-flag-du" viewBox="0 0 15 3.3">
			<rect y="6.666" fill="#21468B" width="15" height="3.3333"/>
			<rect y="3.3333" fill="#FFFFFF" width="15" height="3.3333"/>
			<rect y="0" fill="#AE1C28" width="15" height="3.3333"/>
		</symbol>
		<symbol id="shape-icon-flag-se" viewBox="0 0 16 10">
			<path fill="#006aa7" d="M0 0h16v10H0z"/><path fill="#fecc00" d="M5 0h2v10H5z"/><path fill="#fecc00" d="M0 4h16v2H0z"/>
		</symbol>
		<symbol id="shape-icon-langues" viewBox="0 0 60 42">
			<rect width="100%" height="100%" fill="none"/><g class="currentLayer"><path fill="#3B97D3" d="M34 9H5c-2.2 0-4 1.8-4 4v18c0 2.2 1.8 4 4 4h4v6l8-6h13.3c2.2 0 4.5-2.3 4.5-4.5"/><path fill="#FFD766" d="M24 23V5c0-2.2 1.8-4 4-4h27c2.2 0 4 1.8 4 4v18c0 2.2-1.8 4-4 4h-5v6l-8.7-6H28c-2.2 0-4-1.8-4-4z"/><path fill="none" stroke="#2C3E50" stroke-linecap="round" stroke-linejoin="round" stroke-miterlimit="10" stroke-width="2" d="M24 23V5c0-2.2 1.8-4 4-4h27c2.2 0 4 1.8 4 4v18c0 2.2-1.8 4-4 4h-5v6l-8.7-6H28c-2.2 0-4-1.8-4-4z"/><path fill="none" stroke="#2C3E50" stroke-linecap="round" stroke-linejoin="round" stroke-miterlimit="10" stroke-width="2" d="M20 9H5c-2.2 0-4 1.8-4 4v18c0 2.2 1.8 4 4 4h4v6l8-6h13.3c2.2 0 4.5-2.3 4.5-4.5M32 10h8.1s-2.5 6.5-7.8 8m3.7 4v-5.8l3.5 1M36 10V7m7 3h8v6h-8zm0 3h8m-7 7h6M42.6 7l2.1 3"/><path fill="none" stroke="#2C3E50" stroke-linecap="round" stroke-linejoin="round" stroke-miterlimit="10" stroke-width="2" d="M46 7l1 3v12m4-15l-1.7 3M7.9 26.1l2.4-8.1 2.4 8.1m-4.1-2.4h3.3M16 26v-8h2c.6 0 1.9.1 1.9 1.3s-.8 1.7-1.8 1.7H16h2.4s2.4-.1 2.4 2.7c0 2.1-1 2.3-2.4 2.3H16z"/></g>
		</symbol>
		<symbol id="shape-icon-reseaux-youtube" viewBox="0 0 512 512">
			<path fill="#DD2C28" d="M255.7 446.3c-53.3.3-106.6-.4-159.8-3.3-17.3-1-34.6-2.5-50.3-11-10.5-5.7-18.6-13.6-23.7-24.8C13.3 388.6 10.6 369 9 349c-3.4-41.3-3.6-82.6-1.8-123.8.9-21.9 1.6-44 6.8-65.5 2-8.4 4.9-16.6 8.8-24.4C32 117 48 107.9 67.3 104.1c16.2-3.2 32.8-3.1 49.3-3.8 55.9-2.3 111.9-3.5 167.9-2.9 43.1.5 86.3 1.6 129.4 3.8 13.3.7 26.7.9 39.4 5.6 17.2 6.4 30 17.2 36.9 34.7 6.7 16.8 9.3 34.2 10.7 52.1 3.9 48.6 4 97.2.8 145.8-1.1 16.4-2.2 32.8-6.5 48.9-9.7 37-32.8 51.5-66.7 53.8-36.2 2.4-72.5 3.7-108.8 4.2-21.3.2-42.7 0-64 0zM203.2 344c48.4-26.5 96.2-52.7 144.8-79.3-48.7-26.7-96.5-52.8-144.8-79.3V344z"/><path fill="#FEFDFD" d="M203.2 344V185.5c48.3 26.4 96.1 52.6 144.8 79.3-48.6 26.6-96.4 52.7-144.8 79.2z"/>
		</symbol>
		<symbol id="shape-icon-reseaux-discord" viewBox="0 0 250 250">
			<g fill="none" fill-rule="evenodd"><rect width="250" height="250" fill="#6F85D5" rx="32"/><path fill="#000" fill-opacity=".25" d="M250 208v10c0 17.673-14.327 32-32 32H32c-17.673 0-32-14.327-32-32v-10c0 17.673 14.327 32 32 32h186c17.673 0 32-14.327 32-32z"/><path fill="#000" d="M250 163.69v44.464c0 17.673-14.327 32-32 32h-93.405l-72.529-80.287c5.374-24.847 20.552-42.946 45.536-54.297 21.059-9.567 40.417-8.823 66.503-7.132 11.435.742 17.193-3.348 17.272-12.27L250 163.689z" opacity=".155"/><path fill="#F7F8F7" fill-rule="nonzero" d="M160.488 178.001s-4.53-5.375-8.306-10.125c16.487-4.625 22.78-14.875 22.78-14.875-5.16 3.375-10.069 5.75-14.474 7.375-6.293 2.625-12.334 4.375-18.25 5.375-12.081 2.25-23.157 1.625-32.596-.125-7.174-1.375-13.34-3.375-18.5-5.375-2.895-1.125-6.042-2.5-9.188-4.25-.378-.25-.755-.375-1.133-.625-.252-.125-.378-.25-.503-.375-2.266-1.25-3.524-2.125-3.524-2.125s6.04 10 22.024 14.75c-3.775 4.75-8.432 10.375-8.432 10.375-27.814-.875-38.386-19-38.386-19 0-40.25 18.123-72.875 18.123-72.875 18.124-13.5 35.366-13.125 35.366-13.125l1.258 1.5c-22.654 6.5-33.1 16.375-33.1 16.375s2.77-1.5 7.426-3.625c13.466-5.875 24.164-7.5 28.57-7.875.754-.125 1.384-.25 2.139-.25 7.677-1 16.361-1.25 25.423-.25 11.956 1.375 24.793 4.875 37.882 12 0 0-9.942-9.375-31.338-15.875l1.762-2s17.242-.375 35.366 13.125c0 0 18.123 32.625 18.123 72.875 0 0-10.698 18.125-38.512 19zm-58.22-56.25c-7.02 0-12.563 5.856-12.563 13s5.666 13 12.563 13c7.02 0 12.562-5.856 12.562-13 .124-7.144-5.542-13-12.562-13zm44.954 0c-7.02 0-12.563 5.856-12.563 13s5.666 13 12.563 13c7.02 0 12.562-5.856 12.562-13s-5.542-13-12.562-13z"/></g>
		</symbol>
		<symbol id="shape-icon-reseaux-patreon" viewBox="0 0 180 180">
			<path fill="#f96753" d="M108.814 26.067c-26.469 0-48.003 21.53-48.003 47.998 0 26.386 21.534 47.854 48.003 47.854 26.386 0 47.853-21.468 47.853-47.854 0-26.467-21.467-47.998-47.853-47.998"/><path fill="#052a49" d="M23.333 153.933V26.067H46.8v127.866z"/>
		</symbol>
		<symbol id="shape-icon-profiles-1" viewBox="0 0 356 345">
			<rect width="100%" height="100%" fill="none"/><g class="currentLayer"><path fill="#0f4c05" stroke="#43cc2f" stroke-linecap="round" stroke-linejoin="round" stroke-width="5" d="M348.846 319.17l-25.17 3.27a6.89 6.89 0 01-7.38-4.56l-2.16-6.25a6.45 6.45 0 00-4.71-4.18l-47.39-10.37a2.43 2.43 0 00-2.35.77l-8.5 9.63a7.06 7.06 0 00-1.77 4.76l.19 22.67a6.86 6.86 0 01-1.47 4.34l-3.35 4.37a2.32 2.32 0 01-1.83.9h-37.03a6.27 6.27 0 01-6.12-4.93l-1.17-5.35a6.27 6.27 0 00-6.12-4.92h-28.76a6.27 6.27 0 00-6.12 4.92l-1.17 5.35a6.27 6.27 0 01-6.12 4.93h-37.07a2.32 2.32 0 01-1.83-.9l-3.31-4.37a6.86 6.86 0 01-1.43-4.29l.19-22.67a7.06 7.06 0 00-1.77-4.76l-8.5-9.63a2.43 2.43 0 00-2.35-.77l-47.42 10.32a6.45 6.45 0 00-4.71 4.18l-2.17 6.24a6.89 6.89 0 01-7.38 4.56l-25.17-3.27a8.46 8.46 0 01-7.29-9.91l8.26-45.19a8.46 8.46 0 019.53-6.91l23.75 3.38a5.57 5.57 0 014.66 6.59l-.52 2.62c-.39 3 2.11 4.21 5 4.82l2 .41a5.33 5.33 0 005.75-2.57c3.26-5.75 20.27-30.74 35.3-47.42s35.09-34.51 35.09-34.51a8.93 8.93 0 00-.62-13.22l-10.68-8.76a3.85 3.85 0 01-1.38-3.41c1.27-10.6 6.6-33.31 19.86-79.08 15.5-53.5 29.72-81.15 29.72-81.15a7.4 7.4 0 017-4.85h10.66a7.4 7.4 0 017 4.85s14.12 27.67 29.62 81.17c13.26 45.77 18.59 68.48 19.86 79.08a3.85 3.85 0 01-1.38 3.41l-10.68 8.74a8.93 8.93 0 00-.64 13.24s20.06 17.83 35.09 34.51 32 41.67 35.3 47.42a5.33 5.33 0 005.75 2.57l2-.41c2.92-.61 5.42-1.86 5-4.82l-.52-2.62a5.57 5.57 0 014.66-6.59l23.75-3.38a8.46 8.46 0 019.53 6.91l8.28 45.17a8.46 8.46 0 01-7.29 9.92z"/></g>
		</symbol>
		<symbol id="shape-icon-profiles-2" viewBox="0 0 467 364">
			<rect id="backgroundrect" width="100%" height="100%" x="0" y="0" fill="none" stroke="none"/><style>.st0{fill:#3b4652}.st1{fill:#2b79c2}</style><style media="screen"/><g class="currentLayer"><g id="svg_1" stroke="#000" stroke-dasharray="none" stroke-opacity="1" class="selected" filter="url(#f166)" opacity="1"><path id="svg_2" stroke="#000" stroke-dasharray="none" d="M445.05 305.135H24.242c-14.28 0-17.194 11.157-17.194 25.006v1.923c0 13.85 2.914 25.006 17.194 25.006h420.806c14.28 0 14.668-11.156 14.668-25.006v-1.923c0-13.753-.388-25.006-14.668-25.006z" class="st0" filter="url(#f166)" opacity="1"/><path id="svg_3" stroke="#000" stroke-dasharray="none" d="M329.162 291.67c-5.634-13.368-8.742-28.083-9.325-43.374-1.263-.193-2.526-.385-3.691-.481-43.519-5.963-103.162-14.138-154.257-62.034-21.954-20.581-30.599-50.203-36.622-79.152-.777-3.655 1.652-7.213 5.246-7.983 3.691-.77 7.285 1.54 8.062 5.194 5.635 26.737 13.503 54.05 32.64 72.035 47.889 45.01 105.104 52.8 146.776 58.475l2.04.289c.777-11.734 3.012-23.563 6.703-35.393 2.04-6.348 4.468-12.599 7.382-18.562-10.88-1.539-22.147-2.981-33.61-4.905 0 .192-.097.289-.097.481l-6.994 27.602c-.777 3.078-3.594 5.098-6.605 5.098-.583 0-1.069-.096-1.652-.193-3.69-.961-5.828-4.616-4.954-8.175l6.994-27.313c-7.868-1.635-15.64-3.655-23.41-6.252-.097.192-.195.481-.292.673l-11.074 22.794a6.828 6.828 0 01-6.12 3.847c-.97 0-2.04-.192-2.913-.673-3.4-1.635-4.857-5.675-3.206-8.945l10.782-22.216c-7.965-3.366-15.833-7.406-23.41-12.407l-.097.096-13.6 18.081c-1.36 1.732-3.4 2.693-5.44 2.693-1.457 0-2.817-.48-4.08-1.346-3.01-2.212-3.69-6.444-1.36-9.425l13.6-18.081.097-.097c-2.331-1.923-4.76-3.943-6.994-6.155-1.457-1.346-2.817-3.077-4.08-5.193l-19.427 15.1c-1.263.961-2.72 1.442-4.177 1.442-2.04 0-3.983-.866-5.343-2.597-2.331-2.885-1.846-7.117 1.166-9.425l20.496-15.869c.583-.385 1.166-.77 1.749-.962-1.943-5.578-3.692-11.83-5.149-18.37l-29.919 7.406c-.583.096-1.068.193-1.651.193-3.011 0-5.828-2.02-6.606-5.098-.874-3.654 1.263-7.213 4.955-8.175l30.113-7.405c.097 0 .194 0 .291-.096a359.72 359.72 0 01-2.331-12.792H35.219v14.523c0 28.853-3.302 57.609-9.908 85.692-5.245 22.41-10.782 59.725-11.462 118.97 3.205-1.058 6.605-1.54 10.297-1.54h305.016zM88.16 203.767c17.194 0 31.085 13.753 31.085 30.776S105.354 265.32 88.16 265.32s-31.084-13.754-31.084-30.777 13.89-30.776 31.084-30.776z" class="st0" filter="url(#f166)" opacity="1"/><path id="svg_4" stroke="#000" stroke-dasharray="none" d="M344.025 291.67h100.927c4.08 0 7.48.578 10.394 1.636 5.828-24.333 13.114-79.249-33.513-96.85-16.416-6.25-43.033-8.27-73.729-13.464-3.302 6.444-6.12 13.273-8.45 20.486-10.006 31.545-7.577 63.476 4.37 88.193z" class="st1" filter="url(#f166)" opacity="1" /><path id="svg_5" stroke="#000" stroke-dasharray="none" d="M18.026 6.606h184.37v53.858H18.026z" class="st1" filter="url(#f166)" opacity="1"/></g></g><defs><filter xmlns:inkscape="http://www.inkscape.org/namespaces/inkscape" id="f166" color-interpolation-filters="sRGB"><feGaussianBlur in="SourceAlpha" result="result0" stdDeviation="2"/><feComposite in="SourceGraphic" in2="result0" k2="1" k3="10" operator="arithmetic" result="result3"/><feComposite in="result3" in2="result3" k2="1" operator="in" result="result4"/></filter></defs>
		</symbol>
	</defs>
</svg>