<svg xmlns="http://www.w3.org/2000/svg">
	<defs>
		<symbol id="shape-icon-flag-fr" viewBox="0 0 512 512">
			<path fill="#5055a0" d="M170.667 90.839H16.516l-6.032 16.516v289.796c0 9.121 7.395 16.516 16.516 16.516h143.667l19.269-17.283V115.616z"/><path fill="#e5646e" d="M341.333 413.5h154.151L512 404.645v-297.29c0-9.121-7.395-16.516-16.516-16.516H341.333l-19.269 24.778v280.768z"/><path fill="#db4655" d="M512 404.645H328.489l12.844 16.516h154.151c9.121 0 16.516-7.394 16.516-16.516z"/><path fill="#3f3f8f" d="M16.516 355.097V90.839C7.395 90.839 0 98.233 0 107.355v297.29c0 9.122 7.395 16.516 16.516 16.516h154.151l12.844-16.516H66.065c-27.365 0-49.549-22.183-49.549-49.548z"/><path fill="#f2f2f6" d="M187.333 413.667h141l13-9.022V90.839H170.667v313.806z"/><path fill="#e1e1e6" d="M170.667 404.645h170.666v16.516H170.667z"/>
		</symbol>
		<symbol id="shape-icon-flag-en" viewBox="0 0 512.002 512.002">
			<path fill="#41479b" d="M503.172 423.725H8.828A8.829 8.829 0 010 414.897V97.104a8.829 8.829 0 018.828-8.828h494.345a8.829 8.829 0 018.828 8.828v317.793a8.83 8.83 0 01-8.829 8.828z"/><path fill="#f5f5f5" d="M512 97.104a8.829 8.829 0 00-8.828-8.828h-39.495l-163.54 107.147V88.276h-88.276v107.147L48.322 88.276H8.828A8.829 8.829 0 000 97.104v22.831l140.309 91.927H0v88.276h140.309L0 392.066v22.831a8.829 8.829 0 008.828 8.828h39.495l163.54-107.147v107.147h88.276V316.578l163.54 107.147h39.495a8.829 8.829 0 008.828-8.828v-22.831l-140.309-91.927H512v-88.276H371.691L512 119.935V97.104z"/><g fill="#ff4b55"><path d="M512 229.518H282.483V88.276h-52.966v141.242H0v52.965h229.517v141.242h52.966V282.483H512z"/><path d="M178.948 300.138L.25 416.135c.625 4.263 4.14 7.59 8.577 7.59h12.159l190.39-123.586h-32.428v-.001zM346.388 300.138H313.96l190.113 123.404c4.431-.472 7.928-4.09 7.928-8.646v-7.258l-165.613-107.5zM0 106.849l161.779 105.014h32.428L5.143 89.137C2.123 90.54 0 93.555 0 97.104v9.745zM332.566 211.863L511.693 95.586c-.744-4.122-4.184-7.309-8.521-7.309h-12.647L300.138 211.863h32.428z"/></g>
		</symbol>
		<symbol id="shape-icon-flag-ru" viewBox="0 0 512 512">
			<path fill="#f2f2f6" d="M512 200.946v-93.591c0-9.122-7.395-16.516-16.516-16.516H16.516l-8.849 16.516v93.591l17.104 22.022h462.456z"/><path fill="#e1e1e6" d="M0 107.355v93.591l16.516 14.683V90.839C7.395 90.839 0 98.233 0 107.355z"/><path fill="#e5646e" d="M7.817 311.054v86.43c0 9.122 7.395 16.516 16.516 16.516h471.151L512 404.645v-93.591l-24.77-22.022H24.774z"/><path fill="#db4655" d="M16.516 355.097v-58.724L0 311.054v93.591c0 9.122 7.395 16.516 16.516 16.516h478.968c9.121 0 16.516-7.394 16.516-16.516H66.065c-27.365 0-49.549-22.183-49.549-49.548z"/><path fill="#5055a0" d="M8.667 297l7.849 14.053H512V200.946H16.516l-7.849 17.387z"/><path fill="#3f3f8f" d="M0 200.946h16.516v110.107H0z"/>
		</symbol>
		<symbol id="shape-icon-flag-de" viewBox="0 0 512 512">
			<path fill="#5d5360" d="M512 200.946v-93.591c0-9.122-7.395-16.516-16.516-16.516H16.516l-8.849 16.516v93.591l17.104 22.022h462.456z"/><path fill="#4b3f4e" d="M0 107.355v93.591l16.516 14.683V90.839C7.395 90.839 0 98.233 0 107.355z"/><path fill="#ffe07d" d="M7.817 311.054v86.43c0 9.122 7.395 16.516 16.516 16.516h471.151L512 404.645v-93.591l-24.77-22.022H24.774z"/><path fill="#ffd064" d="M16.516 355.097v-58.724L0 311.054v93.591c0 9.122 7.395 16.516 16.516 16.516h478.968c9.121 0 16.516-7.394 16.516-16.516H66.065c-27.365 0-49.549-22.183-49.549-49.548z"/><path fill="#e5646e" d="M8.667 297l7.849 14.053H512V200.946H16.516l-7.849 17.387z"/><path fill="#db4655" d="M0 200.946h16.516v110.107H0z"/>
		</symbol>
		<symbol id="shape-icon-flag-es" viewBox="0 0 512 512">
			<path fill="#e5646e" d="M495.484 90.839H16.516l-8.849 16.516v291.129c0 9.122 7.395 16.516 16.516 16.516h471.301L512 404.645v-49.548L497 337V171l15-14.097v-49.548c0-9.122-7.395-16.516-16.516-16.516z"/><path fill="#db4655" d="M16.516 355.097V90.839C7.395 90.839 0 98.233 0 107.355v49.548L7.5 168.5V342L0 355.097v49.548c0 9.122 7.395 16.516 16.516 16.516h478.968c9.121 0 16.516-7.395 16.516-16.516H66.065c-27.365 0-49.549-22.183-49.549-49.548z"/><path fill="#ffe07d" d="M512 355.097H16.516L8.5 339.5V177l8.016-20.097H512z"/><path fill="#db4655" d="M148.645 189.935c-9.121 0-16.516 7.394-16.516 16.516v24.774h33.032v-24.774c0-9.121-7.394-16.516-16.516-16.516z"/><path fill="#e5646e" d="M148.645 313.806l-41.29-49.548v-33.032a8.258 8.258 0 018.258-8.258h33.032l41.29 41.29v8.258c0 22.804-18.486 41.29-41.29 41.29z"/><path fill="#fff" d="M66.065 222.968h16.516v82.581H66.065z"/><path fill="#ffd064" d="M0 156.903h16.516v198.194H0z"/><circle cx="74.323" cy="222.968" r="8.258" fill="#e5646e"/><circle cx="74.323" cy="305.548" r="8.258" fill="#5055a0"/><path fill="#fff" d="M214.71 222.968h16.516v82.581H214.71z"/><circle cx="222.968" cy="222.968" r="8.258" fill="#e5646e"/><circle cx="222.968" cy="305.548" r="8.258" fill="#5055a0"/><path fill="#fff" d="M181.677 222.968h-33.032v41.29h41.29v-33.032a8.258 8.258 0 00-8.258-8.258z"/><path fill="#ffc269" d="M107.355 264.258v8.258c0 22.804 18.486 41.29 41.29 41.29v-49.548z"/><circle cx="148.645" cy="264.258" r="16.516" fill="#5055a0"/>
		</symbol>
		<symbol id="shape-icon-flag-pt" viewBox="0 0 4200 2940">
			<rect width="100%" height="100%" fill="none"/><g class="currentLayer"><path fill="#009b3a" d="M1.858-.431h4198.161v2940.464H1.858z" color="#000"/><path fill="#fedf00" d="M357 1470l1743 1113 1743-1113L2100 357z"/><circle cx="2100" cy="1470" r="735" fill="#002776"/></g>
		</symbol>
		<symbol id="shape-icon-flag-jp" viewBox="0 0 900 600">
			<rect fill="#fff" height="600" width="900"/>
			<circle fill="#bc002d" cx="450" cy="300" r="180"/>
		</symbol>
		<symbol id="shape-icon-flag-it" viewBox="0 0 3 2">
			<path fill="#009246" d="M0 0h1v2H0z"/><path fill="#fff" d="M1 0h1v2H1z"/><path fill="#ce2b37" d="M2 0h1v2H2z"/>
		</symbol>
		<symbol id="shape-icon-flag-dn" viewBox="0 0 37 28">
			<path fill="#c60c30" d="M0,0H37V28H0Z"/><path fill="#fff" d="M0,12H12V0H16V12H37V16H16V28H12V16H0Z"/>
		</symbol>
		<symbol id="shape-icon-flag-pl" viewBox="0 0 16 10">
			<path fill="#fff" d="M0 0h16v10H0z"/><path fill="#dc143c" d="M0 5h16v5H0z"/>
		</symbol>
		<symbol id="shape-icon-flag-ch" viewBox="0 0 4200 2940">
			<rect width="100%" height="100%" fill="none"/><g class="currentLayer"><path fill="#d50b0b" d="M8.525-.431h4198.161v2940.464H8.525z" class="selected" color="#000"/><path fill="#fedf00" d="M225.538 461.625h251.966l77.859-239.366 77.86 239.366h251.964L681.344 609.56l77.863 239.366-203.844-147.94-203.844 147.94 77.863-239.366-203.844-147.935zm844.817-329.231l77.816 20.279 43.31-67.658 4.78 80.19 77.816 20.28-74.86 29.28 4.782 80.192-51.047-62.095-74.86 29.283 43.31-67.658-51.047-62.093zm203.068 256.482l65.96 45.996 64.08-48.449-23.315 76.876 65.96 45.997-80.368 1.515-23.313 76.876-26.357-75.94-80.37 1.516 64.08-48.448-26.357-75.94zm-25.756 362.634h80.414l24.849-76.394 24.849 76.393h80.414l-65.057 47.213 24.85 76.394-65.056-47.215-65.057 47.215 24.85-76.394-65.056-47.213zm-218.942 189.507l72.246 35.312 55.87-57.723-11.22 79.546 72.246 35.312-79.18 13.85-11.22 79.546-37.716-70.987-79.182 13.851 55.872-57.722-37.716-70.985z" color="#009b3a"/></g>
		</symbol>
		<symbol id="shape-icon-flag-du" viewBox="0 0 15 3.3">
			<rect y="6.666" fill="#21468B" width="15" height="3.3333"/>
			<rect y="3.3333" fill="#FFFFFF" width="15" height="3.3333"/>
			<rect y="0" fill="#AE1C28" width="15" height="3.3333"/>
		</symbol>
		<symbol id="shape-icon-flag-se" viewBox="0 0 16 10">
			<path fill="#006aa7" d="M0 0h16v10H0z"/><path fill="#fecc00" d="M5 0h2v10H5z"/><path fill="#fecc00" d="M0 4h16v2H0z"/>
		</symbol>
		<symbol id="shape-icon-langues" viewBox="0 0 60 42">
			<rect width="100%" height="100%" fill="none"/><g class="currentLayer"><path fill="#3B97D3" d="M34 9H5c-2.2 0-4 1.8-4 4v18c0 2.2 1.8 4 4 4h4v6l8-6h13.3c2.2 0 4.5-2.3 4.5-4.5"/><path fill="#FFD766" d="M24 23V5c0-2.2 1.8-4 4-4h27c2.2 0 4 1.8 4 4v18c0 2.2-1.8 4-4 4h-5v6l-8.7-6H28c-2.2 0-4-1.8-4-4z"/><path fill="none" stroke="#2C3E50" stroke-linecap="round" stroke-linejoin="round" stroke-miterlimit="10" stroke-width="2" d="M24 23V5c0-2.2 1.8-4 4-4h27c2.2 0 4 1.8 4 4v18c0 2.2-1.8 4-4 4h-5v6l-8.7-6H28c-2.2 0-4-1.8-4-4z"/><path fill="none" stroke="#2C3E50" stroke-linecap="round" stroke-linejoin="round" stroke-miterlimit="10" stroke-width="2" d="M20 9H5c-2.2 0-4 1.8-4 4v18c0 2.2 1.8 4 4 4h4v6l8-6h13.3c2.2 0 4.5-2.3 4.5-4.5M32 10h8.1s-2.5 6.5-7.8 8m3.7 4v-5.8l3.5 1M36 10V7m7 3h8v6h-8zm0 3h8m-7 7h6M42.6 7l2.1 3"/><path fill="none" stroke="#2C3E50" stroke-linecap="round" stroke-linejoin="round" stroke-miterlimit="10" stroke-width="2" d="M46 7l1 3v12m4-15l-1.7 3M7.9 26.1l2.4-8.1 2.4 8.1m-4.1-2.4h3.3M16 26v-8h2c.6 0 1.9.1 1.9 1.3s-.8 1.7-1.8 1.7H16h2.4s2.4-.1 2.4 2.7c0 2.1-1 2.3-2.4 2.3H16z"/></g>
		</symbol>
		<symbol id="shape-icon-reseaux-youtube" viewBox="0 0 512 512">
			<path fill="#DD2C28" d="M255.7 446.3c-53.3.3-106.6-.4-159.8-3.3-17.3-1-34.6-2.5-50.3-11-10.5-5.7-18.6-13.6-23.7-24.8C13.3 388.6 10.6 369 9 349c-3.4-41.3-3.6-82.6-1.8-123.8.9-21.9 1.6-44 6.8-65.5 2-8.4 4.9-16.6 8.8-24.4C32 117 48 107.9 67.3 104.1c16.2-3.2 32.8-3.1 49.3-3.8 55.9-2.3 111.9-3.5 167.9-2.9 43.1.5 86.3 1.6 129.4 3.8 13.3.7 26.7.9 39.4 5.6 17.2 6.4 30 17.2 36.9 34.7 6.7 16.8 9.3 34.2 10.7 52.1 3.9 48.6 4 97.2.8 145.8-1.1 16.4-2.2 32.8-6.5 48.9-9.7 37-32.8 51.5-66.7 53.8-36.2 2.4-72.5 3.7-108.8 4.2-21.3.2-42.7 0-64 0zM203.2 344c48.4-26.5 96.2-52.7 144.8-79.3-48.7-26.7-96.5-52.8-144.8-79.3V344z"/><path fill="#FEFDFD" d="M203.2 344V185.5c48.3 26.4 96.1 52.6 144.8 79.3-48.6 26.6-96.4 52.7-144.8 79.2z"/>
		</symbol>
		<symbol id="shape-icon-reseaux-discord" viewBox="0 0 250 250">
			<g fill="none" fill-rule="evenodd"><rect width="250" height="250" fill="#6F85D5" rx="32"/><path fill="#000" fill-opacity=".25" d="M250 208v10c0 17.673-14.327 32-32 32H32c-17.673 0-32-14.327-32-32v-10c0 17.673 14.327 32 32 32h186c17.673 0 32-14.327 32-32z"/><path fill="#000" d="M250 163.69v44.464c0 17.673-14.327 32-32 32h-93.405l-72.529-80.287c5.374-24.847 20.552-42.946 45.536-54.297 21.059-9.567 40.417-8.823 66.503-7.132 11.435.742 17.193-3.348 17.272-12.27L250 163.689z" opacity=".155"/><path fill="#F7F8F7" fill-rule="nonzero" d="M160.488 178.001s-4.53-5.375-8.306-10.125c16.487-4.625 22.78-14.875 22.78-14.875-5.16 3.375-10.069 5.75-14.474 7.375-6.293 2.625-12.334 4.375-18.25 5.375-12.081 2.25-23.157 1.625-32.596-.125-7.174-1.375-13.34-3.375-18.5-5.375-2.895-1.125-6.042-2.5-9.188-4.25-.378-.25-.755-.375-1.133-.625-.252-.125-.378-.25-.503-.375-2.266-1.25-3.524-2.125-3.524-2.125s6.04 10 22.024 14.75c-3.775 4.75-8.432 10.375-8.432 10.375-27.814-.875-38.386-19-38.386-19 0-40.25 18.123-72.875 18.123-72.875 18.124-13.5 35.366-13.125 35.366-13.125l1.258 1.5c-22.654 6.5-33.1 16.375-33.1 16.375s2.77-1.5 7.426-3.625c13.466-5.875 24.164-7.5 28.57-7.875.754-.125 1.384-.25 2.139-.25 7.677-1 16.361-1.25 25.423-.25 11.956 1.375 24.793 4.875 37.882 12 0 0-9.942-9.375-31.338-15.875l1.762-2s17.242-.375 35.366 13.125c0 0 18.123 32.625 18.123 72.875 0 0-10.698 18.125-38.512 19zm-58.22-56.25c-7.02 0-12.563 5.856-12.563 13s5.666 13 12.563 13c7.02 0 12.562-5.856 12.562-13 .124-7.144-5.542-13-12.562-13zm44.954 0c-7.02 0-12.563 5.856-12.563 13s5.666 13 12.563 13c7.02 0 12.562-5.856 12.562-13s-5.542-13-12.562-13z"/></g>
		</symbol>
		<symbol id="shape-icon-reseaux-patreon" viewBox="0 0 180 180">
			<path fill="#f96753" d="M108.814 26.067c-26.469 0-48.003 21.53-48.003 47.998 0 26.386 21.534 47.854 48.003 47.854 26.386 0 47.853-21.468 47.853-47.854 0-26.467-21.467-47.998-47.853-47.998"/><path fill="#052a49" d="M23.333 153.933V26.067H46.8v127.866z"/>
		</symbol>
		<symbol id="shape-icon-reseaux-share" viewBox="2 3 20 20">
			<polygon points="15.985 18.857 4.557 12 15.985 5.143 17.015 6.857 8.443 12 17.015 17.143 15.985 18.857" style="fill:#4286c9"/><circle cx="16.5" cy="6.5" r="3.5" style="fill:#4c9ae8"/><circle cx="6.5" cy="12" r="3.5" style="fill:#4c9ae8"/><circle cx="16.5" cy="17.5" r="3.5" style="fill:#4c9ae8"/>
		</symbol>		
		<symbol id="shape-icon-profiles-1" viewBox="0 0 356 345">
			<rect width="100%" height="100%" fill="none"/><g class="currentLayer"><path fill="#0f4c05" stroke="#43cc2f" stroke-linecap="round" stroke-linejoin="round" stroke-width="5" d="M348.846 319.17l-25.17 3.27a6.89 6.89 0 01-7.38-4.56l-2.16-6.25a6.45 6.45 0 00-4.71-4.18l-47.39-10.37a2.43 2.43 0 00-2.35.77l-8.5 9.63a7.06 7.06 0 00-1.77 4.76l.19 22.67a6.86 6.86 0 01-1.47 4.34l-3.35 4.37a2.32 2.32 0 01-1.83.9h-37.03a6.27 6.27 0 01-6.12-4.93l-1.17-5.35a6.27 6.27 0 00-6.12-4.92h-28.76a6.27 6.27 0 00-6.12 4.92l-1.17 5.35a6.27 6.27 0 01-6.12 4.93h-37.07a2.32 2.32 0 01-1.83-.9l-3.31-4.37a6.86 6.86 0 01-1.43-4.29l.19-22.67a7.06 7.06 0 00-1.77-4.76l-8.5-9.63a2.43 2.43 0 00-2.35-.77l-47.42 10.32a6.45 6.45 0 00-4.71 4.18l-2.17 6.24a6.89 6.89 0 01-7.38 4.56l-25.17-3.27a8.46 8.46 0 01-7.29-9.91l8.26-45.19a8.46 8.46 0 019.53-6.91l23.75 3.38a5.57 5.57 0 014.66 6.59l-.52 2.62c-.39 3 2.11 4.21 5 4.82l2 .41a5.33 5.33 0 005.75-2.57c3.26-5.75 20.27-30.74 35.3-47.42s35.09-34.51 35.09-34.51a8.93 8.93 0 00-.62-13.22l-10.68-8.76a3.85 3.85 0 01-1.38-3.41c1.27-10.6 6.6-33.31 19.86-79.08 15.5-53.5 29.72-81.15 29.72-81.15a7.4 7.4 0 017-4.85h10.66a7.4 7.4 0 017 4.85s14.12 27.67 29.62 81.17c13.26 45.77 18.59 68.48 19.86 79.08a3.85 3.85 0 01-1.38 3.41l-10.68 8.74a8.93 8.93 0 00-.64 13.24s20.06 17.83 35.09 34.51 32 41.67 35.3 47.42a5.33 5.33 0 005.75 2.57l2-.41c2.92-.61 5.42-1.86 5-4.82l-.52-2.62a5.57 5.57 0 014.66-6.59l23.75-3.38a8.46 8.46 0 019.53 6.91l8.28 45.17a8.46 8.46 0 01-7.29 9.92z"/></g>
		</symbol>
		<symbol id="shape-icon-profiles-2" viewBox="0 0 472 370">
			<rect width="100%" height="100%" fill="none"/><g stroke="#000" stroke-width="6" class="currentLayer"><path fill="#3b4652" d="M453.9 313.4H20.7C6 313.4 3 325 3 339.4v2c0 14.4 3 26 17.7 26h433.2c14.7 0 15.1-11.6 15.1-26v-2c0-14.3-.4-26-15.1-26zm-119.3-14c-5.8-13.9-9-29.2-9.6-45.1-1.3-.2-2.6-.4-3.8-.5-44.8-6.2-106.2-14.7-158.8-64.5-22.6-21.4-31.5-52.2-37.7-82.3-.8-3.8 1.7-7.5 5.4-8.3 3.8-.8 7.5 1.6 8.3 5.4 5.8 27.8 13.9 56.2 33.6 74.9 49.3 46.8 108.2 54.9 151.1 60.8l2.1.3c.8-12.2 3.1-24.5 6.9-36.8 2.1-6.6 4.6-13.1 7.6-19.3-11.2-1.6-22.8-3.1-34.6-5.1 0 .2-.1.3-.1.5l-7.2 28.7c-.8 3.2-3.7 5.3-6.8 5.3-.6 0-1.1-.1-1.7-.2-3.8-1-6-4.8-5.1-8.5l7.2-28.4c-8.1-1.7-16.1-3.8-24.1-6.5-.1.2-.2.5-.3.7l-11.4 23.7c-1.2 2.5-3.7 4-6.3 4-1 0-2.1-.2-3-.7-3.5-1.7-5-5.9-3.3-9.3l11.1-23.1c-8.2-3.5-16.3-7.7-24.1-12.9l-.1.1-14 18.8c-1.4 1.8-3.5 2.8-5.6 2.8-1.5 0-2.9-.5-4.2-1.4-3.1-2.3-3.8-6.7-1.4-9.8l14-18.8.1-.1c-2.4-2-4.9-4.1-7.2-6.4-1.5-1.4-2.9-3.2-4.2-5.4l-20 15.7c-1.3 1-2.8 1.5-4.3 1.5-2.1 0-4.1-.9-5.5-2.7-2.4-3-1.9-7.4 1.2-9.8l21.1-16.5c.6-.4 1.2-.8 1.8-1-2-5.8-3.8-12.3-5.3-19.1l-30.8 7.7c-.6.1-1.1.2-1.7.2-3.1 0-6-2.1-6.8-5.3-.9-3.8 1.3-7.5 5.1-8.5l31-7.7c.1 0 .2 0 .3-.1-.9-4.5-1.7-9-2.4-13.3H32v15.1c0 30-3.4 59.9-10.2 89.1C16.4 200.6 10.7 239.4 10 301c3.3-1.1 6.8-1.6 10.6-1.6h314zM86.5 208c17.7 0 32 14.3 32 32s-14.3 32-32 32-32-14.3-32-32 14.3-32 32-32z"/><path fill="#2b79c2" d="M349.9 299.4h103.9c4.2 0 7.7.6 10.7 1.7 6-25.3 13.5-82.4-34.5-100.7-16.9-6.5-44.3-8.6-75.9-14-3.4 6.7-6.3 13.8-8.7 21.3-10.3 32.8-7.8 66 4.5 91.7zM14.3 3h189.8v56H14.3z"/></g>
		</symbol>
		<symbol id="shape-icon-parametres" viewBox="0 0 91 91">
			<path fill="#FDE497" d="M76.89 45.018c0-1.587-.151-3.138-.383-4.66l11.227-6.48-11.639-20.136-11.616 6.47C62.058 18.281 59 16.706 56 15.548V4H34v11.548c-4 1.112-5.649 2.617-8.005 4.448l-11.251-6.604L2.83 33.398l11.12 6.604c-.262 1.643-.45 3.308-.45 5.016 0 1.587.153 3.136.376 4.658L2.648 56.16l11.634 20.135 11.424-6.472C28.137 71.756 30 73.329 34 74.488V87h22V74.488c3-1.115 5.839-2.618 8.19-4.449l11.348 6.604 11.96-20.006-11.095-6.603c.258-1.64.487-3.304.487-5.016zM45.186 59.155c-7.799 0-14.138-6.332-14.138-14.138 0-7.808 6.339-14.136 14.138-14.136 7.81 0 14.14 6.328 14.14 14.136-.001 7.806-6.331 14.138-14.14 14.138z"/><path fill="#454B53" d="M56.5 89h-22a2.5 2.5 0 01-2.5-2.5V76.301c-2.612-.955-4.464-2.126-6.274-3.49l-10.229 5.671a2.501 2.501 0 01-3.377-.936L.487 57.411a2.5 2.5 0 01.915-3.416l9.794-5.654a32.043 32.043 0 01-.181-3.323c0-1.317.112-2.592.254-3.721l-9.656-5.75A2.506 2.506 0 01.468 34.01a2.494 2.494 0 01.279-1.896l11.977-20.006a2.5 2.5 0 013.399-.878l9.927 5.762c1.618-1.213 3.362-2.346 5.949-3.273V3.5A2.501 2.501 0 0134.5 1h22A2.5 2.5 0 0159 3.5v10.377a33.645 33.645 0 015.919 3.35l9.939-5.657a2.501 2.501 0 013.4.922l11.639 20.135a2.497 2.497 0 01-.914 3.416l-9.781 5.646c.126 1.165.188 2.266.188 3.329 0 1.327-.108 2.597-.246 3.717l9.692 5.752a2.503 2.503 0 01.873 3.429L77.812 77.921a2.5 2.5 0 01-3.416.876l-9.798-5.765A31.713 31.713 0 0159 76.176V86.5a2.5 2.5 0 01-2.5 2.5zM37 84h17v-9.512a2.5 2.5 0 011.629-2.344c2.624-.975 5.004-2.309 7.275-4.078a2.502 2.502 0 012.804-.182l9.078 5.341 9.347-15.716-8.974-5.325a2.498 2.498 0 01-1.194-2.538c.198-1.259.425-2.923.425-4.629 0-1.314-.116-2.716-.354-4.284a2.5 2.5 0 011.222-2.541l9.061-5.23-9.145-15.818-9.208 5.241a2.499 2.499 0 01-2.795-.219c-2.199-1.754-4.747-3.196-7.57-4.286a2.5 2.5 0 01-1.6-2.332V6H37v9.548a2.499 2.499 0 01-1.83 2.408c-3.47.965-5.073 2.212-7.293 3.938l-.098.076a2.5 2.5 0 01-2.789.188l-9.243-5.365-9.423 15.739 8.937 5.321a2.5 2.5 0 011.189 2.542c-.202 1.27-.435 2.943-.435 4.622 0 1.318.112 2.724.342 4.297a2.499 2.499 0 01-1.224 2.526l-9.065 5.234 9.151 15.842 9.525-5.28a2.5 2.5 0 012.768.229c2.384 1.896 4.207 3.214 7.684 4.221A2.501 2.501 0 0137 74.488V84zm8.186-22.345c-9.174 0-16.638-7.464-16.638-16.638 0-9.173 7.464-16.636 16.638-16.636 9.175 0 16.64 7.463 16.64 16.636-.001 9.174-7.466 16.638-16.64 16.638zm0-28.273c-6.417 0-11.638 5.22-11.638 11.636 0 6.417 5.221 11.638 11.638 11.638 6.418 0 11.64-5.221 11.64-11.638-.001-6.416-5.222-11.636-11.64-11.636z"/>
		</symbol>
		<symbol id="shape-icon-cookie" viewBox="0 0 512 512">
			<g fill="none" fill-rule="evenodd"><path fill="#B4814A" d="M486.301 273.46c-29.412 0-53.256-24.015-53.256-53.637 0-9.332 2.37-18.11 6.535-25.749a66.281 66.281 0 01-19.851 3.031c-36.759 0-66.564-30.018-66.564-67.039 0-1.37.123-2.708.205-4.055-7.076 2.577-14.669 4.055-22.622 4.055-36.759 0-66.564-30.018-66.564-67.047 0-7.622 1.336-14.906 3.673-21.719-3.952.86-8.044 1.346-12.258 1.346-21.795 0-40.76-12.238-50.477-30.257C94.962 35.957 12.294 134.468 12.294 252.442c0 135.565 109.12 245.463 243.723 245.463 128.093 0 233.031-99.56 242.887-226.015-4.05.983-8.257 1.57-12.603 1.57"/><path fill="#513A2B" d="M267.867 301.62c0 31.72-25.525 57.427-57.02 57.427-31.494 0-57.02-25.707-57.02-57.426 0-31.72 25.526-57.427 57.02-57.427 31.495 0 57.02 25.708 57.02 57.427"/><path fill="#2E2E30" d="M210.85 256.58c-24.665 0-44.72 20.207-44.72 45.04 0 24.831 20.055 45.039 44.72 45.039 24.664 0 44.72-20.208 44.72-45.04s-20.056-45.04-44.72-45.04m0 114.854c-38.218 0-69.32-31.315-69.32-69.814 0-38.499 31.102-69.813 69.32-69.813 38.218 0 69.319 31.314 69.319 69.813 0 38.5-31.101 69.814-69.32 69.814"/><path fill="#513A2B" d="M12.322 253.453c6.871 5.533 15.465 8.977 24.943 8.977 22.188 0 40.17-18.118 40.17-40.465 0-22.346-17.982-40.456-40.17-40.456a39.756 39.756 0 00-15.472 3.13c-6.142 21.545-9.495 44.271-9.495 67.807 0 .338.024.669.024 1.007M214.71 121.62c0 17.392-13.996 31.489-31.264 31.489s-31.265-14.097-31.265-31.488c0-17.392 13.997-31.488 31.265-31.488s31.265 14.096 31.265 31.488"/><path fill="#2E2E30" d="M183.448 102.52c-10.454 0-18.965 8.572-18.965 19.1 0 10.53 8.511 19.102 18.965 19.102 10.455 0 18.966-8.572 18.966-19.101 0-10.53-8.511-19.101-18.966-19.101m0 62.976c-24.024 0-43.564-19.68-43.564-43.875 0-24.196 19.54-43.875 43.564-43.875 24.025 0 43.556 19.679 43.556 43.875s-19.53 43.875-43.556 43.875"/><path fill="#513A2B" d="M412.086 335.556c0 17.391-13.996 31.488-31.265 31.488-17.268 0-31.264-14.097-31.264-31.488 0-17.392 13.996-31.488 31.264-31.488 17.269 0 31.265 14.096 31.265 31.488"/><path fill="#2E2E30" d="M380.822 316.455c-10.454 0-18.965 8.572-18.965 19.1 0 10.53 8.51 19.102 18.965 19.102s18.966-8.572 18.966-19.101c0-10.53-8.511-19.101-18.966-19.101m0 62.976c-24.024 0-43.564-19.68-43.564-43.875 0-24.196 19.54-43.875 43.564-43.875 24.025 0 43.556 19.679 43.556 43.875s-19.531 43.875-43.556 43.875"/><path fill="#513A2B" d="M256.015 497.903c7.076 0 14.07-.355 21-.95.393-2.477.663-5.004.663-7.597 0-25.964-20.9-47.005-46.68-47.005-25.025 0-45.392 19.852-46.557 44.775 22.631 6.994 46.664 10.777 71.574 10.777"/><path fill="#010202" d="M486.301 273.46c-2.993 0-5.904-.306-8.757-.785-39.809 98.188-135.465 167.424-247.282 167.424-77.666 0-147.575-33.412-196.387-86.71 38.226 85.198 123.28 144.516 222.142 144.516 128.093 0 233.031-99.56 242.887-226.015-4.05.983-8.257 1.57-12.603 1.57" opacity=".2"/><path fill="#2E2E30" d="M289.62 482.989c-3.166-29.762-28.232-53.025-58.62-53.025-26.05 0-48.188 17.003-55.928 40.81C93.454 439.982 33.597 364.04 25.569 273.293c3.821.9 7.708 1.519 11.701 1.519 28.928 0 52.47-23.7 52.47-52.843 0-28.152-21.984-51.159-49.55-52.695C66.78 99.897 125.423 45.171 199.44 26.425c12.399 16.97 31.766 27.532 52.855 28.532a80.4 80.4 0 00-.418 8.06c0 43.8 35.39 79.434 78.871 79.434a76.04 76.04 0 0010.955-.793c5.682 38.912 39.44 68.517 79.855 67.815a65.215 65.215 0 00-.82 10.348c0 35.963 28.707 65.304 64.252 66.015-14.603 101.904-95.443 182.222-195.37 197.153m-33.61 2.527c-4.486 0-8.954-.166-13.407-.422-1.385-.082-2.747-.214-4.124-.313-3.108-.24-6.215-.52-9.307-.884-1.55-.182-3.099-.38-4.632-.595-3.01-.413-5.994-.891-8.979-1.428-1.451-.256-2.902-.496-4.346-.777a233.762 233.762 0 01-10.905-2.452c-.599-.149-1.214-.264-1.82-.421 4.591-13.725 17.44-23.486 32.51-23.486 17.589 0 32.135 13.378 34.136 30.563-3.034.124-6.068.215-9.126.215M37.27 193.89c15.366 0 27.87 12.594 27.87 28.078 0 15.475-12.504 28.069-27.87 28.069-4.969 0-9.142-1.371-12.438-3.097.114-4.682.213-9.373.598-13.997.041-.471.115-.942.156-1.412.5-5.55 1.222-11.05 2.115-16.5.18-1.098.361-2.205.55-3.303 1.041-5.839 2.255-11.62 3.722-17.317a27.59 27.59 0 015.297-.52m473.885 78.963a12.392 12.392 0 00-4.289-10.405 12.285 12.285 0 00-10.872-2.602c-3.305.81-6.568 1.223-9.692 1.223-22.59 0-40.965-18.498-40.965-41.25 0-6.911 1.738-13.75 5.026-19.786 2.411-4.426 1.92-9.893-1.262-13.799a12.25 12.25 0 00-13.177-3.989 53.952 53.952 0 01-16.194 2.478c-29.92 0-54.265-24.527-54.265-54.66 0-.744.058-1.479.107-2.205l.065-1.115a12.402 12.402 0 00-4.911-10.661 12.249 12.249 0 00-11.545-1.726c-6.043 2.205-12.242 3.32-18.433 3.32-29.92 0-54.272-24.519-54.272-54.66 0-5.922 1.008-11.867 3.009-17.673a12.495 12.495 0 00-2.427-12.271 12.262 12.262 0 00-11.824-3.882c-20.113 4.435-39.874-5.243-49.296-22.718-2.599-4.814-8.01-7.34-13.365-6.201C109.443 20.198 36.631 91.086 10.5 179.95c-.172.42-.394.825-.525 1.263-.353 1.239-.59 2.502-.927 3.75-1.098 4.046-2.132 8.125-3.033 12.238-.361 1.651-.656 3.303-.984 4.963a251.839 251.839 0 00-2.067 11.726c-.188 1.264-.41 2.527-.582 3.79A257.143 257.143 0 00.8 232.845c-.1 1.195-.165 2.393-.24 3.591-.336 5.31-.558 10.636-.558 16.004 0 .099.017.884.025 1.065v.033C.512 368.821 76.48 466.49 180.639 498.868c.066.026.123.075.189.1.746.231 1.517.38 2.263.603a247.157 247.157 0 0013.734 3.683c1.452.347 2.903.702 4.354 1.016 5.428 1.197 10.906 2.27 16.448 3.113.525.082 1.042.124 1.567.198 5.091.743 10.24 1.305 15.423 1.743 1.451.115 2.886.23 4.337.33 5.642.371 11.324.636 17.056.636 3.657 0 7.355-.1 11.15-.273 2.789-.124 5.544-.338 8.307-.553.877-.066 1.706-.09 2.6-.173.032 0 .065-.017.098-.025 122.813-10.835 223.208-110.757 232.99-236.412"/></g>
		</symbol>
	</defs>
</svg>