<svg xmlns="http://www.w3.org/2000/svg">
	<defs>
		<symbol id="shape-icon-flag-fr" viewBox="0 0 512 512">
			<path fill="#5055a0" d="M170.667 90.839H16.516l-6.032 16.516v289.796c0 9.121 7.395 16.516 16.516 16.516h143.667l19.269-17.283V115.616z"/><path fill="#e5646e" d="M341.333 413.5h154.151L512 404.645v-297.29c0-9.121-7.395-16.516-16.516-16.516H341.333l-19.269 24.778v280.768z"/><path fill="#db4655" d="M512 404.645H328.489l12.844 16.516h154.151c9.121 0 16.516-7.394 16.516-16.516z"/><path fill="#3f3f8f" d="M16.516 355.097V90.839C7.395 90.839 0 98.233 0 107.355v297.29c0 9.122 7.395 16.516 16.516 16.516h154.151l12.844-16.516H66.065c-27.365 0-49.549-22.183-49.549-49.548z"/><path fill="#f2f2f6" d="M187.333 413.667h141l13-9.022V90.839H170.667v313.806z"/><path fill="#e1e1e6" d="M170.667 404.645h170.666v16.516H170.667z"/>
		</symbol>
		<symbol id="shape-icon-flag-en" viewBox="0 0 512.002 512.002">
			<path fill="#41479b" d="M503.172 423.725H8.828A8.829 8.829 0 010 414.897V97.104a8.829 8.829 0 018.828-8.828h494.345a8.829 8.829 0 018.828 8.828v317.793a8.83 8.83 0 01-8.829 8.828z"/><path fill="#f5f5f5" d="M512 97.104a8.829 8.829 0 00-8.828-8.828h-39.495l-163.54 107.147V88.276h-88.276v107.147L48.322 88.276H8.828A8.829 8.829 0 000 97.104v22.831l140.309 91.927H0v88.276h140.309L0 392.066v22.831a8.829 8.829 0 008.828 8.828h39.495l163.54-107.147v107.147h88.276V316.578l163.54 107.147h39.495a8.829 8.829 0 008.828-8.828v-22.831l-140.309-91.927H512v-88.276H371.691L512 119.935V97.104z"/><g fill="#ff4b55"><path d="M512 229.518H282.483V88.276h-52.966v141.242H0v52.965h229.517v141.242h52.966V282.483H512z"/><path d="M178.948 300.138L.25 416.135c.625 4.263 4.14 7.59 8.577 7.59h12.159l190.39-123.586h-32.428v-.001zM346.388 300.138H313.96l190.113 123.404c4.431-.472 7.928-4.09 7.928-8.646v-7.258l-165.613-107.5zM0 106.849l161.779 105.014h32.428L5.143 89.137C2.123 90.54 0 93.555 0 97.104v9.745zM332.566 211.863L511.693 95.586c-.744-4.122-4.184-7.309-8.521-7.309h-12.647L300.138 211.863h32.428z"/></g>
		</symbol>
		<symbol id="shape-icon-flag-ru" viewBox="0 0 512 512">
			<path fill="#f2f2f6" d="M512 200.946v-93.591c0-9.122-7.395-16.516-16.516-16.516H16.516l-8.849 16.516v93.591l17.104 22.022h462.456z"/><path fill="#e1e1e6" d="M0 107.355v93.591l16.516 14.683V90.839C7.395 90.839 0 98.233 0 107.355z"/><path fill="#e5646e" d="M7.817 311.054v86.43c0 9.122 7.395 16.516 16.516 16.516h471.151L512 404.645v-93.591l-24.77-22.022H24.774z"/><path fill="#db4655" d="M16.516 355.097v-58.724L0 311.054v93.591c0 9.122 7.395 16.516 16.516 16.516h478.968c9.121 0 16.516-7.394 16.516-16.516H66.065c-27.365 0-49.549-22.183-49.549-49.548z"/><path fill="#5055a0" d="M8.667 297l7.849 14.053H512V200.946H16.516l-7.849 17.387z"/><path fill="#3f3f8f" d="M0 200.946h16.516v110.107H0z"/>
		</symbol>
		<symbol id="shape-icon-flag-de" viewBox="0 0 512 512">
			<path fill="#5d5360" d="M512 200.946v-93.591c0-9.122-7.395-16.516-16.516-16.516H16.516l-8.849 16.516v93.591l17.104 22.022h462.456z"/><path fill="#4b3f4e" d="M0 107.355v93.591l16.516 14.683V90.839C7.395 90.839 0 98.233 0 107.355z"/><path fill="#ffe07d" d="M7.817 311.054v86.43c0 9.122 7.395 16.516 16.516 16.516h471.151L512 404.645v-93.591l-24.77-22.022H24.774z"/><path fill="#ffd064" d="M16.516 355.097v-58.724L0 311.054v93.591c0 9.122 7.395 16.516 16.516 16.516h478.968c9.121 0 16.516-7.394 16.516-16.516H66.065c-27.365 0-49.549-22.183-49.549-49.548z"/><path fill="#e5646e" d="M8.667 297l7.849 14.053H512V200.946H16.516l-7.849 17.387z"/><path fill="#db4655" d="M0 200.946h16.516v110.107H0z"/>
		</symbol>
		<symbol id="shape-icon-flag-es" viewBox="0 0 512 512">
			<path fill="#e5646e" d="M495.484 90.839H16.516l-8.849 16.516v291.129c0 9.122 7.395 16.516 16.516 16.516h471.301L512 404.645v-49.548L497 337V171l15-14.097v-49.548c0-9.122-7.395-16.516-16.516-16.516z"/><path fill="#db4655" d="M16.516 355.097V90.839C7.395 90.839 0 98.233 0 107.355v49.548L7.5 168.5V342L0 355.097v49.548c0 9.122 7.395 16.516 16.516 16.516h478.968c9.121 0 16.516-7.395 16.516-16.516H66.065c-27.365 0-49.549-22.183-49.549-49.548z"/><path fill="#ffe07d" d="M512 355.097H16.516L8.5 339.5V177l8.016-20.097H512z"/><path fill="#db4655" d="M148.645 189.935c-9.121 0-16.516 7.394-16.516 16.516v24.774h33.032v-24.774c0-9.121-7.394-16.516-16.516-16.516z"/><path fill="#e5646e" d="M148.645 313.806l-41.29-49.548v-33.032a8.258 8.258 0 018.258-8.258h33.032l41.29 41.29v8.258c0 22.804-18.486 41.29-41.29 41.29z"/><path fill="#fff" d="M66.065 222.968h16.516v82.581H66.065z"/><path fill="#ffd064" d="M0 156.903h16.516v198.194H0z"/><circle cx="74.323" cy="222.968" r="8.258" fill="#e5646e"/><circle cx="74.323" cy="305.548" r="8.258" fill="#5055a0"/><path fill="#fff" d="M214.71 222.968h16.516v82.581H214.71z"/><circle cx="222.968" cy="222.968" r="8.258" fill="#e5646e"/><circle cx="222.968" cy="305.548" r="8.258" fill="#5055a0"/><path fill="#fff" d="M181.677 222.968h-33.032v41.29h41.29v-33.032a8.258 8.258 0 00-8.258-8.258z"/><path fill="#ffc269" d="M107.355 264.258v8.258c0 22.804 18.486 41.29 41.29 41.29v-49.548z"/><circle cx="148.645" cy="264.258" r="16.516" fill="#5055a0"/>
		</symbol>
		<symbol id="shape-icon-flag-pt" viewBox="0 0 4200 2940">
			<rect width="100%" height="100%" fill="none"/><g class="currentLayer"><path fill="#009b3a" d="M1.858-.431h4198.161v2940.464H1.858z" color="#000"/><path fill="#fedf00" d="M357 1470l1743 1113 1743-1113L2100 357z"/><circle cx="2100" cy="1470" r="735" fill="#002776"/></g>
		</symbol>
		<symbol id="shape-icon-flag-jp" viewBox="0 0 900 600">
			<rect fill="#fff" height="600" width="900"/>
			<circle fill="#bc002d" cx="450" cy="300" r="180"/>
		</symbol>
		<symbol id="shape-icon-flag-it" viewBox="0 0 3 2">
			<path fill="#009246" d="M0 0h1v2H0z"/><path fill="#fff" d="M1 0h1v2H1z"/><path fill="#ce2b37" d="M2 0h1v2H2z"/>
		</symbol>
		<symbol id="shape-icon-flag-dn" viewBox="0 0 37 28">
			<path fill="#c60c30" d="M0,0H37V28H0Z"/><path fill="#fff" d="M0,12H12V0H16V12H37V16H16V28H12V16H0Z"/>
		</symbol>
		<symbol id="shape-icon-flag-pl" viewBox="0 0 16 10">
			<path fill="#fff" d="M0 0h16v10H0z"/><path fill="#dc143c" d="M0 5h16v5H0z"/>
		</symbol>
		<symbol id="shape-icon-flag-ch" viewBox="0 0 30 20">
			<path fill="#de2910" d="M0 0h30v20H0z"/><use transform="matrix(3 0 0 3 5 5)" xlink:href="#a"/><use transform="rotate(23.036 .093 25.536)" xlink:href="#a"/><use transform="rotate(45.87 1.273 16.18)" xlink:href="#a"/><use transform="rotate(69.945 .996 12.078)" xlink:href="#a"/><use transform="rotate(20.66 -19.689 31.932)" xlink:href="#a"/>
		</symbol>
		<symbol id="shape-icon-flag-du" viewBox="0 0 15 3.3">
			<rect y="6.666" fill="#21468B" width="15" height="3.3333"/>
			<rect y="3.3333" fill="#FFFFFF" width="15" height="3.3333"/>
			<rect y="0" fill="#AE1C28" width="15" height="3.3333"/>
		</symbol>
		<symbol id="shape-icon-flag-se" viewBox="0 0 16 10">
			<path fill="#006aa7" d="M0 0h16v10H0z"/><path fill="#fecc00" d="M5 0h2v10H5z"/><path fill="#fecc00" d="M0 4h16v2H0z"/>
		</symbol>
	</defs>
</svg>