<svg xmlns="http://www.w3.org/2000/svg">
	<defs>
		<symbol id="shape-icon-flag-fr" viewBox="0 0 512 512">
			<path fill="#5055a0" d="M170.667 90.839H16.516l-6.032 16.516v289.796c0 9.121 7.395 16.516 16.516 16.516h143.667l19.269-17.283V115.616z"/><path fill="#e5646e" d="M341.333 413.5h154.151L512 404.645v-297.29c0-9.121-7.395-16.516-16.516-16.516H341.333l-19.269 24.778v280.768z"/><path fill="#db4655" d="M512 404.645H328.489l12.844 16.516h154.151c9.121 0 16.516-7.394 16.516-16.516z"/><path fill="#3f3f8f" d="M16.516 355.097V90.839C7.395 90.839 0 98.233 0 107.355v297.29c0 9.122 7.395 16.516 16.516 16.516h154.151l12.844-16.516H66.065c-27.365 0-49.549-22.183-49.549-49.548z"/><path fill="#f2f2f6" d="M187.333 413.667h141l13-9.022V90.839H170.667v313.806z"/><path fill="#e1e1e6" d="M170.667 404.645h170.666v16.516H170.667z"/>
		</symbol>
		<symbol id="shape-icon-flag-en" viewBox="0 0 512.002 512.002">
			<path fill="#41479b" d="M503.172 423.725H8.828A8.829 8.829 0 010 414.897V97.104a8.829 8.829 0 018.828-8.828h494.345a8.829 8.829 0 018.828 8.828v317.793a8.83 8.83 0 01-8.829 8.828z"/><path fill="#f5f5f5" d="M512 97.104a8.829 8.829 0 00-8.828-8.828h-39.495l-163.54 107.147V88.276h-88.276v107.147L48.322 88.276H8.828A8.829 8.829 0 000 97.104v22.831l140.309 91.927H0v88.276h140.309L0 392.066v22.831a8.829 8.829 0 008.828 8.828h39.495l163.54-107.147v107.147h88.276V316.578l163.54 107.147h39.495a8.829 8.829 0 008.828-8.828v-22.831l-140.309-91.927H512v-88.276H371.691L512 119.935V97.104z"/><g fill="#ff4b55"><path d="M512 229.518H282.483V88.276h-52.966v141.242H0v52.965h229.517v141.242h52.966V282.483H512z"/><path d="M178.948 300.138L.25 416.135c.625 4.263 4.14 7.59 8.577 7.59h12.159l190.39-123.586h-32.428v-.001zM346.388 300.138H313.96l190.113 123.404c4.431-.472 7.928-4.09 7.928-8.646v-7.258l-165.613-107.5zM0 106.849l161.779 105.014h32.428L5.143 89.137C2.123 90.54 0 93.555 0 97.104v9.745zM332.566 211.863L511.693 95.586c-.744-4.122-4.184-7.309-8.521-7.309h-12.647L300.138 211.863h32.428z"/></g>
		</symbol>
		<symbol id="shape-icon-flag-ru" viewBox="0 0 512 512">
			<path fill="#f2f2f6" d="M512 200.946v-93.591c0-9.122-7.395-16.516-16.516-16.516H16.516l-8.849 16.516v93.591l17.104 22.022h462.456z"/><path fill="#e1e1e6" d="M0 107.355v93.591l16.516 14.683V90.839C7.395 90.839 0 98.233 0 107.355z"/><path fill="#e5646e" d="M7.817 311.054v86.43c0 9.122 7.395 16.516 16.516 16.516h471.151L512 404.645v-93.591l-24.77-22.022H24.774z"/><path fill="#db4655" d="M16.516 355.097v-58.724L0 311.054v93.591c0 9.122 7.395 16.516 16.516 16.516h478.968c9.121 0 16.516-7.394 16.516-16.516H66.065c-27.365 0-49.549-22.183-49.549-49.548z"/><path fill="#5055a0" d="M8.667 297l7.849 14.053H512V200.946H16.516l-7.849 17.387z"/><path fill="#3f3f8f" d="M0 200.946h16.516v110.107H0z"/>
		</symbol>
		<symbol id="shape-icon-flag-de" viewBox="0 0 512 512">
			<path fill="#5d5360" d="M512 200.946v-93.591c0-9.122-7.395-16.516-16.516-16.516H16.516l-8.849 16.516v93.591l17.104 22.022h462.456z"/><path fill="#4b3f4e" d="M0 107.355v93.591l16.516 14.683V90.839C7.395 90.839 0 98.233 0 107.355z"/><path fill="#ffe07d" d="M7.817 311.054v86.43c0 9.122 7.395 16.516 16.516 16.516h471.151L512 404.645v-93.591l-24.77-22.022H24.774z"/><path fill="#ffd064" d="M16.516 355.097v-58.724L0 311.054v93.591c0 9.122 7.395 16.516 16.516 16.516h478.968c9.121 0 16.516-7.394 16.516-16.516H66.065c-27.365 0-49.549-22.183-49.549-49.548z"/><path fill="#e5646e" d="M8.667 297l7.849 14.053H512V200.946H16.516l-7.849 17.387z"/><path fill="#db4655" d="M0 200.946h16.516v110.107H0z"/>
		</symbol>
		<symbol id="shape-icon-flag-es" viewBox="0 0 512 512">
			<path fill="#e5646e" d="M495.484 90.839H16.516l-8.849 16.516v291.129c0 9.122 7.395 16.516 16.516 16.516h471.301L512 404.645v-49.548L497 337V171l15-14.097v-49.548c0-9.122-7.395-16.516-16.516-16.516z"/><path fill="#db4655" d="M16.516 355.097V90.839C7.395 90.839 0 98.233 0 107.355v49.548L7.5 168.5V342L0 355.097v49.548c0 9.122 7.395 16.516 16.516 16.516h478.968c9.121 0 16.516-7.395 16.516-16.516H66.065c-27.365 0-49.549-22.183-49.549-49.548z"/><path fill="#ffe07d" d="M512 355.097H16.516L8.5 339.5V177l8.016-20.097H512z"/><path fill="#db4655" d="M148.645 189.935c-9.121 0-16.516 7.394-16.516 16.516v24.774h33.032v-24.774c0-9.121-7.394-16.516-16.516-16.516z"/><path fill="#e5646e" d="M148.645 313.806l-41.29-49.548v-33.032a8.258 8.258 0 018.258-8.258h33.032l41.29 41.29v8.258c0 22.804-18.486 41.29-41.29 41.29z"/><path fill="#fff" d="M66.065 222.968h16.516v82.581H66.065z"/><path fill="#ffd064" d="M0 156.903h16.516v198.194H0z"/><circle cx="74.323" cy="222.968" r="8.258" fill="#e5646e"/><circle cx="74.323" cy="305.548" r="8.258" fill="#5055a0"/><path fill="#fff" d="M214.71 222.968h16.516v82.581H214.71z"/><circle cx="222.968" cy="222.968" r="8.258" fill="#e5646e"/><circle cx="222.968" cy="305.548" r="8.258" fill="#5055a0"/><path fill="#fff" d="M181.677 222.968h-33.032v41.29h41.29v-33.032a8.258 8.258 0 00-8.258-8.258z"/><path fill="#ffc269" d="M107.355 264.258v8.258c0 22.804 18.486 41.29 41.29 41.29v-49.548z"/><circle cx="148.645" cy="264.258" r="16.516" fill="#5055a0"/>
		</symbol>
		<symbol id="shape-icon-flag-pt" viewBox="-2100 -1470 4200 2940">
			<path id="i" fill-rule="evenodd" d="M-31.5 0h33a30 30 0 0030-30v-10a30 30 0 00-30-30h-33zm13-13h19a19 19 0 0019-19v-6a19 19 0 00-19-19h-19z"/><path id="j" d="M0 0h63v-13H12v-18h40v-12H12v-14h48v-13H0z" transform="translate(-31.5)"/><path id="l" d="M-26.25 0h52.5v-12h-40.5v-16h33v-12h-33v-11H25v-12h-51.25z"/><path id="k" d="M-31.5 0h12v-48l14 48h11l14-48V0h12v-70H14L0-22l-14-48h-17.5z"/><path id="c" fill-rule="evenodd" d="M0 0a31.5 35 0 000-70A31.5 35 0 000 0m0-13a18.5 22 0 000-44 18.5 22 0 000 44"/><path id="d" fill-rule="evenodd" d="M-31.5 0h13v-26h28a22 22 0 000-44h-40zm13-39h27a9 9 0 000-18h-27z"/><path id="n" d="M-15.75-22C-15.75-15-9-11.5 1-11.5s14.74-3.25 14.75-7.75c0-14.25-46.75-5.25-46.5-30.25C-30.5-71-6-70 3-70s26 4 25.75 21.25H13.5c0-7.5-7-10.25-15-10.25-7.75 0-13.25 1.25-13.25 8.5-.25 11.75 46.25 4 46.25 28.75C31.5-3.5 13.5 0 0 0c-11.5 0-31.55-4.5-31.5-22z"/><use id="o" transform="scale(31.5)" xlink:href="#a"/><use id="p" transform="scale(26.25)" xlink:href="#a"/><use id="r" transform="scale(21)" xlink:href="#a"/><use id="q" transform="scale(15)" xlink:href="#a"/><use id="s" transform="scale(10.5)" xlink:href="#a"/><g id="m"><clipPath id="b"><path d="M-31.5 0v-70h63V0zM0-47v12h31.5v-12z"/></clipPath><use clip-path="url(#b)" xlink:href="#c"/><path d="M5-35h26.5v10H5z"/><path d="M21.5-35h10V0h-10z"/></g><g id="h"><use xlink:href="#d"/><path d="M28 0c0-10 0-32-15-32H-6c22 0 22 22 22 32"/></g><g id="a" fill="#fff"><g id="f"><path id="e" d="M0-1v1h.5" transform="rotate(18 0 -1)"/><use transform="scale(-1 1)" xlink:href="#e"/></g><use transform="rotate(72)" xlink:href="#f"/><use transform="rotate(-72)" xlink:href="#f"/><use transform="rotate(144)" xlink:href="#f"/><use transform="rotate(216)" xlink:href="#f"/></g></defs><rect width="100%" height="100%" x="-50%" y="-50%" fill="#009b3a"/><path fill="#fedf00" d="M-1743 0L0 1113 1743 0 0-1113z"/><circle r="735" fill="#002776"/><clipPath id="g"><circle r="735"/></clipPath><path fill="#fff" d="M-2205 1470a1785 1785 0 013570 0h-105a1680 1680 0 10-3360 0z" clip-path="url(#g)"/><g fill="#009b3a" transform="translate(-420 1470)"><use y="-1697.5" transform="rotate(-7)" xlink:href="#c"/><use y="-1697.5" transform="rotate(-4)" xlink:href="#h"/><use y="-1697.5" transform="rotate(-1)" xlink:href="#i"/><use y="-1697.5" transform="rotate(2)" xlink:href="#j"/><use y="-1697.5" transform="rotate(5)" xlink:href="#k"/><use y="-1697.5" transform="rotate(9.75)" xlink:href="#l"/><use y="-1697.5" transform="rotate(14.5)" xlink:href="#d"/><use y="-1697.5" transform="rotate(17.5)" xlink:href="#h"/><use y="-1697.5" transform="rotate(20.5)" xlink:href="#c"/><use y="-1697.5" transform="rotate(23.5)" xlink:href="#m"/><use y="-1697.5" transform="rotate(26.5)" xlink:href="#h"/><use y="-1697.5" transform="rotate(29.5)" xlink:href="#j"/><use y="-1697.5" transform="rotate(32.5)" xlink:href="#n"/><use y="-1697.5" transform="rotate(35.5)" xlink:href="#n"/><use y="-1697.5" transform="rotate(38.5)" xlink:href="#c"/></g><use x="-600" y="-132" xlink:href="#o"/><use x="-535" y="177" xlink:href="#o"/><use x="-625" y="243" xlink:href="#p"/><use x="-463" y="132" xlink:href="#q"/><use x="-382" y="250" xlink:href="#p"/><use x="-404" y="323" xlink:href="#r"/><use x="228" y="-228" xlink:href="#o"/><use x="515" y="258" xlink:href="#o"/><use x="617" y="265" xlink:href="#r"/><use x="545" y="323" xlink:href="#p"/><use x="368" y="477" xlink:href="#p"/><use x="367" y="551" xlink:href="#r"/><use x="441" y="419" xlink:href="#r"/><use x="500" y="382" xlink:href="#p"/><use x="365" y="405" xlink:href="#r"/><use x="-280" y="30" xlink:href="#p"/><use x="200" y="-37" xlink:href="#r"/><use y="330" xlink:href="#o"/><use x="85" y="184" xlink:href="#p"/><use y="118" xlink:href="#p"/><use x="-74" y="184" xlink:href="#r"/><use x="-37" y="235" xlink:href="#q"/><use x="220" y="495" xlink:href="#p"/><use x="283" y="430" xlink:href="#r"/><use x="162" y="412" xlink:href="#r"/><use x="-295" y="390" xlink:href="#o"/><use y="575" xlink:href="#s"/>
		</symbol>
		<symbol id="shape-icon-flag-jp" viewBox="0 0 512 512">
			<style type="text/css">
	.st0{fill:#FFFFFF;}
	.st1{fill:#AD1F23;}
</style><g><rect class="st0" height="298.7" width="512" y="106.7"/><path class="st1" d="M256,166.4c49.5,0,89.6,40.1,89.6,89.6c0,49.5-40.1,89.6-89.6,89.6c-49.5,0-89.6-40.1-89.6-89.6   C166.4,206.5,206.5,166.4,256,166.4"/></g>
		</symbol>
		<symbol id="shape-icon-flag-it" viewBox="0 0 512 512">
			<style type="text/css">
	.st0{fill:#3D9448;}
	.st1{fill:#F4F4F4;}
	.st2{fill:#D81E34;}
</style><g><rect class="st0" height="298.7" width="170.7" y="106.7"/><rect class="st1" height="298.7" width="170.7" x="170.7" y="106.7"/><rect class="st2" height="298.7" width="170.7" x="341.3" y="106.7"/></g>
		</symbol>
		<symbol id="shape-icon-flag-dn" viewBox="0 0 512 512">
			<style type="text/css">
	.st0{fill:#BE1F3E;}
	.st1{fill:#FFFFFF;}
</style><g id="XMLID_1_"><rect class="st0" height="298.7" id="XMLID_4_" width="512" y="106.7"/><rect class="st1" height="298.7" id="XMLID_3_" width="55.3" x="166.1" y="106.7"/><rect class="st1" height="55.4" id="XMLID_2_" width="512" y="228.3"/></g>
		</symbol>
		<symbol id="shape-icon-flag-pl" viewBox="0 0 512 512">
			<style type="text/css">
	.st0{fill:#FFFFFF;}
	.st1{fill:#D81E34;}
</style><g><rect class="st0" height="149.4" width="512" y="106.7"/><rect class="st1" height="149.3" width="512" y="256"/></g>
		</symbol>
		<symbol id="shape-icon-flag-ch" viewBox="0 0 512 512">
			<style type="text/css">
	.st0{fill:#CB2127;}
	.st1{fill:#F7DE28;}
</style><g id="XMLID_1_"><rect class="st0" height="298.7" id="XMLID_7_" width="512" y="106.7"/><polygon class="st1" id="XMLID_6_" points="49.3,214.8 58.9,185 33.6,166.5 64.9,166.4 74.7,136.7 84.4,166.4 115.7,166.5    90.4,185 100,214.8 74.7,196.4  "/><polygon class="st1" id="XMLID_5_" points="136.6,230.9 147.2,235.1 154.5,226.4 153.7,237.8 164.3,242.1 153.2,244.9 152.4,256.2    146.3,246.6 135.3,249.3 142.6,240.5  "/><polygon class="st1" id="XMLID_4_" points="193.8,173.6 182.6,171.7 177.2,181.7 175.6,170.4 164.4,168.4 174.6,163.4 173,152.1    181,160.3 191.2,155.3 185.9,165.4  "/><polygon class="st1" id="XMLID_3_" points="170,224.6 173.5,213.8 164.3,207.1 175.7,207.1 179.2,196.2 182.7,207.1 194.1,207.1    184.9,213.8 188.4,224.6 179.2,218  "/><polygon class="st1" id="XMLID_2_" points="137.1,125.7 147.5,130.4 155.3,122.1 153.9,133.4 164.2,138.3 153,140.5 151.6,151.8    146.1,141.8 134.9,144 142.6,135.6  "/></g>
		</symbol>
		<symbol id="shape-icon-flag-du" viewBox="0 0 15000 10000">
			<rect y="6666.7" fill="#21468B" width="15000" height="3333.3"/>
<rect y="3333.3" fill="#FFFFFF" width="15000" height="3333.3"/>
<rect y="0" fill="#AE1C28" width="15000" height="3333.3"/>
		</symbol>
		<symbol id="shape-icon-flag-se" viewBox="0 0 512 512">
			<style type="text/css">
	.st0{fill:#2D5A95;}
	.st1{fill:#F3D02F;}
</style><g><rect class="st0" height="298.7" width="512" y="106.7"/><rect class="st1" height="298.7" width="59.7" x="149.3" y="106.7"/><rect class="st1" height="59.7" width="512" y="226.1"/></g>
		</symbol>
	</defs>
</svg>